{
.appVersion = "1286";
DisplayStrings = (
"/uni4E9C/uni5516/uni5A03/uni963F/uni54C0/uni611B/uni6328/_part.kanji.001/uni59F6/uni8475/uni831C/uni7A50/uni60AA/uni63E1/uni6E25/uni65ED/uni8466/uni9BF5/uni6893/uni5727/uni65A1/uni6271/uni5B9B/uni59D0/uni867B/uni7D62/uni7DBE/uni9B8E/uni6216/uni7C9F/uni88B7/uni5B89/uni5EB5/uni6309/uni6697/uni6848/uni95C7/uni978D/uni674F/uni4EE5/uni4F0A/uni4F4D/uni4F9D/uni5049/uni56F2/uni5937/uni59D4/uni5A01/uni7B39",
"ABCDEFGHIJKLMN\012OPQRSTUVWXYZ\012abcdefghijklmnopqrstuvwxyz\012\012/uni7B39/_part.kanji/_corner.uroko.001/_part.v-line/_part.v-line/_part.yoko.001/_part.yoko.001",
"/uni2160/uni2161/uni2162/uni2163/uni2164/uni2165/uni2166/uni2167/uni2168/uni2169/uni2170/uni2171/uni2172/uni2173/uni2174/uni2175/uni2176/uni2177/uni2178/uni2179 \0120123456789\012/one.circled/two.circled/three.circled/four.circled/five.circled/six.circled/seven.circled/eight.circled/nine.circled/one_zero.circled \012/one_one.circled/one_two.circled/one_three.circled/one_four.circled/one_five.circled/one_six.circled/one_seven.circled/one_eight.circled/one_nine.circled/two_zero.circled/zero.circled \012/miriSquare/kiroSquare/meetoruSquare/tonSquare/hekutaaruSquare/rittoruSquare/karoriiSquare/doruSquare/paasentoSquare/miribaaruSquare \012/mmSquare/cmSquare/kmSquare m1/mgSquare/kgSquare/ccSquare/msquaredSquare/quotedoubleprimeReversed/lowquotedoubleprime/KKSquare \012/high-han.circled/centre-han.circled/low-han.circled/left-han.circled/right-han.circled/have-han.paren/represent-han.paren/meizieraSquare/taisyoueraSquare/syouwaeraSquare \012/sentiSquare/guramuSquare/aaruSquare/sentoSquare/wattoSquare/peeziSquare/heartWhiteSuit/heartBlackSuit/whiteXBlackDiamond/rightWhiteIndex/Twelve-roman A\012/heiseieraSquare/contourintegral/orthogonal/righttriangle/uni3231/uni32FF \012\012\012/uni4E0A/uni4E2D/uni4E0B/uni5DE6/uni53F3/uni6709/uni4EE3 \012/uni660E/uni6CBB/uni5927/uni6B63/uni662D/uni682A/uni548C/uni5E73/uni6210/uni682A/uni4EE4 \012",

glyphs = (
{
glyphname = exclam;
lastChange = "2020-01-25 13:30:55 +0000";
layers = (
{
layerId = "4FF06481-DC31-47E8-8EFF-C3C3B18F183D";
paths = (
{
closed = 1;
nodes = (
"98 159 OFFCURVE",
"87 167 OFFCURVE",
"87 201 CURVE SMOOTH",
"87 403 OFFCURVE",
"62 496 OFFCURVE",
"62 638 CURVE SMOOTH",
"62 678 OFFCURVE",
"77 700 OFFCURVE",
"105 700 CURVE SMOOTH",
"133 700 OFFCURVE",
"149 678 OFFCURVE",
"149 638 CURVE SMOOTH",
"149 494 OFFCURVE",
"123 395 OFFCURVE",
"123 201 CURVE SMOOTH",
"123 174 OFFCURVE",
"116 159 OFFCURVE",
"105 159 CURVE SMOOTH"
);
},
{
closed = 1;
nodes = (
"81 0 OFFCURVE",
"60 21 OFFCURVE",
"60 46 CURVE SMOOTH",
"60 71 OFFCURVE",
"81 92 OFFCURVE",
"106 92 CURVE SMOOTH",
"131 92 OFFCURVE",
"152 71 OFFCURVE",
"152 46 CURVE SMOOTH",
"152 21 OFFCURVE",
"131 0 OFFCURVE",
"106 0 CURVE SMOOTH"
);
}
);
width = 212;
}
);
unicode = 0021;
},
{
glyphname = numbersign;
lastChange = "2020-02-11 11:07:16 +0000";
layers = (
{
anchors = (
{
name = _center;
position = "{161.85, 350.535}";
}
);
layerId = "4FF06481-DC31-47E8-8EFF-C3C3B18F183D";
paths = (
{
closed = 1;
nodes = (
"20 231 OFFCURVE",
"24 224 OFFCURVE",
"33 225 CURVE SMOOTH",
"58 228 OFFCURVE",
"81 230 OFFCURVE",
"104 231 CURVE SMOOTH",
"121 232 OFFCURVE",
"130 221 OFFCURVE",
"127 204 CURVE SMOOTH",
"112 126 OFFCURVE",
"99 60 OFFCURVE",
"92 27 CURVE SMOOTH",
"88 7 OFFCURVE",
"97 -5 OFFCURVE",
"110 -7 CURVE SMOOTH",
"121 -9 OFFCURVE",
"135 -1 OFFCURVE",
"137 19 CURVE SMOOTH",
"142 56 OFFCURVE",
"153 127 OFFCURVE",
"167 210 CURVE SMOOTH",
"170 225 OFFCURVE",
"179 233 OFFCURVE",
"194 233 CURVE SMOOTH",
"231 233 LINE SMOOTH",
"248 233 OFFCURVE",
"264 233 OFFCURVE",
"280 232 CURVE SMOOTH",
"297 231 OFFCURVE",
"305 221 OFFCURVE",
"302 204 CURVE SMOOTH",
"287 126 OFFCURVE",
"274 60 OFFCURVE",
"267 27 CURVE SMOOTH",
"263 7 OFFCURVE",
"272 -5 OFFCURVE",
"285 -7 CURVE SMOOTH",
"296 -9 OFFCURVE",
"310 -1 OFFCURVE",
"312 19 CURVE SMOOTH",
"317 55 OFFCURVE",
"328 124 OFFCURVE",
"341 206 CURVE SMOOTH",
"344 222 OFFCURVE",
"354 230 OFFCURVE",
"369 229 CURVE SMOOTH",
"428 225 LINE SMOOTH",
"446 224 OFFCURVE",
"460 250 OFFCURVE",
"460 267 CURVE SMOOTH",
"460 275 OFFCURVE",
"457 282 OFFCURVE",
"448 281 CURVE SMOOTH",
"430 279 OFFCURVE",
"408 277 OFFCURVE",
"381 276 CURVE SMOOTH",
"364 275 OFFCURVE",
"355 285 OFFCURVE",
"358 303 CURVE SMOOTH",
"365 345 LINE",
"373 389 LINE SMOOTH",
"376 405 OFFCURVE",
"386 412 OFFCURVE",
"401 411 CURVE SMOOTH",
"465 407 LINE SMOOTH",
"483 406 OFFCURVE",
"497 432 OFFCURVE",
"497 449 CURVE SMOOTH",
"497 457 OFFCURVE",
"494 464 OFFCURVE",
"485 463 CURVE SMOOTH",
"467 461 OFFCURVE",
"442 460 OFFCURVE",
"414 459 CURVE SMOOTH",
"396 458 OFFCURVE",
"388 469 OFFCURVE",
"391 486 CURVE SMOOTH",
"427 668 LINE SMOOTH",
"432 688 OFFCURVE",
"421 699 OFFCURVE",
"409 701 CURVE SMOOTH",
"397 704 OFFCURVE",
"384 697 OFFCURVE",
"382 676 CURVE SMOOTH",
"376 641 OFFCURVE",
"365 567 OFFCURVE",
"351 480 CURVE SMOOTH",
"348 465 OFFCURVE",
"339 457 OFFCURVE",
"324 457 CURVE SMOOTH",
"270 457 LINE",
"238 457 LINE SMOOTH",
"221 457 OFFCURVE",
"212 467 OFFCURVE",
"215 485 CURVE SMOOTH",
"231 565 OFFCURVE",
"245 632 OFFCURVE",
"252 668 CURVE SMOOTH",
"257 688 OFFCURVE",
"246 699 OFFCURVE",
"234 701 CURVE SMOOTH",
"222 704 OFFCURVE",
"209 697 OFFCURVE",
"207 676 CURVE SMOOTH",
"201 641 OFFCURVE",
"190 568 OFFCURVE",
"176 482 CURVE SMOOTH",
"173 466 OFFCURVE",
"164 458 OFFCURVE",
"148 459 CURVE SMOOTH",
"128 460 OFFCURVE",
"107 461 OFFCURVE",
"90 463 CURVE SMOOTH",
"72 465 OFFCURVE",
"57 439 OFFCURVE",
"57 421 CURVE SMOOTH",
"57 413 OFFCURVE",
"61 406 OFFCURVE",
"70 407 CURVE SMOOTH",
"92 410 OFFCURVE",
"115 411 OFFCURVE",
"136 412 CURVE SMOOTH",
"154 413 OFFCURVE",
"162 403 OFFCURVE",
"160 386 CURVE SMOOTH",
"157 370 OFFCURVE",
"154 354 OFFCURVE",
"151 338 CURVE SMOOTH",
"144 299 LINE SMOOTH",
"141 283 OFFCURVE",
"132 276 OFFCURVE",
"117 277 CURVE SMOOTH",
"94 278 OFFCURVE",
"73 280 OFFCURVE",
"53 282 CURVE SMOOTH",
"35 284 OFFCURVE",
"20 257 OFFCURVE",
"20 240 CURVE SMOOTH"
);
},
{
closed = 1;
nodes = (
"190 345 LINE",
"198 391 LINE SMOOTH",
"201 407 OFFCURVE",
"210 414 OFFCURVE",
"225 414 CURVE SMOOTH",
"268 414 LINE SMOOTH",
"283 414 OFFCURVE",
"298 414 OFFCURVE",
"312 414 CURVE SMOOTH",
"329 413 OFFCURVE",
"337 403 OFFCURVE",
"335 387 CURVE SMOOTH",
"332 370 OFFCURVE",
"329 354 OFFCURVE",
"326 338 CURVE SMOOTH",
"319 297 LINE SMOOTH",
"316 282 OFFCURVE",
"308 275 OFFCURVE",
"292 274 CURVE SMOOTH",
"275 274 OFFCURVE",
"258 274 OFFCURVE",
"240 274 CURVE SMOOTH",
"205 275 LINE SMOOTH",
"188 275 OFFCURVE",
"180 285 OFFCURVE",
"183 302 CURVE SMOOTH"
);
}
);
width = 517;
}
);
unicode = 0023;
},
{
glyphname = percent;
lastChange = "2020-01-28 13:06:39 +0000";
layers = (
{
components = (
{
name = fraction;
transform = "{1, 0, 0, 1, 44, 0}";
}
);
layerId = "4FF06481-DC31-47E8-8EFF-C3C3B18F183D";
paths = (
{
closed = 1;
nodes = (
"237 393 OFFCURVE",
"308 446 OFFCURVE",
"308 544 CURVE SMOOTH",
"308 644 OFFCURVE",
"237 698 OFFCURVE",
"174 698 CURVE SMOOTH",
"111 698 OFFCURVE",
"40 644 OFFCURVE",
"40 544 CURVE SMOOTH",
"40 446 OFFCURVE",
"111 393 OFFCURVE",
"174 393 CURVE SMOOTH"
);
},
{
closed = 1;
nodes = (
"122 416 OFFCURVE",
"100 475 OFFCURVE",
"100 545 CURVE SMOOTH",
"100 615 OFFCURVE",
"122 675 OFFCURVE",
"174 675 CURVE SMOOTH",
"226 675 OFFCURVE",
"247 615 OFFCURVE",
"247 545 CURVE SMOOTH",
"247 475 OFFCURVE",
"226 416 OFFCURVE",
"174 416 CURVE SMOOTH"
);
},
{
closed = 1;
nodes = (
"567 4 OFFCURVE",
"638 57 OFFCURVE",
"638 155 CURVE SMOOTH",
"638 255 OFFCURVE",
"567 309 OFFCURVE",
"504 309 CURVE SMOOTH",
"441 309 OFFCURVE",
"370 255 OFFCURVE",
"370 155 CURVE SMOOTH",
"370 57 OFFCURVE",
"441 4 OFFCURVE",
"504 4 CURVE SMOOTH"
);
},
{
closed = 1;
nodes = (
"452 27 OFFCURVE",
"430 86 OFFCURVE",
"430 156 CURVE SMOOTH",
"430 226 OFFCURVE",
"452 286 OFFCURVE",
"504 286 CURVE SMOOTH",
"556 286 OFFCURVE",
"577 226 OFFCURVE",
"577 156 CURVE SMOOTH",
"577 86 OFFCURVE",
"556 27 OFFCURVE",
"504 27 CURVE SMOOTH"
);
}
);
width = 678;
}
);
unicode = 0025;
},
{
glyphname = ampersand;
lastChange = "2020-01-28 19:12:24 +0000";
layers = (
{
layerId = "4FF06481-DC31-47E8-8EFF-C3C3B18F183D";
paths = (
{
closed = 1;
nodes = (
"590 360 OFFCURVE",
"587 308 CURVE SMOOTH",
"577 141 OFFCURVE",
"449 50 OFFCURVE",
"306 50 CURVE SMOOTH",
"138 50 OFFCURVE",
"114 194 OFFCURVE",
"121 229 CURVE SMOOTH",
"131 311 OFFCURVE",
"168 329 OFFCURVE",
"301 411 CURVE SMOOTH",
"377 458 OFFCURVE",
"440 507 OFFCURVE",
"446 577 CURVE SMOOTH",
"451 634 OFFCURVE",
"406 700 OFFCURVE",
"309 700 CURVE SMOOTH",
"235 700 OFFCURVE",
"164 654 OFFCURVE",
"151 583 CURVE SMOOTH",
"139 515 OFFCURVE",
"175 461 OFFCURVE",
"232 380 CURVE SMOOTH",
"282 309 OFFCURVE",
"492 14 OFFCURVE",
"596 0 CURVE SMOOTH",
"656 -8 OFFCURVE",
"718 35 OFFCURVE",
"734 66 CURVE SMOOTH",
"736 71 OFFCURVE",
"737 74 OFFCURVE",
"737 78 CURVE SMOOTH",
"737 85 OFFCURVE",
"733 89 OFFCURVE",
"726 89 CURVE SMOOTH",
"723 89 OFFCURVE",
"720 88 OFFCURVE",
"716 86 CURVE SMOOTH",
"708 81 OFFCURVE",
"699 55 OFFCURVE",
"668 55 CURVE SMOOTH",
"665 55 OFFCURVE",
"661 55 OFFCURVE",
"657 56 CURVE SMOOTH",
"587 68 OFFCURVE",
"365 339 OFFCURVE",
"304 425 CURVE SMOOTH",
"264 482 OFFCURVE",
"222 531 OFFCURVE",
"221 588 CURVE SMOOTH",
"220 638 OFFCURVE",
"255 673 OFFCURVE",
"299 673 CURVE SMOOTH",
"350 673 OFFCURVE",
"376 628 OFFCURVE",
"376 578 CURVE SMOOTH",
"376 534 OFFCURVE",
"342 482 OFFCURVE",
"284 443 CURVE SMOOTH",
"171 367 OFFCURVE",
"40 341 OFFCURVE",
"40 204 CURVE SMOOTH",
"40 70 OFFCURVE",
"152 0 OFFCURVE",
"289 0 CURVE SMOOTH",
"491 0 OFFCURVE",
"613 146 OFFCURVE",
"638 349 CURVE SMOOTH",
"643 386 OFFCURVE",
"681 392 OFFCURVE",
"704 387 CURVE SMOOTH",
"721 384 OFFCURVE",
"731 393 OFFCURVE",
"731 402 CURVE SMOOTH",
"731 411 OFFCURVE",
"723 419 OFFCURVE",
"707 419 CURVE SMOOTH",
"678 419 OFFCURVE",
"665 419 OFFCURVE",
"609 419 CURVE SMOOTH",
"555 419 OFFCURVE",
"542 419 OFFCURVE",
"514 419 CURVE SMOOTH",
"497 419 OFFCURVE",
"489 410 OFFCURVE",
"489 402 CURVE SMOOTH",
"489 392 OFFCURVE",
"499 383 OFFCURVE",
"516 387 CURVE SMOOTH",
"562 396 OFFCURVE"
);
}
);
width = 777;
}
);
unicode = 0026;
},
{
glyphname = quotesingle;
lastChange = "2020-01-26 17:52:16 +0000";
layers = (
{
layerId = "4FF06481-DC31-47E8-8EFF-C3C3B18F183D";
paths = (
{
closed = 1;
nodes = (
"47 578 OFFCURVE",
"43 623 OFFCURVE",
"40 673 CURVE SMOOTH",
"39 694 OFFCURVE",
"55 704 OFFCURVE",
"71 704 CURVE SMOOTH",
"88 704 OFFCURVE",
"105 693 OFFCURVE",
"103 671 CURVE SMOOTH",
"100 622 OFFCURVE",
"97 577 OFFCURVE",
"90 521 CURVE SMOOTH",
"87 501 OFFCURVE",
"79 490 OFFCURVE",
"72 490 CURVE SMOOTH",
"64 490 OFFCURVE",
"57 501 OFFCURVE",
"54 521 CURVE SMOOTH"
);
}
);
width = 143;
}
);
unicode = 0027;
},
{
glyphname = parenleft;
lastChange = "2020-01-30 10:22:37 +0000";
layers = (
{
guideLines = (
{
position = "{275, -183}";
}
);
layerId = "4FF06481-DC31-47E8-8EFF-C3C3B18F183D";
paths = (
{
closed = 1;
nodes = (
"143 -15 OFFCURVE",
"96 116 OFFCURVE",
"96 254 CURVE SMOOTH",
"96 394 OFFCURVE",
"132 534 OFFCURVE",
"201 637 CURVE SMOOTH",
"211 652 OFFCURVE",
"225 666 OFFCURVE",
"225 678 CURVE SMOOTH",
"225 688 OFFCURVE",
"222 694 OFFCURVE",
"211 694 CURVE SMOOTH",
"204 694 OFFCURVE",
"193 684 OFFCURVE",
"177 663 CURVE SMOOTH",
"91 552 OFFCURVE",
"40 408 OFFCURVE",
"40 255 CURVE SMOOTH",
"40 104 OFFCURVE",
"90 -36 OFFCURVE",
"173 -153 CURVE SMOOTH",
"188 -174 OFFCURVE",
"201 -183 OFFCURVE",
"211 -183 CURVE SMOOTH",
"231 -183 OFFCURVE",
"240 -174 OFFCURVE",
"240 -158 CURVE SMOOTH",
"240 -146 OFFCURVE",
"224 -132 OFFCURVE",
"213 -116 CURVE SMOOTH"
);
}
);
width = 266;
}
);
unicode = 0028;
},
{
glyphname = asterisk;
lastChange = "2020-01-29 13:42:12 +0000";
layers = (
{
layerId = "4FF06481-DC31-47E8-8EFF-C3C3B18F183D";
paths = (
{
closed = 1;
nodes = (
"33 414 OFFCURVE",
"47 407 OFFCURVE",
"61 417 CURVE SMOOTH",
"86 436 OFFCURVE",
"115 456 OFFCURVE",
"149 479 CURVE SMOOTH",
"159 486 OFFCURVE",
"168 481 OFFCURVE",
"167 468 CURVE SMOOTH",
"164 428 OFFCURVE",
"161 393 OFFCURVE",
"158 361 CURVE SMOOTH",
"157 345 OFFCURVE",
"169 333 OFFCURVE",
"183 333 CURVE SMOOTH",
"197 333 OFFCURVE",
"209 345 OFFCURVE",
"208 361 CURVE SMOOTH",
"205 393 OFFCURVE",
"201 428 OFFCURVE",
"198 468 CURVE SMOOTH",
"197 481 OFFCURVE",
"206 486 OFFCURVE",
"216 479 CURVE SMOOTH",
"251 456 OFFCURVE",
"280 436 OFFCURVE",
"305 417 CURVE SMOOTH",
"319 407 OFFCURVE",
"334 412 OFFCURVE",
"342 426 CURVE SMOOTH",
"348 437 OFFCURVE",
"345 453 OFFCURVE",
"331 461 CURVE SMOOTH",
"304 476 OFFCURVE",
"271 489 OFFCURVE",
"234 506 CURVE SMOOTH",
"222 512 OFFCURVE",
"222 522 OFFCURVE",
"234 527 CURVE SMOOTH",
"270 545 OFFCURVE",
"304 558 OFFCURVE",
"330 573 CURVE SMOOTH",
"346 582 OFFCURVE",
"349 596 OFFCURVE",
"342 608 CURVE SMOOTH",
"335 621 OFFCURVE",
"320 626 OFFCURVE",
"305 617 CURVE SMOOTH",
"279 601 OFFCURVE",
"251 579 OFFCURVE",
"218 556 CURVE SMOOTH",
"207 549 OFFCURVE",
"198 554 OFFCURVE",
"199 566 CURVE SMOOTH",
"202 606 OFFCURVE",
"208 641 OFFCURVE",
"208 673 CURVE SMOOTH",
"208 690 OFFCURVE",
"197 701 OFFCURVE",
"183 701 CURVE SMOOTH",
"169 701 OFFCURVE",
"157 690 OFFCURVE",
"158 673 CURVE SMOOTH",
"161 643 OFFCURVE",
"164 607 OFFCURVE",
"167 566 CURVE SMOOTH",
"168 553 OFFCURVE",
"159 549 OFFCURVE",
"149 556 CURVE SMOOTH",
"115 578 OFFCURVE",
"86 600 OFFCURVE",
"60 617 CURVE SMOOTH",
"46 626 OFFCURVE",
"31 621 OFFCURVE",
"24 608 CURVE SMOOTH",
"17 596 OFFCURVE",
"20 581 OFFCURVE",
"35 573 CURVE SMOOTH",
"61 559 OFFCURVE",
"95 545 OFFCURVE",
"131 528 CURVE SMOOTH",
"143 522 OFFCURVE",
"143 512 OFFCURVE",
"131 507 CURVE SMOOTH",
"94 489 OFFCURVE",
"61 476 OFFCURVE",
"35 461 CURVE SMOOTH",
"21 453 OFFCURVE",
"16 437 OFFCURVE",
"24 426 CURVE SMOOTH"
);
}
);
width = 366;
}
);
unicode = 002A;
},
{
glyphname = plus;
lastChange = "2020-01-28 13:20:48 +0000";
layers = (
{
guideLines = (
{
position = "{100, 348}";
}
);
layerId = "4FF06481-DC31-47E8-8EFF-C3C3B18F183D";
paths = (
{
closed = 1;
nodes = (
"141 237 OFFCURVE",
"182 242 OFFCURVE",
"303 242 CURVE SMOOTH",
"423 242 OFFCURVE",
"465 234 OFFCURVE",
"529 234 CURVE SMOOTH",
"555 234 OFFCURVE",
"565 248 OFFCURVE",
"565 263 CURVE SMOOTH",
"565 279 OFFCURVE",
"555 292 OFFCURVE",
"529 291 CURVE SMOOTH",
"465 289 OFFCURVE",
"423 286 OFFCURVE",
"303 286 CURVE SMOOTH",
"182 286 OFFCURVE",
"141 286 OFFCURVE",
"78 291 CURVE SMOOTH",
"53 293 OFFCURVE",
"40 279 OFFCURVE",
"40 263 CURVE SMOOTH",
"40 248 OFFCURVE",
"53 233 OFFCURVE",
"78 234 CURVE SMOOTH"
);
},
{
closed = 1;
nodes = (
"328 101 OFFCURVE",
"323 142 OFFCURVE",
"323 263 CURVE SMOOTH",
"323 383 OFFCURVE",
"331 425 OFFCURVE",
"331 489 CURVE SMOOTH",
"331 515 OFFCURVE",
"317 525 OFFCURVE",
"303 525 CURVE SMOOTH",
"286 525 OFFCURVE",
"273 515 OFFCURVE",
"274 489 CURVE SMOOTH",
"276 425 OFFCURVE",
"279 383 OFFCURVE",
"279 263 CURVE SMOOTH",
"279 142 OFFCURVE",
"279 101 OFFCURVE",
"274 38 CURVE SMOOTH",
"272 13 OFFCURVE",
"286 0 OFFCURVE",
"303 0 CURVE SMOOTH",
"317 0 OFFCURVE",
"332 13 OFFCURVE",
"331 38 CURVE SMOOTH"
);
}
);
width = 605;
}
);
unicode = 002B;
},
{
glyphname = comma;
lastChange = "2020-01-30 09:28:08 +0000";
layers = (
{
layerId = "4FF06481-DC31-47E8-8EFF-C3C3B18F183D";
paths = (
{
closed = 1;
nodes = (
"54 -2 OFFCURVE",
"38 6 OFFCURVE",
"38 30 CURVE SMOOTH",
"38 58 OFFCURVE",
"62 79 OFFCURVE",
"81 79 CURVE SMOOTH",
"122 79 OFFCURVE",
"140 40 OFFCURVE",
"140 -1 CURVE SMOOTH",
"140 -65 OFFCURVE",
"72 -131 OFFCURVE",
"47 -131 CURVE SMOOTH",
"38 -131 OFFCURVE",
"33 -125 OFFCURVE",
"33 -118 CURVE SMOOTH",
"33 -111 OFFCURVE",
"38 -103 OFFCURVE",
"47 -100 CURVE SMOOTH",
"95 -84 OFFCURVE",
"99 -26 OFFCURVE",
"71 -11 CURVE SMOOTH"
);
}
);
width = 173;
}
);
unicode = 002C;
},
{
glyphname = hyphen;
lastChange = "2020-01-30 11:00:38 +0000";
layers = (
{
layerId = "4FF06481-DC31-47E8-8EFF-C3C3B18F183D";
paths = (
{
closed = 1;
nodes = (
"110 160 OFFCURVE",
"134 163 OFFCURVE",
"168 163 CURVE SMOOTH",
"201 163 OFFCURVE",
"226 160 OFFCURVE",
"272 157 CURVE SMOOTH",
"289 156 OFFCURVE",
"294 170 OFFCURVE",
"294 184 CURVE SMOOTH",
"294 198 OFFCURVE",
"289 212 OFFCURVE",
"272 211 CURVE SMOOTH",
"226 208 OFFCURVE",
"201 207 OFFCURVE",
"168 207 CURVE SMOOTH",
"134 207 OFFCURVE",
"110 208 OFFCURVE",
"62 211 CURVE SMOOTH",
"47 212 OFFCURVE",
"40 198 OFFCURVE",
"40 184 CURVE SMOOTH",
"40 170 OFFCURVE",
"47 156 OFFCURVE",
"62 157 CURVE SMOOTH"
);
}
);
width = 334;
}
);
unicode = 002D;
},
{
glyphname = period;
lastChange = "2020-01-22 14:15:59 +0000";
layers = (
{
layerId = "4FF06481-DC31-47E8-8EFF-C3C3B18F183D";
paths = (
{
closed = 1;
nodes = (
"106 0 OFFCURVE",
"125 19 OFFCURVE",
"125 43 CURVE SMOOTH",
"125 67 OFFCURVE",
"106 85 OFFCURVE",
"83 85 CURVE SMOOTH",
"58 85 OFFCURVE",
"40 67 OFFCURVE",
"40 43 CURVE SMOOTH",
"40 19 OFFCURVE",
"58 0 OFFCURVE",
"83 0 CURVE SMOOTH"
);
}
);
width = 165;
}
);
unicode = 002E;
},
{
glyphname = slash;
lastChange = "2020-01-26 13:03:34 +0000";
layers = (
{
layerId = "4FF06481-DC31-47E8-8EFF-C3C3B18F183D";
paths = (
{
closed = 1;
nodes = (
"102 -5 OFFCURVE",
"161 168 OFFCURVE",
"223 340 CURVE SMOOTH",
"307 572 OFFCURVE",
"376 735 OFFCURVE",
"376 751 CURVE SMOOTH",
"376 768 OFFCURVE",
"363 778 OFFCURVE",
"350 778 CURVE SMOOTH",
"339 778 OFFCURVE",
"327 771 OFFCURVE",
"322 755 CURVE SMOOTH",
"307 706 OFFCURVE",
"241 518 OFFCURVE",
"175 336 CURVE SMOOTH",
"104 140 OFFCURVE",
"30 -40 OFFCURVE",
"30 -53 CURVE SMOOTH",
"30 -69 OFFCURVE",
"44 -80 OFFCURVE",
"58 -80 CURVE SMOOTH",
"68 -80 OFFCURVE",
"79 -73 OFFCURVE",
"84 -58 CURVE SMOOTH"
);
}
);
width = 406;
}
);
unicode = 002F;
},
{
glyphname = zero;
lastChange = "2020-02-17 19:34:02 +0000";
layers = (
{
layerId = "4FF06481-DC31-47E8-8EFF-C3C3B18F183D";
paths = (
{
closed = 1;
nodes = (
"370 0 OFFCURVE",
"474 110 OFFCURVE",
"474 349 CURVE SMOOTH",
"474 588 OFFCURVE",
"370 700 OFFCURVE",
"250 700 CURVE SMOOTH",
"130 700 OFFCURVE",
"26 588 OFFCURVE",
"26 349 CURVE SMOOTH",
"26 110 OFFCURVE",
"130 0 OFFCURVE",
"250 0 CURVE SMOOTH"
);
},
{
closed = 1;
nodes = (
"137 27 OFFCURVE",
"106 156 OFFCURVE",
"106 349 CURVE SMOOTH",
"106 542 OFFCURVE",
"137 673 OFFCURVE",
"250 673 CURVE SMOOTH",
"363 673 OFFCURVE",
"394 542 OFFCURVE",
"394 349 CURVE SMOOTH",
"394 156 OFFCURVE",
"363 27 OFFCURVE",
"250 27 CURVE SMOOTH"
);
}
);
width = 500;
}
);
leftKerningGroup = "0";
rightKerningGroup = "0";
unicode = 0030;
},
{
glyphname = one;
lastChange = "2020-01-23 05:26:56 +0000";
layers = (
{
layerId = "4FF06481-DC31-47E8-8EFF-C3C3B18F183D";
paths = (
{
closed = 1;
nodes = (
"219 474 OFFCURVE",
"220 394 OFFCURVE",
"220 309 CURVE SMOOTH",
"220 206 OFFCURVE",
"219 94 OFFCURVE",
"212 65 CURVE SMOOTH",
"205 34 OFFCURVE",
"172 25 OFFCURVE",
"133 25 CURVE SMOOTH",
"121 25 OFFCURVE",
"107 26 OFFCURVE",
"94 28 CURVE SMOOTH",
"79 30 OFFCURVE",
"71 22 OFFCURVE",
"71 15 CURVE SMOOTH",
"71 8 OFFCURVE",
"78 1 OFFCURVE",
"92 1 CURVE SMOOTH",
"96 1 OFFCURVE",
"167 1 OFFCURVE",
"255 1 CURVE SMOOTH",
"343 1 OFFCURVE",
"414 1 OFFCURVE",
"418 1 CURVE SMOOTH",
"432 1 OFFCURVE",
"439 8 OFFCURVE",
"439 14 CURVE SMOOTH",
"439 21 OFFCURVE",
"432 28 OFFCURVE",
"420 28 CURVE SMOOTH",
"419 28 OFFCURVE",
"417 28 OFFCURVE",
"416 28 CURVE SMOOTH",
"403 28 OFFCURVE",
"391 26 OFFCURVE",
"379 26 CURVE SMOOTH",
"340 26 OFFCURVE",
"308 35 OFFCURVE",
"300 65 CURVE SMOOTH",
"291 100 OFFCURVE",
"290 225 OFFCURVE",
"290 351 CURVE SMOOTH",
"290 477 OFFCURVE",
"296 626 OFFCURVE",
"300 666 CURVE SMOOTH",
"302 686 OFFCURVE",
"292 700 OFFCURVE",
"280 700 CURVE SMOOTH",
"272 700 OFFCURVE",
"264 695 OFFCURVE",
"257 684 CURVE SMOOTH",
"216 619 OFFCURVE",
"155 566 OFFCURVE",
"82 527 CURVE SMOOTH",
"67 519 OFFCURVE",
"61 510 OFFCURVE",
"61 504 CURVE SMOOTH",
"61 499 OFFCURVE",
"66 495 OFFCURVE",
"74 495 CURVE SMOOTH",
"80 495 OFFCURVE",
"87 497 OFFCURVE",
"94 501 CURVE SMOOTH",
"139 527 OFFCURVE",
"167 538 OFFCURVE",
"186 538 CURVE SMOOTH",
"217 538 OFFCURVE",
"219 510 OFFCURVE",
"219 496 CURVE SMOOTH"
);
}
);
width = 500;
}
);
leftKerningGroup = "1";
rightKerningGroup = "1";
unicode = 0031;
},
{
glyphname = two;
lastChange = "2020-02-17 19:33:59 +0000";
layers = (
{
guideLines = (
{
position = "{113, 515}";
}
);
layerId = "4FF06481-DC31-47E8-8EFF-C3C3B18F183D";
paths = (
{
closed = 1;
nodes = (
"57 -1 OFFCURVE",
"140 8 OFFCURVE",
"233 8 CURVE SMOOTH",
"300 8 OFFCURVE",
"368 6 OFFCURVE",
"419 1 CURVE SMOOTH",
"430 0 OFFCURVE",
"444 7 OFFCURVE",
"446 37 CURVE SMOOTH",
"452 122 OFFCURVE",
"457 148 OFFCURVE",
"457 180 CURVE SMOOTH",
"457 196 OFFCURVE",
"449 204 OFFCURVE",
"440 204 CURVE SMOOTH",
"431 204 OFFCURVE",
"421 195 OFFCURVE",
"421 178 CURVE SMOOTH",
"421 82 OFFCURVE",
"379 70 OFFCURVE",
"280 70 CURVE SMOOTH",
"167 70 LINE SMOOTH",
"155 70 OFFCURVE",
"150 78 OFFCURVE",
"158 88 CURVE SMOOTH",
"278 238 OFFCURVE",
"429 363 OFFCURVE",
"429 525 CURVE SMOOTH",
"429 640 OFFCURVE",
"345 701 OFFCURVE",
"255 701 CURVE SMOOTH",
"121 701 OFFCURVE",
"51 576 OFFCURVE",
"51 531 CURVE SMOOTH",
"51 521 OFFCURVE",
"63 515 OFFCURVE",
"71 515 CURVE SMOOTH",
"85 515 OFFCURVE",
"99 527 OFFCURVE",
"108 557 CURVE SMOOTH",
"128 624 OFFCURVE",
"175 660 OFFCURVE",
"232 660 CURVE SMOOTH",
"287 660 OFFCURVE",
"349 613 OFFCURVE",
"349 512 CURVE SMOOTH",
"349 325 OFFCURVE",
"99 74 OFFCURVE",
"43 47 CURVE SMOOTH",
"29 40 OFFCURVE",
"23 32 OFFCURVE",
"23 14 CURVE SMOOTH",
"23 6 OFFCURVE",
"32 -1 OFFCURVE",
"49 -1 CURVE SMOOTH"
);
}
);
width = 500;
}
);
leftKerningGroup = "2";
rightKerningGroup = "2";
unicode = 0032;
},
{
glyphname = three;
lastChange = "2020-01-28 13:17:35 +0000";
layers = (
{
guideLines = (
{
position = "{-124, -70}";
},
{
position = "{113, 515}";
},
{
position = "{-124, 35}";
}
);
layerId = "4FF06481-DC31-47E8-8EFF-C3C3B18F183D";
paths = (
{
closed = 1;
nodes = (
"345 -1 OFFCURVE",
"470 74 OFFCURVE",
"470 212 CURVE SMOOTH",
"470 343 OFFCURVE",
"376 397 OFFCURVE",
"318 405 CURVE SMOOTH",
"309 406 OFFCURVE",
"308 407 OFFCURVE",
"318 410 CURVE SMOOTH",
"356 425 OFFCURVE",
"418 467 OFFCURVE",
"418 548 CURVE SMOOTH",
"418 634 OFFCURVE",
"350 699 OFFCURVE",
"253 699 CURVE SMOOTH",
"128 699 OFFCURVE",
"55 589 OFFCURVE",
"55 537 CURVE SMOOTH",
"55 523 OFFCURVE",
"63 515 OFFCURVE",
"74 515 CURVE SMOOTH",
"88 515 OFFCURVE",
"107 529 OFFCURVE",
"115 558 CURVE SMOOTH",
"133 627 OFFCURVE",
"184 659 OFFCURVE",
"233 659 CURVE SMOOTH",
"288 659 OFFCURVE",
"336 620 OFFCURVE",
"336 547 CURVE SMOOTH",
"336 447 OFFCURVE",
"271 395 OFFCURVE",
"203 395 CURVE SMOOTH",
"179 395 OFFCURVE",
"168 384 OFFCURVE",
"168 373 CURVE SMOOTH",
"168 364 OFFCURVE",
"176 355 OFFCURVE",
"191 355 CURVE SMOOTH",
"198 355 OFFCURVE",
"223 363 OFFCURVE",
"244 363 CURVE SMOOTH",
"311 363 OFFCURVE",
"389 320 OFFCURVE",
"389 204 CURVE SMOOTH",
"389 85 OFFCURVE",
"308 28 OFFCURVE",
"232 28 CURVE SMOOTH",
"187 28 OFFCURVE",
"143 49 OFFCURVE",
"120 90 CURVE SMOOTH",
"106 116 OFFCURVE",
"90 126 OFFCURVE",
"76 126 CURVE SMOOTH",
"62 126 OFFCURVE",
"52 114 OFFCURVE",
"52 97 CURVE SMOOTH",
"52 82 OFFCURVE",
"60 64 OFFCURVE",
"80 47 CURVE SMOOTH",
"120 14 OFFCURVE",
"173 -1 OFFCURVE",
"227 -1 CURVE SMOOTH"
);
}
);
width = 500;
}
);
leftKerningGroup = "3";
rightKerningGroup = "3";
unicode = 0033;
},
{
glyphname = four;
lastChange = "2020-01-28 13:03:04 +0000";
layers = (
{
guideLines = (
{
position = "{243, 738}";
},
{
position = "{-124, -70}";
},
{
position = "{-124, 35}";
}
);
layerId = "4FF06481-DC31-47E8-8EFF-C3C3B18F183D";
paths = (
{
closed = 1;
nodes = (
"282 172 LINE SMOOTH",
"291 172 OFFCURVE",
"297 167 OFFCURVE",
"297 156 CURVE SMOOTH",
"297 121 OFFCURVE",
"297 99 OFFCURVE",
"296 88 CURVE SMOOTH",
"293 39 OFFCURVE",
"281 21 OFFCURVE",
"232 27 CURVE SMOOTH",
"204 30 OFFCURVE",
"200 0 OFFCURVE",
"230 0 CURVE SMOOTH",
"430 0 LINE SMOOTH",
"460 0 OFFCURVE",
"456 31 OFFCURVE",
"428 27 CURVE SMOOTH",
"358 16 OFFCURVE",
"367 59 OFFCURVE",
"367 104 CURVE SMOOTH",
"367 157 LINE SMOOTH",
"367 166 OFFCURVE",
"373 172 OFFCURVE",
"382 172 CURVE SMOOTH",
"442 172 LINE SMOOTH",
"459 172 OFFCURVE",
"488 215 OFFCURVE",
"467 215 CURVE SMOOTH",
"382 215 LINE SMOOTH",
"373 215 OFFCURVE",
"367 221 OFFCURVE",
"367 230 CURVE SMOOTH",
"367 455 LINE SMOOTH",
"367 486 OFFCURVE",
"297 431 OFFCURVE",
"297 404 CURVE SMOOTH",
"297 230 LINE SMOOTH",
"297 221 OFFCURVE",
"291 215 OFFCURVE",
"282 215 CURVE SMOOTH",
"119 215 LINE SMOOTH",
"107 215 OFFCURVE",
"103 222 OFFCURVE",
"109 233 CURVE SMOOTH",
"378 689 LINE SMOOTH",
"387 704 OFFCURVE",
"331 707 OFFCURVE",
"318 683 CURVE SMOOTH",
"208 480 OFFCURVE",
"173 409 OFFCURVE",
"48 218 CURVE SMOOTH",
"28 188 OFFCURVE",
"12 170 OFFCURVE",
"47 170 CURVE SMOOTH"
);
}
);
width = 500;
}
);
leftKerningGroup = "4";
rightKerningGroup = "4";
unicode = 0034;
},
{
glyphname = five;
lastChange = "2020-01-28 13:07:31 +0000";
layers = (
{
guideLines = (
{
position = "{-132, -70}";
},
{
position = "{-124, 35}";
}
);
layerId = "4FF06481-DC31-47E8-8EFF-C3C3B18F183D";
paths = (
{
closed = 1;
nodes = (
"113 502 OFFCURVE",
"65 405 OFFCURVE",
"65 389 CURVE SMOOTH",
"65 373 OFFCURVE",
"77 372 OFFCURVE",
"88 374 CURVE SMOOTH",
"182 391 OFFCURVE",
"375 367 OFFCURVE",
"384 221 CURVE SMOOTH",
"395 49 OFFCURVE",
"199 -14 OFFCURVE",
"114 83 CURVE SMOOTH",
"99 100 OFFCURVE",
"85 106 OFFCURVE",
"73 106 CURVE SMOOTH",
"57 106 OFFCURVE",
"46 93 OFFCURVE",
"46 77 CURVE SMOOTH",
"46 64 OFFCURVE",
"54 49 OFFCURVE",
"71 37 CURVE SMOOTH",
"188 -46 OFFCURVE",
"464 25 OFFCURVE",
"454 245 CURVE SMOOTH",
"447 407 OFFCURVE",
"267 445 OFFCURVE",
"147 445 CURVE SMOOTH",
"137 445 OFFCURVE",
"132 451 OFFCURVE",
"134 461 CURVE SMOOTH",
"164 600 LINE SMOOTH",
"166 608 OFFCURVE",
"172 613 OFFCURVE",
"181 613 CURVE SMOOTH",
"263 613 OFFCURVE",
"290 613 OFFCURVE",
"355 621 CURVE SMOOTH",
"381 624 OFFCURVE",
"425 680 OFFCURVE",
"425 704 CURVE SMOOTH",
"425 712 OFFCURVE",
"420 718 OFFCURVE",
"409 714 CURVE SMOOTH",
"360 696 OFFCURVE",
"272 686 OFFCURVE",
"179 686 CURVE SMOOTH",
"150 686 OFFCURVE",
"141 681 OFFCURVE",
"137 655 CURVE SMOOTH"
);
}
);
width = 500;
}
);
leftKerningGroup = "5";
rightKerningGroup = "5";
unicode = 0035;
},
{
glyphname = six;
lastChange = "2020-01-25 12:48:11 +0000";
layers = (
{
guideLines = (
{
position = "{-124, -70}";
}
);
layerId = "4FF06481-DC31-47E8-8EFF-C3C3B18F183D";
paths = (
{
closed = 1;
nodes = (
"372 -1 OFFCURVE",
"477 109 OFFCURVE",
"473 214 CURVE SMOOTH",
"468 347 OFFCURVE",
"379 406 OFFCURVE",
"286 406 CURVE SMOOTH",
"227 406 OFFCURVE",
"165 382 OFFCURVE",
"121 338 CURVE SMOOTH",
"114 331 OFFCURVE",
"106 335 OFFCURVE",
"108 345 CURVE SMOOTH",
"147 536 OFFCURVE",
"282 642 OFFCURVE",
"400 654 CURVE SMOOTH",
"419 656 OFFCURVE",
"430 668 OFFCURVE",
"430 680 CURVE SMOOTH",
"430 691 OFFCURVE",
"420 702 OFFCURVE",
"400 702 CURVE SMOOTH",
"392 702 OFFCURVE",
"382 701 OFFCURVE",
"371 697 CURVE SMOOTH",
"89 594 OFFCURVE",
"27 371 OFFCURVE",
"27 246 CURVE SMOOTH",
"27 85 OFFCURVE",
"123 -1 OFFCURVE",
"248 -1 CURVE SMOOTH"
);
},
{
closed = 1;
nodes = (
"177 31 OFFCURVE",
"103 95 OFFCURVE",
"99 244 CURVE SMOOTH",
"99 252 OFFCURVE",
"100 257 OFFCURVE",
"102 261 CURVE SMOOTH",
"136 323 OFFCURVE",
"199 357 OFFCURVE",
"258 357 CURVE SMOOTH",
"331 357 OFFCURVE",
"399 308 OFFCURVE",
"403 203 CURVE SMOOTH",
"407 109 OFFCURVE",
"344 33 OFFCURVE",
"267 32 CURVE SMOOTH"
);
}
);
width = 500;
}
);
leftKerningGroup = "6";
rightKerningGroup = "6";
unicode = 0036;
},
{
glyphname = seven;
lastChange = "2020-01-25 12:48:39 +0000";
layers = (
{
guideLines = (
{
position = "{-124, -70}";
},
{
position = "{-124, 35}";
}
);
layerId = "4FF06481-DC31-47E8-8EFF-C3C3B18F183D";
paths = (
{
closed = 1;
nodes = (
"321 350 OFFCURVE",
"416 500 OFFCURVE",
"474 633 CURVE SMOOTH",
"487 662 OFFCURVE",
"478 685 OFFCURVE",
"443 681 CURVE SMOOTH",
"354 671 OFFCURVE",
"148 673 OFFCURVE",
"60 680 CURVE SMOOTH",
"48 681 OFFCURVE",
"36 674 OFFCURVE",
"33 644 CURVE SMOOTH",
"26 572 OFFCURVE",
"22 526 OFFCURVE",
"22 494 CURVE SMOOTH",
"22 478 OFFCURVE",
"30 470 OFFCURVE",
"38 470 CURVE SMOOTH",
"47 470 OFFCURVE",
"58 478 OFFCURVE",
"58 496 CURVE SMOOTH",
"58 596 OFFCURVE",
"79 616 OFFCURVE",
"167 616 CURVE SMOOTH",
"382 616 LINE SMOOTH",
"392 616 OFFCURVE",
"398 610 OFFCURVE",
"396 601 CURVE SMOOTH",
"382 517 OFFCURVE",
"290 362 OFFCURVE",
"153 35 CURVE SMOOTH",
"135 -8 OFFCURVE",
"193 -30 OFFCURVE",
"215 35 CURVE SMOOTH"
);
}
);
width = 500;
}
);
leftKerningGroup = "7";
rightKerningGroup = "7";
unicode = 0037;
},
{
glyphname = eight;
lastChange = "2020-01-25 12:48:51 +0000";
layers = (
{
guideLines = (
{
position = "{243, 741}";
},
{
position = "{243, 772}";
}
);
layerId = "4FF06481-DC31-47E8-8EFF-C3C3B18F183D";
paths = (
{
closed = 1;
nodes = (
"24 72 OFFCURVE",
"138 0 OFFCURVE",
"252 0 CURVE SMOOTH",
"363 0 OFFCURVE",
"474 68 OFFCURVE",
"474 195 CURVE SMOOTH",
"474 301 OFFCURVE",
"404 361 OFFCURVE",
"336 398 CURVE SMOOTH",
"326 403 OFFCURVE",
"326 410 OFFCURVE",
"337 416 CURVE SMOOTH",
"386 443 OFFCURVE",
"421 484 OFFCURVE",
"421 544 CURVE SMOOTH",
"421 650 OFFCURVE",
"338 697 OFFCURVE",
"255 697 CURVE SMOOTH",
"171 697 OFFCURVE",
"86 642 OFFCURVE",
"86 544 CURVE SMOOTH",
"86 481 OFFCURVE",
"123 439 OFFCURVE",
"170 408 CURVE SMOOTH",
"180 401 OFFCURVE",
"180 394 OFFCURVE",
"169 388 CURVE SMOOTH",
"103 354 OFFCURVE",
"44 299 OFFCURVE",
"36 205 CURVE SMOOTH"
);
},
{
closed = 1;
nodes = (
"95 264 OFFCURVE",
"137 328 OFFCURVE",
"221 369 CURVE SMOOTH",
"229 374 OFFCURVE",
"236 374 OFFCURVE",
"243 371 CURVE SMOOTH",
"336 331 OFFCURVE",
"415 290 OFFCURVE",
"415 177 CURVE SMOOTH",
"415 83 OFFCURVE",
"335 27 OFFCURVE",
"255 27 CURVE SMOOTH",
"175 27 OFFCURVE",
"95 83 OFFCURVE",
"95 186 CURVE SMOOTH"
);
},
{
closed = 1;
nodes = (
"154 632 OFFCURVE",
"200 670 OFFCURVE",
"249 670 CURVE SMOOTH",
"300 670 OFFCURVE",
"352 634 OFFCURVE",
"352 563 CURVE SMOOTH",
"352 511 OFFCURVE",
"335 468 OFFCURVE",
"275 434 CURVE SMOOTH",
"268 430 OFFCURVE",
"262 430 OFFCURVE",
"255 434 CURVE SMOOTH",
"195 465 OFFCURVE",
"154 505 OFFCURVE",
"154 566 CURVE SMOOTH"
);
}
);
width = 500;
}
);
leftKerningGroup = "8";
rightKerningGroup = "8";
unicode = 0038;
},
{
glyphname = nine;
lastChange = "2020-01-25 12:49:29 +0000";
layers = (
{
layerId = "4FF06481-DC31-47E8-8EFF-C3C3B18F183D";
paths = (
{
closed = 1;
nodes = (
"32 354 OFFCURVE",
"121 295 OFFCURVE",
"214 295 CURVE SMOOTH",
"273 295 OFFCURVE",
"335 319 OFFCURVE",
"379 363 CURVE SMOOTH",
"386 370 OFFCURVE",
"394 366 OFFCURVE",
"392 356 CURVE SMOOTH",
"353 165 OFFCURVE",
"218 59 OFFCURVE",
"100 47 CURVE SMOOTH",
"81 45 OFFCURVE",
"70 33 OFFCURVE",
"70 21 CURVE SMOOTH",
"70 10 OFFCURVE",
"80 -1 OFFCURVE",
"100 -1 CURVE SMOOTH",
"108 -1 OFFCURVE",
"118 0 OFFCURVE",
"129 4 CURVE SMOOTH",
"411 107 OFFCURVE",
"473 330 OFFCURVE",
"473 455 CURVE SMOOTH",
"473 616 OFFCURVE",
"377 702 OFFCURVE",
"252 702 CURVE SMOOTH",
"128 702 OFFCURVE",
"23 592 OFFCURVE",
"27 487 CURVE SMOOTH"
);
},
{
closed = 1;
nodes = (
"93 592 OFFCURVE",
"156 668 OFFCURVE",
"233 669 CURVE SMOOTH",
"324 670 OFFCURVE",
"399 605 OFFCURVE",
"401 453 CURVE SMOOTH",
"401 448 OFFCURVE",
"400 444 OFFCURVE",
"398 440 CURVE SMOOTH",
"364 378 OFFCURVE",
"301 344 OFFCURVE",
"242 344 CURVE SMOOTH",
"169 344 OFFCURVE",
"101 393 OFFCURVE",
"97 498 CURVE SMOOTH"
);
}
);
width = 500;
}
);
leftKerningGroup = "9";
rightKerningGroup = "9";
unicode = 0039;
},
{
glyphname = colon;
lastChange = "2020-01-25 13:31:04 +0000";
layers = (
{
layerId = "4FF06481-DC31-47E8-8EFF-C3C3B18F183D";
paths = (
{
closed = 1;
nodes = (
"131 0 OFFCURVE",
"151 20 OFFCURVE",
"151 47 CURVE SMOOTH",
"151 71 OFFCURVE",
"131 93 OFFCURVE",
"106 93 CURVE SMOOTH",
"81 93 OFFCURVE",
"60 71 OFFCURVE",
"60 47 CURVE SMOOTH",
"60 20 OFFCURVE",
"81 0 OFFCURVE",
"106 0 CURVE SMOOTH"
);
},
{
closed = 1;
nodes = (
"131 227 OFFCURVE",
"151 248 OFFCURVE",
"151 273 CURVE SMOOTH",
"151 298 OFFCURVE",
"131 320 OFFCURVE",
"106 320 CURVE SMOOTH",
"81 320 OFFCURVE",
"60 298 OFFCURVE",
"60 273 CURVE SMOOTH",
"60 248 OFFCURVE",
"81 227 OFFCURVE",
"106 227 CURVE SMOOTH"
);
}
);
width = 211;
}
);
unicode = 003A;
},
{
glyphname = semicolon;
lastChange = "2020-01-25 13:24:59 +0000";
layers = (
{
layerId = "4FF06481-DC31-47E8-8EFF-C3C3B18F183D";
paths = (
{
closed = 1;
nodes = (
"111 227 OFFCURVE",
"131 248 OFFCURVE",
"131 273 CURVE SMOOTH",
"131 298 OFFCURVE",
"111 320 OFFCURVE",
"86 320 CURVE SMOOTH",
"61 320 OFFCURVE",
"40 298 OFFCURVE",
"40 273 CURVE SMOOTH",
"40 248 OFFCURVE",
"61 227 OFFCURVE",
"86 227 CURVE SMOOTH"
);
},
{
closed = 1;
nodes = (
"55 7 OFFCURVE",
"42 19 OFFCURVE",
"42 43 CURVE SMOOTH",
"42 67 OFFCURVE",
"60 85 OFFCURVE",
"85 85 CURVE SMOOTH",
"108 85 OFFCURVE",
"125 67 OFFCURVE",
"131 43 CURVE SMOOTH",
"140 7 OFFCURVE",
"115 -58 OFFCURVE",
"66 -80 CURVE SMOOTH",
"39 -92 OFFCURVE",
"35 -64 OFFCURVE",
"54 -56 CURVE SMOOTH",
"84 -43 OFFCURVE",
"93 -10 OFFCURVE",
"71 0 CURVE SMOOTH"
);
}
);
width = 173;
}
);
unicode = 003B;
},
{
glyphname = less;
lastChange = "2020-01-28 13:41:57 +0000";
layers = (
{
layerId = "4FF06481-DC31-47E8-8EFF-C3C3B18F183D";
paths = (
{
closed = 1;
nodes = (
"425 6 OFFCURVE",
"432 3 OFFCURVE",
"438 3 CURVE SMOOTH",
"454 3 OFFCURVE",
"465 18 OFFCURVE",
"465 29 CURVE SMOOTH",
"465 37 OFFCURVE",
"459 46 OFFCURVE",
"444 54 CURVE SMOOTH",
"390 83 OFFCURVE",
"349 96 OFFCURVE",
"254 145 CURVE SMOOTH",
"192 178 OFFCURVE",
"155 197 OFFCURVE",
"123 216 CURVE SMOOTH",
"111 223 OFFCURVE",
"111 236 OFFCURVE",
"123 243 CURVE SMOOTH",
"154 262 OFFCURVE",
"192 281 OFFCURVE",
"254 313 CURVE SMOOTH",
"350 361 OFFCURVE",
"389 375 OFFCURVE",
"444 404 CURVE SMOOTH",
"459 412 OFFCURVE",
"465 421 OFFCURVE",
"465 429 CURVE SMOOTH",
"465 436 OFFCURVE",
"458 455 OFFCURVE",
"439 455 CURVE SMOOTH",
"432 455 OFFCURVE",
"425 452 OFFCURVE",
"416 448 CURVE SMOOTH",
"360 420 OFFCURVE",
"326 397 OFFCURVE",
"231 348 CURVE SMOOTH",
"135 298 OFFCURVE",
"100 280 OFFCURVE",
"42 255 CURVE SMOOTH",
"29 250 OFFCURVE",
"20 239 OFFCURVE",
"20 229 CURVE SMOOTH",
"20 219 OFFCURVE",
"27 209 OFFCURVE",
"42 203 CURVE SMOOTH",
"100 178 OFFCURVE",
"135 160 OFFCURVE",
"231 110 CURVE SMOOTH",
"326 61 OFFCURVE",
"360 38 OFFCURVE",
"416 10 CURVE SMOOTH"
);
}
);
width = 505;
}
);
unicode = 003C;
},
{
glyphname = equal;
lastChange = "2020-01-28 13:18:12 +0000";
layers = (
{
guideLines = (
{
position = "{100, 348}";
}
);
layerId = "4FF06481-DC31-47E8-8EFF-C3C3B18F183D";
paths = (
{
closed = 1;
nodes = (
"141 216 OFFCURVE",
"182 221 OFFCURVE",
"303 221 CURVE SMOOTH",
"423 221 OFFCURVE",
"465 213 OFFCURVE",
"529 213 CURVE SMOOTH",
"555 213 OFFCURVE",
"565 227 OFFCURVE",
"565 242 CURVE SMOOTH",
"565 259 OFFCURVE",
"555 271 OFFCURVE",
"529 270 CURVE SMOOTH",
"465 268 OFFCURVE",
"423 265 OFFCURVE",
"303 265 CURVE SMOOTH",
"182 265 OFFCURVE",
"141 267 OFFCURVE",
"78 270 CURVE SMOOTH",
"53 271 OFFCURVE",
"40 259 OFFCURVE",
"40 242 CURVE SMOOTH",
"40 227 OFFCURVE",
"53 212 OFFCURVE",
"78 213 CURVE SMOOTH"
);
},
{
closed = 1;
nodes = (
"141 429 OFFCURVE",
"182 431 OFFCURVE",
"303 431 CURVE SMOOTH",
"423 431 OFFCURVE",
"465 424 OFFCURVE",
"529 424 CURVE SMOOTH",
"555 424 OFFCURVE",
"565 438 OFFCURVE",
"565 452 CURVE SMOOTH",
"565 469 OFFCURVE",
"555 482 OFFCURVE",
"529 481 CURVE SMOOTH",
"465 479 OFFCURVE",
"423 476 OFFCURVE",
"303 476 CURVE SMOOTH",
"182 476 OFFCURVE",
"141 476 OFFCURVE",
"78 481 CURVE SMOOTH",
"53 483 OFFCURVE",
"40 469 OFFCURVE",
"40 452 CURVE SMOOTH",
"40 438 OFFCURVE",
"53 422 OFFCURVE",
"78 424 CURVE SMOOTH"
);
}
);
width = 605;
}
);
unicode = 003D;
},
{
glyphname = question;
lastChange = "2020-01-30 09:59:01 +0000";
layers = (
{
layerId = "4FF06481-DC31-47E8-8EFF-C3C3B18F183D";
paths = (
{
closed = 1;
nodes = (
"221 126 OFFCURVE",
"216 138 OFFCURVE",
"215 161 CURVE SMOOTH",
"213 200 OFFCURVE",
"212 211 OFFCURVE",
"212 238 CURVE SMOOTH",
"212 315 OFFCURVE",
"213 338 OFFCURVE",
"297 402 CURVE SMOOTH",
"344 438 OFFCURVE",
"367 482 OFFCURVE",
"367 537 CURVE SMOOTH",
"367 623 OFFCURVE",
"307 672 OFFCURVE",
"227 672 CURVE SMOOTH",
"161 672 OFFCURVE",
"110 610 OFFCURVE",
"110 555 CURVE SMOOTH",
"110 508 OFFCURVE",
"123 491 OFFCURVE",
"134 481 CURVE SMOOTH",
"152 465 OFFCURVE",
"154 453 OFFCURVE",
"154 441 CURVE SMOOTH",
"154 426 OFFCURVE",
"141 419 OFFCURVE",
"127 419 CURVE SMOOTH",
"75 419 OFFCURVE",
"40 474 OFFCURVE",
"40 534 CURVE SMOOTH",
"40 604 OFFCURVE",
"104 700 OFFCURVE",
"236 700 CURVE SMOOTH",
"343 700 OFFCURVE",
"437 622 OFFCURVE",
"437 517 CURVE SMOOTH",
"437 480 OFFCURVE",
"425 446 OFFCURVE",
"391 406 CURVE SMOOTH",
"349 356 OFFCURVE",
"267 350 OFFCURVE",
"254 286 CURVE SMOOTH",
"245 243 OFFCURVE",
"247 195 OFFCURVE",
"249 161 CURVE SMOOTH",
"250 141 OFFCURVE",
"244 126 OFFCURVE",
"232 126 CURVE SMOOTH"
);
},
{
closed = 1;
nodes = (
"212 1 OFFCURVE",
"195 18 OFFCURVE",
"195 39 CURVE SMOOTH",
"195 60 OFFCURVE",
"212 79 OFFCURVE",
"235 79 CURVE SMOOTH",
"257 79 OFFCURVE",
"273 60 OFFCURVE",
"273 39 CURVE SMOOTH",
"273 18 OFFCURVE",
"257 1 OFFCURVE",
"235 1 CURVE SMOOTH"
);
}
);
width = 467;
}
);
unicode = 003F;
},
{
glyphname = at;
lastChange = "2020-01-29 13:27:49 +0000";
layers = (
{
layerId = "4FF06481-DC31-47E8-8EFF-C3C3B18F183D";
paths = (
{
closed = 1;
nodes = (
"650 -201 OFFCURVE",
"751 -88 OFFCURVE",
"751 -63 CURVE SMOOTH",
"751 -52 OFFCURVE",
"743 -42 OFFCURVE",
"729 -42 CURVE SMOOTH",
"719 -42 OFFCURVE",
"707 -50 OFFCURVE",
"691 -69 CURVE SMOOTH",
"647 -121 OFFCURVE",
"558 -161 OFFCURVE",
"448 -161 CURVE SMOOTH",
"288 -161 OFFCURVE",
"119 -30 OFFCURVE",
"119 182 CURVE SMOOTH",
"119 380 OFFCURVE",
"268 568 OFFCURVE",
"477 568 CURVE SMOOTH",
"648 568 OFFCURVE",
"801 462 OFFCURVE",
"801 265 CURVE SMOOTH",
"801 143 OFFCURVE",
"719 63 OFFCURVE",
"661 63 CURVE SMOOTH",
"604 63 OFFCURVE",
"587 111 OFFCURVE",
"587 158 CURVE SMOOTH",
"587 239 OFFCURVE",
"643 315 OFFCURVE",
"643 343 CURVE SMOOTH",
"643 358 OFFCURVE",
"634 370 OFFCURVE",
"619 370 CURVE SMOOTH",
"610 370 OFFCURVE",
"600 366 OFFCURVE",
"591 357 CURVE SMOOTH",
"584 350 OFFCURVE",
"578 349 OFFCURVE",
"570 354 CURVE SMOOTH",
"556 362 OFFCURVE",
"535 370 OFFCURVE",
"493 370 CURVE SMOOTH",
"420 370 OFFCURVE",
"274 263 OFFCURVE",
"274 147 CURVE SMOOTH",
"274 67 OFFCURVE",
"312 24 OFFCURVE",
"390 24 CURVE SMOOTH",
"444 24 OFFCURVE",
"494 71 OFFCURVE",
"524 115 CURVE SMOOTH",
"530 124 OFFCURVE",
"533 123 OFFCURVE",
"534 112 CURVE SMOOTH",
"542 60 OFFCURVE",
"577 23 OFFCURVE",
"633 23 CURVE SMOOTH",
"716 23 OFFCURVE",
"839 88 OFFCURVE",
"850 255 CURVE SMOOTH",
"860 400 OFFCURVE",
"748 609 OFFCURVE",
"467 609 CURVE SMOOTH",
"228 609 OFFCURVE",
"50 400 OFFCURVE",
"50 186 CURVE SMOOTH",
"50 -54 OFFCURVE",
"228 -201 OFFCURVE",
"438 -201 CURVE SMOOTH"
);
},
{
closed = 1;
nodes = (
"365 75 OFFCURVE",
"336 115 OFFCURVE",
"336 170 CURVE SMOOTH",
"336 263 OFFCURVE",
"401 323 OFFCURVE",
"467 323 CURVE SMOOTH",
"512 323 OFFCURVE",
"535 308 OFFCURVE",
"547 293 CURVE SMOOTH",
"551 287 OFFCURVE",
"552 281 OFFCURVE",
"551 274 CURVE SMOOTH",
"535 148 OFFCURVE",
"471 75 OFFCURVE",
"417 75 CURVE SMOOTH"
);
}
);
width = 901;
}
);
unicode = 0040;
},
{
glyphname = A;
lastChange = "2020-02-20 15:15:49 +0000";
layers = (
{
anchors = (
{
name = bottom;
position = "{395, 0}";
},
{
name = ogonek;
position = "{711, 10}";
},
{
name = top;
position = "{395, 700}";
}
);
guideLines = (
{
position = "{400, 28}";
},
{
position = "{412, 62}";
},
{
position = "{4452, 322}";
}
);
layerId = "4FF06481-DC31-47E8-8EFF-C3C3B18F183D";
paths = (
{
closed = 1;
nodes = (
"322 1 LINE SMOOTH",
"352 1 OFFCURVE",
"348 30 OFFCURVE",
"320 28 CURVE SMOOTH",
"228 20 OFFCURVE",
"184 20 OFFCURVE",
"187 52 CURVE SMOOTH",
"188 67 OFFCURVE",
"229 186 OFFCURVE",
"273 310 CURVE SMOOTH",
"276 318 OFFCURVE",
"282 322 OFFCURVE",
"290 322 CURVE SMOOTH",
"464 322 LINE SMOOTH",
"472 322 OFFCURVE",
"478 318 OFFCURVE",
"481 309 CURVE SMOOTH",
"520 194 OFFCURVE",
"554 93 OFFCURVE",
"557 68 CURVE SMOOTH",
"562 24 OFFCURVE",
"502 22 OFFCURVE",
"450 28 CURVE SMOOTH",
"422 31 OFFCURVE",
"418 1 OFFCURVE",
"448 1 CURVE SMOOTH",
"754 1 LINE SMOOTH",
"784 1 OFFCURVE",
"780 31 OFFCURVE",
"752 28 CURVE SMOOTH",
"700 22 OFFCURVE",
"663 27 OFFCURVE",
"645 68 CURVE SMOOTH",
"590 196 OFFCURVE",
"484 525 OFFCURVE",
"426 673 CURVE SMOOTH",
"417 696 OFFCURVE",
"406 700 OFFCURVE",
"395 700 CURVE SMOOTH",
"383 700 OFFCURVE",
"373 691 OFFCURVE",
"364 671 CURVE SMOOTH",
"349 631 OFFCURVE",
"156 89 OFFCURVE",
"139 57 CURVE SMOOTH",
"118 17 OFFCURVE",
"70 24 OFFCURVE",
"38 28 CURVE SMOOTH",
"10 32 OFFCURVE",
"6 1 OFFCURVE",
"36 1 CURVE SMOOTH"
);
},
{
closed = 1;
nodes = (
"369 581 LINE SMOOTH",
"374 595 OFFCURVE",
"384 594 OFFCURVE",
"388 581 CURVE SMOOTH",
"409 519 OFFCURVE",
"435 444 OFFCURVE",
"460 371 CURVE SMOOTH",
"464 361 OFFCURVE",
"459 354 OFFCURVE",
"448 354 CURVE SMOOTH",
"307 354 LINE SMOOTH",
"296 354 OFFCURVE",
"291 361 OFFCURVE",
"295 372 CURVE SMOOTH"
);
}
);
width = 790;
}
);
leftKerningGroup = A;
rightKerningGroup = A;
unicode = 0041;
},
{
glyphname = B;
lastChange = "2020-02-13 19:58:24 +0000";
layers = (
{
anchors = (
{
name = bottom;
position = "{306, 0}";
},
{
name = top;
position = "{306, 700}";
}
);
guideLines = (
{
position = "{65, 30}";
}
);
hints = (
{
horizontal = 1;
origin = "{0, 36}";
target = "{0, 33}";
type = Stem;
},
{
horizontal = 1;
place = "{394, 21}";
type = Stem;
},
{
horizontal = 1;
origin = "{0, 21}";
target = "{0, 18}";
type = Stem;
},
{
horizontal = 1;
place = "{394, 23}";
type = Stem;
},
{
horizontal = 1;
origin = "{0, 2}";
target = "{1, 14}";
type = Stem;
},
{
place = "{46, 15}";
type = Stem;
},
{
origin = "{0, 27}";
target = "{1, 2}";
type = Stem;
},
{
origin = "{2, 8}";
target = "{0, 14}";
type = Stem;
}
);
layerId = "4FF06481-DC31-47E8-8EFF-C3C3B18F183D";
paths = (
{
closed = 1;
nodes = (
"-6 1 OFFCURVE",
"230 1 OFFCURVE",
"304 2 CURVE SMOOTH",
"524 5 OFFCURVE",
"586 123 OFFCURVE",
"581 239 CURVE SMOOTH",
"577 330 OFFCURVE",
"512 403 OFFCURVE",
"407 415 CURVE SMOOTH",
"389 417 OFFCURVE",
"388 421 OFFCURVE",
"403 431 CURVE SMOOTH",
"437 454 OFFCURVE",
"470 494 OFFCURVE",
"470 541 CURVE SMOOTH",
"470 643 OFFCURVE",
"383 681 OFFCURVE",
"286 681 CURVE SMOOTH",
"41 681 LINE SMOOTH",
"11 681 OFFCURVE",
"15 651 OFFCURVE",
"43 654 CURVE SMOOTH",
"95 660 OFFCURVE",
"139 657 OFFCURVE",
"150 614 CURVE SMOOTH",
"158 582 OFFCURVE",
"159 467 OFFCURVE",
"159 341 CURVE SMOOTH",
"159 215 OFFCURVE",
"158 100 OFFCURVE",
"150 68 CURVE SMOOTH",
"139 25 OFFCURVE",
"95 22 OFFCURVE",
"43 28 CURVE SMOOTH",
"15 31 OFFCURVE",
"11 1 OFFCURVE",
"41 1 CURVE SMOOTH"
);
},
{
closed = 1;
nodes = (
"256 34 OFFCURVE",
"230 51 OFFCURVE",
"229 103 CURVE SMOOTH",
"228 134 OFFCURVE",
"229 246 OFFCURVE",
"229 363 CURVE SMOOTH",
"229 379 OFFCURVE",
"237 388 OFFCURVE",
"253 390 CURVE SMOOTH",
"392 406 OFFCURVE",
"493 357 OFFCURVE",
"507 237 CURVE SMOOTH",
"523 99 OFFCURVE",
"430 20 OFFCURVE",
"303 30 CURVE SMOOTH"
);
},
{
closed = 1;
nodes = (
"229 512 OFFCURVE",
"230 553 OFFCURVE",
"230 589 CURVE SMOOTH",
"230 634 OFFCURVE",
"261 654 OFFCURVE",
"294 654 CURVE SMOOTH",
"360 654 OFFCURVE",
"403 608 OFFCURVE",
"403 543 CURVE SMOOTH",
"403 471 OFFCURVE",
"350 420 OFFCURVE",
"254 417 CURVE SMOOTH",
"238 417 OFFCURVE",
"229 427 OFFCURVE",
"229 443 CURVE SMOOTH"
);
}
);
width = 601;
}
);
leftKerningGroup = B;
rightKerningGroup = B;
unicode = 0042;
},
{
glyphname = C;
lastChange = "2020-01-23 05:45:07 +0000";
layers = (
{
anchors = (
{
name = bottom;
position = "{349, 0}";
},
{
name = top;
position = "{369, 720}";
}
);
hints = (
{
horizontal = 1;
place = "{0, 27}";
type = Stem;
},
{
horizontal = 1;
place = "{673, 27}";
type = Stem;
},
{
place = "{50, 70}";
type = Stem;
},
{
place = "{618, 27}";
type = Stem;
},
{
place = "{618, 27}";
type = Stem;
}
);
layerId = "4FF06481-DC31-47E8-8EFF-C3C3B18F183D";
paths = (
{
closed = 1;
nodes = (
"474 0 OFFCURVE",
"553 52 OFFCURVE",
"581 91 CURVE SMOOTH",
"595 110 OFFCURVE",
"601 86 OFFCURVE",
"601 66 CURVE SMOOTH",
"601 55 OFFCURVE",
"608 49 OFFCURVE",
"615 49 CURVE SMOOTH",
"622 49 OFFCURVE",
"628 54 OFFCURVE",
"628 65 CURVE SMOOTH",
"628 67 OFFCURVE",
"628 126 OFFCURVE",
"628 176 CURVE SMOOTH",
"628 215 OFFCURVE",
"628 264 OFFCURVE",
"628 266 CURVE SMOOTH",
"628 279 OFFCURVE",
"621 284 OFFCURVE",
"614 284 CURVE SMOOTH",
"608 284 OFFCURVE",
"601 279 OFFCURVE",
"601 269 CURVE SMOOTH",
"601 212 OFFCURVE",
"549 27 OFFCURVE",
"364 27 CURVE SMOOTH",
"221 27 OFFCURVE",
"110 156 OFFCURVE",
"110 349 CURVE SMOOTH",
"110 542 OFFCURVE",
"221 673 OFFCURVE",
"364 673 CURVE SMOOTH",
"505 673 OFFCURVE",
"598 549 OFFCURVE",
"598 458 CURVE SMOOTH",
"598 442 OFFCURVE",
"605 435 OFFCURVE",
"611 435 CURVE SMOOTH",
"618 435 OFFCURVE",
"625 443 OFFCURVE",
"625 458 CURVE SMOOTH",
"625 474 OFFCURVE",
"625 498 OFFCURVE",
"625 548 CURVE SMOOTH",
"625 598 OFFCURVE",
"625 646 OFFCURVE",
"625 648 CURVE SMOOTH",
"625 660 OFFCURVE",
"618 665 OFFCURVE",
"611 665 CURVE SMOOTH",
"605 665 OFFCURVE",
"598 661 OFFCURVE",
"598 650 CURVE SMOOTH",
"598 625 OFFCURVE",
"591 616 OFFCURVE",
"576 629 CURVE SMOOTH",
"544 658 OFFCURVE",
"474 700 OFFCURVE",
"364 700 CURVE SMOOTH",
"214 700 OFFCURVE",
"30 588 OFFCURVE",
"30 349 CURVE SMOOTH",
"30 110 OFFCURVE",
"214 0 OFFCURVE",
"364 0 CURVE SMOOTH"
);
}
);
width = 658;
}
);
leftKerningGroup = C;
rightKerningGroup = C;
unicode = 0043;
},
{
glyphname = D;
lastChange = "2020-01-23 13:11:27 +0000";
layers = (
{
anchors = (
{
name = bottom;
position = "{352, 0}";
},
{
name = center;
position = "{352, 350}";
},
{
name = top;
position = "{352, 700}";
}
);
layerId = "4FF06481-DC31-47E8-8EFF-C3C3B18F183D";
paths = (
{
closed = 1;
nodes = (
"61 1 OFFCURVE",
"294 1 OFFCURVE",
"337 1 CURVE SMOOTH",
"522 1 OFFCURVE",
"683 99 OFFCURVE",
"683 341 CURVE SMOOTH",
"683 583 OFFCURVE",
"522 682 OFFCURVE",
"337 681 CURVE SMOOTH",
"301 681 OFFCURVE",
"42 681 OFFCURVE",
"41 681 CURVE SMOOTH",
"11 681 OFFCURVE",
"15 651 OFFCURVE",
"43 654 CURVE SMOOTH",
"95 660 OFFCURVE",
"135 657 OFFCURVE",
"146 614 CURVE SMOOTH",
"154 582 OFFCURVE",
"155 467 OFFCURVE",
"155 341 CURVE SMOOTH",
"155 215 OFFCURVE",
"154 100 OFFCURVE",
"146 68 CURVE SMOOTH",
"135 25 OFFCURVE",
"95 22 OFFCURVE",
"43 28 CURVE SMOOTH",
"15 31 OFFCURVE",
"11 1 OFFCURVE",
"41 1 CURVE SMOOTH"
);
},
{
closed = 1;
nodes = (
"285 30 OFFCURVE",
"245 25 OFFCURVE",
"234 68 CURVE SMOOTH",
"226 100 OFFCURVE",
"225 215 OFFCURVE",
"225 341 CURVE SMOOTH",
"225 467 OFFCURVE",
"226 582 OFFCURVE",
"234 614 CURVE SMOOTH",
"245 657 OFFCURVE",
"285 654 OFFCURVE",
"337 654 CURVE SMOOTH",
"487 654 OFFCURVE",
"608 538 OFFCURVE",
"608 341 CURVE SMOOTH",
"608 144 OFFCURVE",
"487 22 OFFCURVE",
"338 28 CURVE SMOOTH"
);
}
);
width = 693;
}
);
leftKerningGroup = D;
rightKerningGroup = D;
unicode = 0044;
},
{
glyphname = E;
lastChange = "2020-01-30 10:05:33 +0000";
layers = (
{
anchors = (
{
name = bottom;
position = "{314, 0}";
},
{
name = ogonek;
position = "{626, 20}";
},
{
name = top;
position = "{314, 700}";
},
{
name = topleft;
position = "{20, 700}";
}
);
guideLines = (
{
position = "{502, 467}";
}
);
layerId = "4FF06481-DC31-47E8-8EFF-C3C3B18F183D";
paths = (
{
closed = 1;
nodes = (
"339 1 LINE SMOOTH",
"448 1 OFFCURVE",
"526 0 OFFCURVE",
"555 0 CURVE SMOOTH",
"581 0 OFFCURVE",
"589 9 OFFCURVE",
"592 53 CURVE SMOOTH",
"594 81 OFFCURVE",
"598 147 OFFCURVE",
"598 203 CURVE SMOOTH",
"598 221 OFFCURVE",
"590 228 OFFCURVE",
"581 229 CURVE SMOOTH",
"572 230 OFFCURVE",
"563 222 OFFCURVE",
"563 206 CURVE SMOOTH",
"563 85 OFFCURVE",
"528 42 OFFCURVE",
"471 34 CURVE SMOOTH",
"417 26 OFFCURVE",
"390 28 OFFCURVE",
"344 28 CURVE SMOOTH",
"289 28 OFFCURVE",
"245 25 OFFCURVE",
"234 68 CURVE SMOOTH",
"227 96 OFFCURVE",
"225 195 OFFCURVE",
"225 299 CURVE SMOOTH",
"225 316 OFFCURVE",
"234 325 OFFCURVE",
"251 325 CURVE SMOOTH",
"317 325 OFFCURVE",
"347 324 OFFCURVE",
"373 319 CURVE SMOOTH",
"416 311 OFFCURVE",
"429 278 OFFCURVE",
"423 243 CURVE SMOOTH",
"420 224 OFFCURVE",
"450 222 OFFCURVE",
"450 242 CURVE SMOOTH",
"450 450 LINE SMOOTH",
"450 470 OFFCURVE",
"420 468 OFFCURVE",
"423 449 CURVE SMOOTH",
"429 414 OFFCURVE",
"416 370 OFFCURVE",
"373 363 CURVE SMOOTH",
"350 359 OFFCURVE",
"321 357 OFFCURVE",
"251 357 CURVE SMOOTH",
"234 357 OFFCURVE",
"225 366 OFFCURVE",
"225 383 CURVE SMOOTH",
"225 487 OFFCURVE",
"227 586 OFFCURVE",
"234 614 CURVE SMOOTH",
"245 657 OFFCURVE",
"283 655 OFFCURVE",
"344 654 CURVE SMOOTH",
"408 653 OFFCURVE",
"463 653 OFFCURVE",
"495 632 CURVE SMOOTH",
"541 602 OFFCURVE",
"552 545 OFFCURVE",
"552 496 CURVE SMOOTH",
"552 478 OFFCURVE",
"563 470 OFFCURVE",
"572 470 CURVE SMOOTH",
"580 470 OFFCURVE",
"588 478 OFFCURVE",
"588 494 CURVE SMOOTH",
"588 526 OFFCURVE",
"585 572 OFFCURVE",
"577 644 CURVE SMOOTH",
"574 674 OFFCURVE",
"562 680 OFFCURVE",
"550 680 CURVE SMOOTH",
"41 681 LINE SMOOTH",
"11 681 OFFCURVE",
"15 651 OFFCURVE",
"43 654 CURVE SMOOTH",
"95 660 OFFCURVE",
"135 657 OFFCURVE",
"146 614 CURVE SMOOTH",
"154 582 OFFCURVE",
"155 467 OFFCURVE",
"155 341 CURVE SMOOTH",
"155 215 OFFCURVE",
"154 100 OFFCURVE",
"146 68 CURVE SMOOTH",
"135 25 OFFCURVE",
"95 22 OFFCURVE",
"43 28 CURVE SMOOTH",
"15 31 OFFCURVE",
"11 1 OFFCURVE",
"41 1 CURVE SMOOTH"
);
}
);
width = 628;
}
);
leftKerningGroup = E;
rightKerningGroup = E;
unicode = 0045;
},
{
glyphname = F;
lastChange = "2020-02-23 14:14:04 +0000";
layers = (
{
anchors = (
{
name = bottom;
position = "{301, 0}";
},
{
name = top;
position = "{301, 700}";
}
);
layerId = "4FF06481-DC31-47E8-8EFF-C3C3B18F183D";
paths = (
{
closed = 1;
nodes = (
"347 1 LINE SMOOTH",
"377 1 OFFCURVE",
"373 31 OFFCURVE",
"345 28 CURVE SMOOTH",
"293 22 OFFCURVE",
"249 25 OFFCURVE",
"238 68 CURVE SMOOTH",
"231 96 OFFCURVE",
"229 195 OFFCURVE",
"229 299 CURVE SMOOTH",
"229 316 OFFCURVE",
"238 325 OFFCURVE",
"255 325 CURVE SMOOTH",
"321 325 OFFCURVE",
"351 324 OFFCURVE",
"377 319 CURVE SMOOTH",
"420 311 OFFCURVE",
"433 278 OFFCURVE",
"427 243 CURVE SMOOTH",
"424 224 OFFCURVE",
"454 222 OFFCURVE",
"454 242 CURVE SMOOTH",
"454 450 LINE SMOOTH",
"454 470 OFFCURVE",
"424 468 OFFCURVE",
"427 449 CURVE SMOOTH",
"433 414 OFFCURVE",
"420 370 OFFCURVE",
"377 363 CURVE SMOOTH",
"354 359 OFFCURVE",
"325 357 OFFCURVE",
"255 357 CURVE SMOOTH",
"238 357 OFFCURVE",
"229 366 OFFCURVE",
"229 383 CURVE SMOOTH",
"229 487 OFFCURVE",
"231 586 OFFCURVE",
"238 614 CURVE SMOOTH",
"249 656 OFFCURVE",
"287 655 OFFCURVE",
"348 654 CURVE SMOOTH",
"412 653 OFFCURVE",
"467 653 OFFCURVE",
"499 632 CURVE SMOOTH",
"545 602 OFFCURVE",
"556 545 OFFCURVE",
"556 496 CURVE SMOOTH",
"556 478 OFFCURVE",
"567 470 OFFCURVE",
"576 470 CURVE SMOOTH",
"584 470 OFFCURVE",
"592 478 OFFCURVE",
"592 494 CURVE SMOOTH",
"592 526 OFFCURVE",
"589 572 OFFCURVE",
"581 644 CURVE SMOOTH",
"578 674 OFFCURVE",
"566 680 OFFCURVE",
"554 680 CURVE SMOOTH",
"41 681 LINE SMOOTH",
"11 681 OFFCURVE",
"15 651 OFFCURVE",
"43 654 CURVE SMOOTH",
"95 660 OFFCURVE",
"139 657 OFFCURVE",
"150 614 CURVE SMOOTH",
"158 582 OFFCURVE",
"159 467 OFFCURVE",
"159 341 CURVE SMOOTH",
"159 215 OFFCURVE",
"158 100 OFFCURVE",
"150 68 CURVE SMOOTH",
"139 25 OFFCURVE",
"95 22 OFFCURVE",
"43 28 CURVE SMOOTH",
"15 31 OFFCURVE",
"11 1 OFFCURVE",
"41 1 CURVE SMOOTH"
);
}
);
width = 602;
}
);
leftKerningGroup = F;
rightKerningGroup = F;
unicode = 0046;
},
{
glyphname = G;
lastChange = "2020-01-23 13:11:42 +0000";
layers = (
{
anchors = (
{
name = bottom;
position = "{329, 0}";
},
{
name = top;
position = "{329, 700}";
}
);
guideLines = (
{
position = "{4432, 322}";
}
);
layerId = "4FF06481-DC31-47E8-8EFF-C3C3B18F183D";
paths = (
{
closed = 1;
nodes = (
"509 0 OFFCURVE",
"615 92 OFFCURVE",
"615 232 CURVE SMOOTH",
"615 266 OFFCURVE",
"614 272 OFFCURVE",
"624 272 CURVE SMOOTH",
"653 272 OFFCURVE",
"654 299 OFFCURVE",
"630 299 CURVE SMOOTH",
"608 299 OFFCURVE",
"542 299 OFFCURVE",
"388 299 CURVE SMOOTH",
"358 299 OFFCURVE",
"362 269 OFFCURVE",
"390 272 CURVE SMOOTH",
"500 285 OFFCURVE",
"547 270 OFFCURVE",
"532 157 CURVE SMOOTH",
"522 84 OFFCURVE",
"449 27 OFFCURVE",
"344 27 CURVE SMOOTH",
"201 27 OFFCURVE",
"100 156 OFFCURVE",
"100 349 CURVE SMOOTH",
"100 542 OFFCURVE",
"201 673 OFFCURVE",
"344 673 CURVE SMOOTH",
"495 673 OFFCURVE",
"588 549 OFFCURVE",
"588 458 CURVE SMOOTH",
"588 442 OFFCURVE",
"595 435 OFFCURVE",
"601 435 CURVE SMOOTH",
"608 435 OFFCURVE",
"615 443 OFFCURVE",
"615 458 CURVE SMOOTH",
"615 474 OFFCURVE",
"615 498 OFFCURVE",
"615 548 CURVE SMOOTH",
"615 648 LINE SMOOTH",
"615 660 OFFCURVE",
"608 665 OFFCURVE",
"601 665 CURVE SMOOTH",
"595 665 OFFCURVE",
"588 661 OFFCURVE",
"588 650 CURVE SMOOTH",
"588 625 OFFCURVE",
"581 616 OFFCURVE",
"566 629 CURVE SMOOTH",
"533 657 OFFCURVE",
"464 700 OFFCURVE",
"344 700 CURVE SMOOTH",
"194 700 OFFCURVE",
"20 588 OFFCURVE",
"20 349 CURVE SMOOTH",
"20 110 OFFCURVE",
"194 0 OFFCURVE",
"344 0 CURVE SMOOTH"
);
}
);
width = 667;
}
);
leftKerningGroup = G;
rightKerningGroup = G;
unicode = 0047;
},
{
glyphname = H;
lastChange = "2020-02-23 14:14:39 +0000";
layers = (
{
anchors = (
{
name = bottom;
position = "{399, 0}";
},
{
name = center;
position = "{399, 350}";
},
{
name = top;
position = "{399, 700}";
},
{
name = topleft;
position = "{20, 700}";
}
);
guideLines = (
{
position = "{4422, 322}";
}
);
layerId = "4FF06481-DC31-47E8-8EFF-C3C3B18F183D";
paths = (
{
closed = 1;
nodes = (
"194 1 LINE",
"347 1 LINE SMOOTH",
"377 1 OFFCURVE",
"373 31 OFFCURVE",
"345 28 CURVE SMOOTH",
"293 22 OFFCURVE",
"249 25 OFFCURVE",
"238 68 CURVE SMOOTH",
"231 96 OFFCURVE",
"229 189 OFFCURVE",
"229 297 CURVE SMOOTH",
"229 314 OFFCURVE",
"238 323 OFFCURVE",
"254 323 CURVE SMOOTH",
"544 323 LINE SMOOTH",
"560 323 OFFCURVE",
"569 314 OFFCURVE",
"569 297 CURVE SMOOTH",
"569 189 OFFCURVE",
"567 96 OFFCURVE",
"560 68 CURVE SMOOTH",
"549 25 OFFCURVE",
"505 22 OFFCURVE",
"453 28 CURVE SMOOTH",
"425 31 OFFCURVE",
"421 1 OFFCURVE",
"451 1 CURVE SMOOTH",
"604 1 LINE",
"757 1 LINE SMOOTH",
"787 1 OFFCURVE",
"783 31 OFFCURVE",
"755 28 CURVE SMOOTH",
"703 22 OFFCURVE",
"659 25 OFFCURVE",
"648 68 CURVE SMOOTH",
"640 100 OFFCURVE",
"639 215 OFFCURVE",
"639 341 CURVE SMOOTH",
"639 467 OFFCURVE",
"640 582 OFFCURVE",
"648 614 CURVE SMOOTH",
"659 657 OFFCURVE",
"703 660 OFFCURVE",
"755 654 CURVE SMOOTH",
"783 651 OFFCURVE",
"787 681 OFFCURVE",
"757 681 CURVE SMOOTH",
"604 681 LINE",
"451 681 LINE SMOOTH",
"421 681 OFFCURVE",
"425 651 OFFCURVE",
"453 654 CURVE SMOOTH",
"505 660 OFFCURVE",
"549 657 OFFCURVE",
"560 614 CURVE SMOOTH",
"567 585 OFFCURVE",
"569 490 OFFCURVE",
"569 381 CURVE SMOOTH",
"569 364 OFFCURVE",
"560 355 OFFCURVE",
"544 355 CURVE SMOOTH",
"254 355 LINE SMOOTH",
"238 355 OFFCURVE",
"229 364 OFFCURVE",
"229 381 CURVE SMOOTH",
"229 490 OFFCURVE",
"231 585 OFFCURVE",
"238 614 CURVE SMOOTH",
"249 657 OFFCURVE",
"293 660 OFFCURVE",
"345 654 CURVE SMOOTH",
"373 651 OFFCURVE",
"377 681 OFFCURVE",
"347 681 CURVE SMOOTH",
"194 681 LINE",
"41 681 LINE SMOOTH",
"11 681 OFFCURVE",
"15 651 OFFCURVE",
"43 654 CURVE SMOOTH",
"95 660 OFFCURVE",
"139 657 OFFCURVE",
"150 614 CURVE SMOOTH",
"158 582 OFFCURVE",
"159 467 OFFCURVE",
"159 341 CURVE SMOOTH",
"159 215 OFFCURVE",
"158 100 OFFCURVE",
"150 68 CURVE SMOOTH",
"139 25 OFFCURVE",
"95 22 OFFCURVE",
"43 28 CURVE SMOOTH",
"15 31 OFFCURVE",
"11 1 OFFCURVE",
"41 1 CURVE SMOOTH"
);
}
);
width = 798;
}
);
leftKerningGroup = H;
rightKerningGroup = H;
unicode = 0048;
},
{
glyphname = I;
lastChange = "2020-01-30 10:04:24 +0000";
layers = (
{
anchors = (
{
name = bottom;
position = "{194, 0}";
},
{
name = ogonek;
position = "{268, 12}";
},
{
name = top;
position = "{194, 700}";
},
{
name = topleft;
position = "{20, 700}";
}
);
layerId = "4FF06481-DC31-47E8-8EFF-C3C3B18F183D";
paths = (
{
closed = 1;
nodes = (
"45 1 OFFCURVE",
"116 1 OFFCURVE",
"194 1 CURVE SMOOTH",
"272 1 OFFCURVE",
"343 1 OFFCURVE",
"347 1 CURVE SMOOTH",
"377 1 OFFCURVE",
"373 31 OFFCURVE",
"345 28 CURVE SMOOTH",
"293 22 OFFCURVE",
"249 25 OFFCURVE",
"238 68 CURVE SMOOTH",
"230 100 OFFCURVE",
"229 215 OFFCURVE",
"229 341 CURVE SMOOTH",
"229 467 OFFCURVE",
"230 582 OFFCURVE",
"238 614 CURVE SMOOTH",
"249 657 OFFCURVE",
"293 660 OFFCURVE",
"345 654 CURVE SMOOTH",
"373 651 OFFCURVE",
"377 681 OFFCURVE",
"347 681 CURVE SMOOTH",
"343 681 OFFCURVE",
"272 681 OFFCURVE",
"194 681 CURVE SMOOTH",
"116 681 OFFCURVE",
"45 681 OFFCURVE",
"41 681 CURVE SMOOTH",
"11 681 OFFCURVE",
"15 651 OFFCURVE",
"43 654 CURVE SMOOTH",
"95 660 OFFCURVE",
"139 657 OFFCURVE",
"150 614 CURVE SMOOTH",
"158 582 OFFCURVE",
"159 467 OFFCURVE",
"159 341 CURVE SMOOTH",
"159 215 OFFCURVE",
"158 100 OFFCURVE",
"150 68 CURVE SMOOTH",
"139 25 OFFCURVE",
"95 22 OFFCURVE",
"43 28 CURVE SMOOTH",
"15 31 OFFCURVE",
"11 1 OFFCURVE",
"41 1 CURVE SMOOTH"
);
}
);
width = 388;
}
);
leftKerningGroup = I;
rightKerningGroup = I;
unicode = 0049;
},
{
glyphname = J;
lastChange = "2020-02-23 14:11:16 +0000";
layers = (
{
anchors = (
{
name = bottom;
position = "{265, 0}";
},
{
name = top;
position = "{327, 700}";
}
);
layerId = "4FF06481-DC31-47E8-8EFF-C3C3B18F183D";
paths = (
{
closed = 1;
nodes = (
"295 0 OFFCURVE",
"371 96 OFFCURVE",
"371 225 CURVE SMOOTH",
"371 290 OFFCURVE",
"366 556 OFFCURVE",
"380 614 CURVE SMOOTH",
"388 647 OFFCURVE",
"416 656 OFFCURVE",
"452 656 CURVE SMOOTH",
"463 656 OFFCURVE",
"475 655 OFFCURVE",
"487 654 CURVE SMOOTH",
"502 653 OFFCURVE",
"510 660 OFFCURVE",
"510 667 CURVE SMOOTH",
"510 674 OFFCURVE",
"503 681 OFFCURVE",
"489 681 CURVE SMOOTH",
"485 681 OFFCURVE",
"404 681 OFFCURVE",
"326 681 CURVE SMOOTH",
"248 681 OFFCURVE",
"167 681 OFFCURVE",
"163 681 CURVE SMOOTH",
"149 681 OFFCURVE",
"142 674 OFFCURVE",
"142 668 CURVE SMOOTH",
"142 661 OFFCURVE",
"149 654 OFFCURVE",
"161 654 CURVE SMOOTH",
"164 654 OFFCURVE",
"193 656 OFFCURVE",
"200 656 CURVE SMOOTH",
"236 656 OFFCURVE",
"283 647 OFFCURVE",
"292 614 CURVE SMOOTH",
"307 556 OFFCURVE",
"301 297 OFFCURVE",
"301 220 CURVE SMOOTH",
"301 113 OFFCURVE",
"255 20 OFFCURVE",
"161 27 CURVE SMOOTH",
"110 31 OFFCURVE",
"60 74 OFFCURVE",
"71 137 CURVE",
"128 134 OFFCURVE",
"124 218 OFFCURVE",
"68 218 CURVE SMOOTH",
"32 218 OFFCURVE",
"10 188 OFFCURVE",
"10 146 CURVE SMOOTH",
"10 52 OFFCURVE",
"95 0 OFFCURVE",
"170 0 CURVE SMOOTH"
);
}
);
width = 530;
}
);
leftKerningGroup = J;
rightKerningGroup = J;
unicode = 004A;
},
{
glyphname = K;
lastChange = "2020-01-30 10:02:56 +0000";
layers = (
{
anchors = (
{
name = bottom;
position = "{378, 0}";
},
{
name = top;
position = "{378, 700}";
}
);
layerId = "4FF06481-DC31-47E8-8EFF-C3C3B18F183D";
paths = (
{
closed = 1;
nodes = (
"194 1 LINE",
"347 1 LINE SMOOTH",
"377 1 OFFCURVE",
"373 31 OFFCURVE",
"345 28 CURVE SMOOTH",
"293 22 OFFCURVE",
"249 25 OFFCURVE",
"238 68 CURVE SMOOTH",
"231 92 OFFCURVE",
"230 167 OFFCURVE",
"229 258 CURVE SMOOTH",
"229 271 OFFCURVE",
"234 281 OFFCURVE",
"243 289 CURVE SMOOTH",
"319 357 LINE",
"517 68 LINE SMOOTH",
"542 32 OFFCURVE",
"482 22 OFFCURVE",
"430 28 CURVE SMOOTH",
"402 31 OFFCURVE",
"398 1 OFFCURVE",
"428 1 CURVE SMOOTH",
"561 1 LINE",
"714 1 LINE SMOOTH",
"744 1 OFFCURVE",
"740 31 OFFCURVE",
"712 28 CURVE SMOOTH",
"670 24 OFFCURVE",
"620 46 OFFCURVE",
"599 75 CURVE SMOOTH",
"379 380 LINE SMOOTH",
"370 392 OFFCURVE",
"371 404 OFFCURVE",
"383 415 CURVE SMOOTH",
"589 599 LINE SMOOTH",
"617 624 OFFCURVE",
"664 656 OFFCURVE",
"692 652 CURVE SMOOTH",
"716 649 OFFCURVE",
"719 679 OFFCURVE",
"693 679 CURVE SMOOTH",
"455 679 LINE SMOOTH",
"429 679 OFFCURVE",
"432 649 OFFCURVE",
"456 652 CURVE SMOOTH",
"526 661 OFFCURVE",
"580 628 OFFCURVE",
"534 588 CURVE SMOOTH",
"260 349 LINE SMOOTH",
"243 334 OFFCURVE",
"229 342 OFFCURVE",
"229 364 CURVE SMOOTH",
"229 488 OFFCURVE",
"231 584 OFFCURVE",
"238 614 CURVE SMOOTH",
"249 657 OFFCURVE",
"293 660 OFFCURVE",
"345 654 CURVE SMOOTH",
"373 651 OFFCURVE",
"377 681 OFFCURVE",
"347 681 CURVE SMOOTH",
"194 681 LINE",
"41 681 LINE SMOOTH",
"11 681 OFFCURVE",
"15 651 OFFCURVE",
"43 654 CURVE SMOOTH",
"95 660 OFFCURVE",
"139 657 OFFCURVE",
"150 614 CURVE SMOOTH",
"158 582 OFFCURVE",
"159 467 OFFCURVE",
"159 341 CURVE SMOOTH",
"159 215 OFFCURVE",
"158 100 OFFCURVE",
"150 68 CURVE SMOOTH",
"139 25 OFFCURVE",
"95 22 OFFCURVE",
"43 28 CURVE SMOOTH",
"15 31 OFFCURVE",
"11 1 OFFCURVE",
"41 1 CURVE SMOOTH"
);
}
);
width = 755;
}
);
leftKerningGroup = K;
rightKerningGroup = K;
unicode = 004B;
},
{
glyphname = L;
lastChange = "2020-01-30 10:03:58 +0000";
layers = (
{
anchors = (
{
name = bottom;
position = "{306, 0}";
},
{
name = center;
position = "{306, 350}";
},
{
name = top;
position = "{207, 680}";
},
{
name = topright;
position = "{592, 680}";
}
);
layerId = "4FF06481-DC31-47E8-8EFF-C3C3B18F183D";
paths = (
{
closed = 1;
nodes = (
"575 0 OFFCURVE",
"583 9 OFFCURVE",
"586 53 CURVE SMOOTH",
"588 81 OFFCURVE",
"592 147 OFFCURVE",
"592 203 CURVE SMOOTH",
"592 221 OFFCURVE",
"584 228 OFFCURVE",
"575 229 CURVE SMOOTH",
"566 230 OFFCURVE",
"557 222 OFFCURVE",
"557 206 CURVE SMOOTH",
"557 85 OFFCURVE",
"522 42 OFFCURVE",
"465 34 CURVE SMOOTH",
"412 27 OFFCURVE",
"371 28 OFFCURVE",
"345 28 CURVE SMOOTH",
"293 28 OFFCURVE",
"249 26 OFFCURVE",
"238 68 CURVE SMOOTH",
"230 100 OFFCURVE",
"229 215 OFFCURVE",
"229 341 CURVE SMOOTH",
"229 467 OFFCURVE",
"230 580 OFFCURVE",
"238 612 CURVE SMOOTH",
"249 655 OFFCURVE",
"293 658 OFFCURVE",
"345 652 CURVE SMOOTH",
"373 649 OFFCURVE",
"377 679 OFFCURVE",
"347 679 CURVE SMOOTH",
"343 679 OFFCURVE",
"272 679 OFFCURVE",
"194 679 CURVE SMOOTH",
"41 679 LINE SMOOTH",
"12 679 OFFCURVE",
"15 650 OFFCURVE",
"41 652 CURVE SMOOTH",
"77 655 OFFCURVE",
"137 663 OFFCURVE",
"150 612 CURVE SMOOTH",
"158 580 OFFCURVE",
"159 467 OFFCURVE",
"159 341 CURVE SMOOTH",
"159 215 OFFCURVE",
"158 100 OFFCURVE",
"150 68 CURVE SMOOTH",
"137 18 OFFCURVE",
"81 26 OFFCURVE",
"41 28 CURVE SMOOTH",
"15 30 OFFCURVE",
"12 1 OFFCURVE",
"41 1 CURVE SMOOTH",
"45 1 OFFCURVE",
"123 1 OFFCURVE",
"194 1 CURVE SMOOTH",
"343 1 LINE SMOOTH",
"442 1 OFFCURVE",
"520 0 OFFCURVE",
"549 0 CURVE SMOOTH"
);
}
);
width = 622;
}
);
leftKerningGroup = L;
rightKerningGroup = L;
unicode = 004C;
},
{
glyphname = M;
lastChange = "2020-01-25 12:30:05 +0000";
layers = (
{
anchors = (
{
name = bottom;
position = "{466, 0}";
},
{
name = top;
position = "{466, 700}";
}
);
layerId = "4FF06481-DC31-47E8-8EFF-C3C3B18F183D";
paths = (
{
closed = 1;
nodes = (
"317 1 LINE SMOOTH",
"347 1 OFFCURVE",
"343 31 OFFCURVE",
"315 28 CURVE SMOOTH",
"263 22 OFFCURVE",
"219 25 OFFCURVE",
"208 68 CURVE SMOOTH",
"199 105 OFFCURVE",
"212 331 OFFCURVE",
"225 483 CURVE SMOOTH",
"226 498 OFFCURVE",
"237 500 OFFCURVE",
"243 486 CURVE SMOOTH",
"409 80 LINE SMOOTH",
"423 46 OFFCURVE",
"446 47 OFFCURVE",
"462 85 CURVE SMOOTH",
"657 540 LINE SMOOTH",
"663 553 OFFCURVE",
"674 552 OFFCURVE",
"675 537 CURVE SMOOTH",
"684 392 OFFCURVE",
"705 112 OFFCURVE",
"694 68 CURVE SMOOTH",
"683 25 OFFCURVE",
"639 22 OFFCURVE",
"587 28 CURVE SMOOTH",
"559 31 OFFCURVE",
"555 1 OFFCURVE",
"585 1 CURVE SMOOTH",
"738 1 LINE",
"891 1 LINE SMOOTH",
"921 1 OFFCURVE",
"917 31 OFFCURVE",
"889 28 CURVE SMOOTH",
"837 22 OFFCURVE",
"793 25 OFFCURVE",
"782 68 CURVE SMOOTH",
"769 119 OFFCURVE",
"739 564 OFFCURVE",
"752 614 CURVE SMOOTH",
"763 657 OFFCURVE",
"807 660 OFFCURVE",
"859 654 CURVE SMOOTH",
"887 651 OFFCURVE",
"891 681 OFFCURVE",
"861 681 CURVE SMOOTH",
"708 681 LINE SMOOTH",
"690 681 OFFCURVE",
"680 677 OFFCURVE",
"676 670 CURVE SMOOTH",
"672 664 OFFCURVE",
"670 660 OFFCURVE",
"668 654 CURVE SMOOTH",
"464 180 LINE SMOOTH",
"459 167 OFFCURVE",
"449 168 OFFCURVE",
"444 181 CURVE SMOOTH",
"245 653 LINE SMOOTH",
"243 659 OFFCURVE",
"242 663 OFFCURVE",
"239 669 CURVE SMOOTH",
"234 677 OFFCURVE",
"225 681 OFFCURVE",
"209 681 CURVE SMOOTH",
"71 681 LINE SMOOTH",
"41 681 OFFCURVE",
"45 651 OFFCURVE",
"73 654 CURVE SMOOTH",
"125 660 OFFCURVE",
"169 657 OFFCURVE",
"180 614 CURVE SMOOTH",
"193 563 OFFCURVE",
"163 118 OFFCURVE",
"150 68 CURVE SMOOTH",
"139 25 OFFCURVE",
"95 22 OFFCURVE",
"43 28 CURVE SMOOTH",
"15 31 OFFCURVE",
"11 1 OFFCURVE",
"41 1 CURVE SMOOTH"
);
}
);
width = 932;
}
);
leftKerningGroup = M;
rightKerningGroup = M;
unicode = 004D;
},
{
glyphname = N;
lastChange = "2020-01-30 10:03:17 +0000";
layers = (
{
anchors = (
{
name = bottom;
position = "{374, 0}";
},
{
name = top;
position = "{374, 700}";
}
);
layerId = "4FF06481-DC31-47E8-8EFF-C3C3B18F183D";
paths = (
{
closed = 1;
nodes = (
"317 1 LINE SMOOTH",
"347 1 OFFCURVE",
"343 31 OFFCURVE",
"315 28 CURVE SMOOTH",
"263 22 OFFCURVE",
"219 25 OFFCURVE",
"208 68 CURVE SMOOTH",
"198 109 OFFCURVE",
"196 389 OFFCURVE",
"203 536 CURVE SMOOTH",
"203 550 OFFCURVE",
"213 552 OFFCURVE",
"221 541 CURVE SMOOTH",
"605 13 LINE SMOOTH",
"619 -6 OFFCURVE",
"656 -3 OFFCURVE",
"656 44 CURVE SMOOTH",
"656 599 LINE SMOOTH",
"656 646 OFFCURVE",
"695 660 OFFCURVE",
"739 654 CURVE SMOOTH",
"763 651 OFFCURVE",
"766 681 OFFCURVE",
"741 681 CURVE SMOOTH",
"503 681 LINE SMOOTH",
"478 681 OFFCURVE",
"481 651 OFFCURVE",
"505 654 CURVE SMOOTH",
"549 660 OFFCURVE",
"616 656 OFFCURVE",
"616 599 CURVE SMOOTH",
"615 150 LINE SMOOTH",
"615 135 OFFCURVE",
"605 133 OFFCURVE",
"597 144 CURVE SMOOTH",
"210 668 LINE",
"205 677 OFFCURVE",
"196 681 OFFCURVE",
"179 681 CURVE SMOOTH",
"41 681 LINE SMOOTH",
"11 681 OFFCURVE",
"15 651 OFFCURVE",
"43 654 CURVE SMOOTH",
"95 660 OFFCURVE",
"139 657 OFFCURVE",
"150 614 CURVE SMOOTH",
"163 563 OFFCURVE",
"163 118 OFFCURVE",
"150 68 CURVE SMOOTH",
"139 25 OFFCURVE",
"95 22 OFFCURVE",
"43 28 CURVE SMOOTH",
"15 31 OFFCURVE",
"11 1 OFFCURVE",
"41 1 CURVE SMOOTH"
);
}
);
width = 748;
}
);
leftKerningGroup = N;
rightKerningGroup = N;
unicode = 004E;
},
{
glyphname = O;
lastChange = "2020-01-23 13:31:01 +0000";
layers = (
{
anchors = (
{
name = bottom;
position = "{354, 0}";
},
{
name = center;
position = "{354, 350}";
},
{
name = ogonek;
position = "{550, 48}";
},
{
name = top;
position = "{354, 700}";
},
{
name = topleft;
position = "{10, 700}";
},
{
name = topright;
position = "{538, 590}";
}
);
layerId = "4FF06481-DC31-47E8-8EFF-C3C3B18F183D";
paths = (
{
closed = 1;
nodes = (
"504 0 OFFCURVE",
"688 110 OFFCURVE",
"688 349 CURVE SMOOTH",
"688 588 OFFCURVE",
"504 700 OFFCURVE",
"354 700 CURVE SMOOTH",
"204 700 OFFCURVE",
"20 588 OFFCURVE",
"20 349 CURVE SMOOTH",
"20 110 OFFCURVE",
"204 0 OFFCURVE",
"354 0 CURVE SMOOTH"
);
},
{
closed = 1;
nodes = (
"211 27 OFFCURVE",
"100 156 OFFCURVE",
"100 349 CURVE SMOOTH",
"100 542 OFFCURVE",
"211 673 OFFCURVE",
"354 673 CURVE SMOOTH",
"497 673 OFFCURVE",
"608 542 OFFCURVE",
"608 349 CURVE SMOOTH",
"608 156 OFFCURVE",
"497 27 OFFCURVE",
"354 27 CURVE SMOOTH"
);
}
);
width = 708;
}
);
leftKerningGroup = O;
rightKerningGroup = O;
unicode = 004F;
},
{
glyphname = P;
lastChange = "2020-02-23 14:11:42 +0000";
layers = (
{
anchors = (
{
name = bottom;
position = "{305, 0}";
},
{
name = top;
position = "{305, 681}";
}
);
guideLines = (
{
angle = 270;
position = "{343, 467}";
},
{
position = "{501, 286}";
}
);
layerId = "4FF06481-DC31-47E8-8EFF-C3C3B18F183D";
paths = (
{
closed = 1;
nodes = (
"194 1 LINE",
"347 1 LINE SMOOTH",
"377 1 OFFCURVE",
"373 31 OFFCURVE",
"345 28 CURVE SMOOTH",
"293 22 OFFCURVE",
"249 25 OFFCURVE",
"238 68 CURVE SMOOTH",
"233 91 OFFCURVE",
"230 153 OFFCURVE",
"229 231 CURVE SMOOTH",
"229 248 OFFCURVE",
"238 257 OFFCURVE",
"254 257 CURVE SMOOTH",
"345 257 LINE SMOOTH",
"674 257 OFFCURVE",
"670 681 OFFCURVE",
"341 681 CURVE SMOOTH",
"45 681 LINE SMOOTH",
"15 681 OFFCURVE",
"19 651 OFFCURVE",
"47 654 CURVE SMOOTH",
"99 660 OFFCURVE",
"139 657 OFFCURVE",
"150 614 CURVE SMOOTH",
"163 564 OFFCURVE",
"159 404 OFFCURVE",
"159 341 CURVE SMOOTH",
"159 215 OFFCURVE",
"158 100 OFFCURVE",
"150 68 CURVE SMOOTH",
"139 25 OFFCURVE",
"95 22 OFFCURVE",
"43 28 CURVE SMOOTH",
"15 31 OFFCURVE",
"11 1 OFFCURVE",
"41 1 CURVE SMOOTH"
);
},
{
closed = 1;
nodes = (
"229 400 OFFCURVE",
"225 563 OFFCURVE",
"238 614 CURVE SMOOTH",
"249 657 OFFCURVE",
"289 654 OFFCURVE",
"341 654 CURVE SMOOTH",
"567 654 OFFCURVE",
"563 284 OFFCURVE",
"346 284 CURVE SMOOTH",
"305 284 OFFCURVE",
"280 285 OFFCURVE",
"253 286 CURVE SMOOTH",
"237 287 OFFCURVE",
"229 296 OFFCURVE",
"229 312 CURVE SMOOTH",
"229 341 LINE SMOOTH"
);
}
);
width = 610;
}
);
leftKerningGroup = P;
rightKerningGroup = P;
unicode = 0050;
},
{
glyphname = Q;
lastChange = "2020-01-25 12:31:32 +0000";
layers = (
{
anchors = (
{
name = bottom;
position = "{356, 0}";
},
{
name = top;
position = "{356, 700}";
}
);
layerId = "4FF06481-DC31-47E8-8EFF-C3C3B18F183D";
paths = (
{
closed = 1;
nodes = (
"504 28 OFFCURVE",
"688 134 OFFCURVE",
"688 363 CURVE SMOOTH",
"688 593 OFFCURVE",
"504 700 OFFCURVE",
"354 700 CURVE SMOOTH",
"204 700 OFFCURVE",
"20 593 OFFCURVE",
"20 363 CURVE SMOOTH",
"20 134 OFFCURVE",
"204 28 OFFCURVE",
"354 28 CURVE SMOOTH"
);
},
{
closed = 1;
nodes = (
"263 -119 OFFCURVE",
"287 -4 OFFCURVE",
"441 41 CURVE SMOOTH",
"458 46 OFFCURVE",
"461 60 OFFCURVE",
"435 60 CURVE SMOOTH",
"293 60 OFFCURVE",
"235 -86 OFFCURVE",
"153 -86 CURVE SMOOTH",
"101 -86 OFFCURVE",
"101 -40 OFFCURVE",
"147 -40 CURVE SMOOTH",
"219 -40 OFFCURVE",
"340 -119 OFFCURVE",
"485 -119 CURVE SMOOTH",
"613 -119 OFFCURVE",
"712 -47 OFFCURVE",
"720 -22 CURVE SMOOTH",
"724 -10 OFFCURVE",
"712 -7 OFFCURVE",
"692 -26 CURVE SMOOTH",
"643 -71 OFFCURVE",
"558 -89 OFFCURVE",
"466 -74 CURVE SMOOTH",
"361 -57 OFFCURVE",
"286 -3 OFFCURVE",
"195 -3 CURVE SMOOTH",
"69 -3 OFFCURVE",
"49 -119 OFFCURVE",
"155 -119 CURVE SMOOTH"
);
},
{
closed = 1;
nodes = (
"211 54 OFFCURVE",
"100 178 OFFCURVE",
"100 363 CURVE SMOOTH",
"100 548 OFFCURVE",
"211 674 OFFCURVE",
"354 674 CURVE SMOOTH",
"497 674 OFFCURVE",
"608 548 OFFCURVE",
"608 363 CURVE SMOOTH",
"608 178 OFFCURVE",
"497 54 OFFCURVE",
"354 54 CURVE SMOOTH"
);
}
);
width = 711;
}
);
leftKerningGroup = Q;
rightKerningGroup = Q;
unicode = 0051;
},
{
glyphname = R;
lastChange = "2020-02-14 12:07:56 +0000";
layers = (
{
anchors = (
{
name = bottom;
position = "{354, 0}";
},
{
name = top;
position = "{354, 700}";
}
);
layerId = "4FF06481-DC31-47E8-8EFF-C3C3B18F183D";
paths = (
{
closed = 1;
nodes = (
"194 1 LINE",
"347 1 LINE SMOOTH",
"377 1 OFFCURVE",
"373 31 OFFCURVE",
"345 28 CURVE SMOOTH",
"293 22 OFFCURVE",
"249 25 OFFCURVE",
"238 68 CURVE SMOOTH",
"233 91 OFFCURVE",
"230 153 OFFCURVE",
"229 231 CURVE SMOOTH",
"229 248 OFFCURVE",
"238 257 OFFCURVE",
"254 257 CURVE SMOOTH",
"307 257 LINE SMOOTH",
"427 257 OFFCURVE",
"444 111 OFFCURVE",
"478 31 CURVE SMOOTH",
"486 12 OFFCURVE",
"510 1 OFFCURVE",
"543 1 CURVE SMOOTH",
"656 1 LINE SMOOTH",
"686 1 OFFCURVE",
"682 31 OFFCURVE",
"654 28 CURVE SMOOTH",
"602 22 OFFCURVE",
"577 30 OFFCURVE",
"559 68 CURVE SMOOTH",
"533 124 OFFCURVE",
"518 208 OFFCURVE",
"456 254 CURVE SMOOTH",
"442 264 OFFCURVE",
"442 271 OFFCURVE",
"459 277 CURVE SMOOTH",
"667 363 OFFCURVE",
"626 681 OFFCURVE",
"341 681 CURVE SMOOTH",
"45 681 LINE SMOOTH",
"15 681 OFFCURVE",
"19 651 OFFCURVE",
"47 654 CURVE SMOOTH",
"99 660 OFFCURVE",
"139 657 OFFCURVE",
"150 614 CURVE SMOOTH",
"163 564 OFFCURVE",
"159 404 OFFCURVE",
"159 341 CURVE SMOOTH",
"159 215 OFFCURVE",
"158 100 OFFCURVE",
"150 68 CURVE SMOOTH",
"139 25 OFFCURVE",
"95 22 OFFCURVE",
"43 28 CURVE SMOOTH",
"15 31 OFFCURVE",
"11 1 OFFCURVE",
"41 1 CURVE SMOOTH"
);
},
{
closed = 1;
nodes = (
"229 400 OFFCURVE",
"225 563 OFFCURVE",
"238 614 CURVE SMOOTH",
"249 657 OFFCURVE",
"289 654 OFFCURVE",
"341 654 CURVE SMOOTH",
"567 654 OFFCURVE",
"563 284 OFFCURVE",
"346 284 CURVE SMOOTH",
"305 284 OFFCURVE",
"280 285 OFFCURVE",
"253 286 CURVE SMOOTH",
"237 287 OFFCURVE",
"229 296 OFFCURVE",
"229 312 CURVE SMOOTH",
"229 341 LINE SMOOTH"
);
}
);
width = 697;
}
);
leftKerningGroup = R;
rightKerningGroup = R;
unicode = 0052;
},
{
glyphname = S;
lastChange = "2020-01-30 10:05:16 +0000";
layers = (
{
anchors = (
{
name = bottom;
position = "{254, 0}";
},
{
name = top;
position = "{254, 700}";
}
);
layerId = "4FF06481-DC31-47E8-8EFF-C3C3B18F183D";
paths = (
{
closed = 1;
nodes = (
"383 0 OFFCURVE",
"487 54 OFFCURVE",
"487 165 CURVE SMOOTH",
"487 295 OFFCURVE",
"366 358 OFFCURVE",
"250 408 CURVE SMOOTH",
"164 445 OFFCURVE",
"100 481 OFFCURVE",
"100 563 CURVE SMOOTH",
"100 620 OFFCURVE",
"154 673 OFFCURVE",
"246 673 CURVE SMOOTH",
"364 673 OFFCURVE",
"439 569 OFFCURVE",
"439 478 CURVE SMOOTH",
"439 462 OFFCURVE",
"446 455 OFFCURVE",
"452 455 CURVE SMOOTH",
"459 455 OFFCURVE",
"466 463 OFFCURVE",
"466 478 CURVE SMOOTH",
"466 494 OFFCURVE",
"466 518 OFFCURVE",
"466 568 CURVE SMOOTH",
"466 618 OFFCURVE",
"466 666 OFFCURVE",
"466 668 CURVE SMOOTH",
"466 680 OFFCURVE",
"459 685 OFFCURVE",
"452 685 CURVE SMOOTH",
"446 685 OFFCURVE",
"439 681 OFFCURVE",
"439 670 CURVE SMOOTH",
"439 653 OFFCURVE",
"436 643 OFFCURVE",
"429 643 CURVE SMOOTH",
"417 643 OFFCURVE",
"350 700 OFFCURVE",
"246 700 CURVE SMOOTH",
"126 700 OFFCURVE",
"41 624 OFFCURVE",
"41 529 CURVE SMOOTH",
"41 413 OFFCURVE",
"152 363 OFFCURVE",
"235 328 CURVE SMOOTH",
"315 294 OFFCURVE",
"422 243 OFFCURVE",
"422 156 CURVE SMOOTH",
"422 65 OFFCURVE",
"367 27 OFFCURVE",
"262 27 CURVE SMOOTH",
"154 27 OFFCURVE",
"47 123 OFFCURVE",
"47 239 CURVE SMOOTH",
"47 249 OFFCURVE",
"40 254 OFFCURVE",
"34 254 CURVE SMOOTH",
"27 254 OFFCURVE",
"20 249 OFFCURVE",
"20 236 CURVE SMOOTH",
"20 234 OFFCURVE",
"20 185 OFFCURVE",
"20 146 CURVE SMOOTH",
"20 96 OFFCURVE",
"20 37 OFFCURVE",
"20 35 CURVE SMOOTH",
"20 24 OFFCURVE",
"26 19 OFFCURVE",
"33 19 CURVE SMOOTH",
"40 19 OFFCURVE",
"47 25 OFFCURVE",
"47 36 CURVE SMOOTH",
"47 52 OFFCURVE",
"50 76 OFFCURVE",
"59 76 CURVE SMOOTH",
"69 76 OFFCURVE",
"130 0 OFFCURVE",
"263 0 CURVE SMOOTH"
);
}
);
width = 507;
}
);
leftKerningGroup = S;
rightKerningGroup = S;
unicode = 0053;
},
{
glyphname = T;
lastChange = "2020-02-23 14:13:10 +0000";
layers = (
{
anchors = (
{
name = bottom;
position = "{348, 0}";
},
{
name = center;
position = "{348, 350}";
},
{
name = top;
position = "{348, 700}";
}
);
layerId = "4FF06481-DC31-47E8-8EFF-C3C3B18F183D";
paths = (
{
closed = 1;
nodes = (
"199 1 OFFCURVE",
"270 1 OFFCURVE",
"348 1 CURVE SMOOTH",
"501 1 LINE SMOOTH",
"531 1 OFFCURVE",
"527 31 OFFCURVE",
"499 28 CURVE SMOOTH",
"447 22 OFFCURVE",
"403 25 OFFCURVE",
"392 68 CURVE SMOOTH",
"384 100 OFFCURVE",
"383 215 OFFCURVE",
"383 341 CURVE SMOOTH",
"383 448 OFFCURVE",
"384 575 OFFCURVE",
"389 631 CURVE SMOOTH",
"390 646 OFFCURVE",
"400 654 OFFCURVE",
"417 654 CURVE SMOOTH",
"523 654 OFFCURVE",
"547 656 OFFCURVE",
"583 632 CURVE SMOOTH",
"629 602 OFFCURVE",
"640 545 OFFCURVE",
"640 496 CURVE SMOOTH",
"640 478 OFFCURVE",
"651 470 OFFCURVE",
"660 470 CURVE SMOOTH",
"668 470 OFFCURVE",
"676 478 OFFCURVE",
"676 494 CURVE SMOOTH",
"676 526 OFFCURVE",
"672 572 OFFCURVE",
"665 644 CURVE SMOOTH",
"662 674 OFFCURVE",
"650 680 OFFCURVE",
"638 680 CURVE SMOOTH",
"634 680 OFFCURVE",
"429 681 OFFCURVE",
"348 681 CURVE SMOOTH",
"58 680 LINE SMOOTH",
"46 680 OFFCURVE",
"34 674 OFFCURVE",
"31 644 CURVE SMOOTH",
"24 572 OFFCURVE",
"20 526 OFFCURVE",
"20 494 CURVE SMOOTH",
"20 478 OFFCURVE",
"28 470 OFFCURVE",
"36 470 CURVE SMOOTH",
"45 470 OFFCURVE",
"56 478 OFFCURVE",
"56 496 CURVE SMOOTH",
"56 545 OFFCURVE",
"67 602 OFFCURVE",
"113 632 CURVE SMOOTH",
"149 656 OFFCURVE",
"179 654 OFFCURVE",
"284 654 CURVE SMOOTH",
"300 654 OFFCURVE",
"310 647 OFFCURVE",
"312 632 CURVE SMOOTH",
"317 576 OFFCURVE",
"313 448 OFFCURVE",
"313 341 CURVE SMOOTH",
"313 215 OFFCURVE",
"312 100 OFFCURVE",
"304 68 CURVE SMOOTH",
"293 25 OFFCURVE",
"249 22 OFFCURVE",
"197 28 CURVE SMOOTH",
"169 31 OFFCURVE",
"165 1 OFFCURVE",
"195 1 CURVE SMOOTH"
);
}
);
width = 696;
}
);
leftKerningGroup = T;
rightKerningGroup = T;
unicode = 0054;
},
{
glyphname = U;
lastChange = "2020-01-30 10:02:31 +0000";
layers = (
{
anchors = (
{
name = bottom;
position = "{408, 0}";
},
{
name = ogonek;
position = "{597, 62}";
},
{
name = top;
position = "{408, 700}";
},
{
name = topright;
position = "{744, 655}";
}
);
layerId = "4FF06481-DC31-47E8-8EFF-C3C3B18F183D";
paths = (
{
closed = 1;
nodes = (
"517 6 OFFCURVE",
"656 63 OFFCURVE",
"656 303 CURVE SMOOTH",
"656 348 OFFCURVE",
"651 556 OFFCURVE",
"665 614 CURVE SMOOTH",
"673 647 OFFCURVE",
"701 656 OFFCURVE",
"737 656 CURVE SMOOTH",
"748 656 OFFCURVE",
"760 655 OFFCURVE",
"772 654 CURVE SMOOTH",
"787 653 OFFCURVE",
"795 660 OFFCURVE",
"795 667 CURVE SMOOTH",
"795 674 OFFCURVE",
"788 681 OFFCURVE",
"774 681 CURVE SMOOTH",
"769 681 OFFCURVE",
"498 681 OFFCURVE",
"498 681 CURVE SMOOTH",
"484 681 OFFCURVE",
"477 674 OFFCURVE",
"477 668 CURVE SMOOTH",
"477 661 OFFCURVE",
"484 654 OFFCURVE",
"496 654 CURVE SMOOTH",
"499 654 OFFCURVE",
"528 656 OFFCURVE",
"535 656 CURVE SMOOTH",
"571 656 OFFCURVE",
"599 647 OFFCURVE",
"607 614 CURVE SMOOTH",
"621 556 OFFCURVE",
"616 330 OFFCURVE",
"616 273 CURVE SMOOTH",
"616 107 OFFCURVE",
"526 38 OFFCURVE",
"417 38 CURVE SMOOTH",
"321 38 OFFCURVE",
"230 122 OFFCURVE",
"230 283 CURVE SMOOTH",
"230 340 OFFCURVE",
"225 556 OFFCURVE",
"239 614 CURVE SMOOTH",
"247 647 OFFCURVE",
"272 656 OFFCURVE",
"308 656 CURVE SMOOTH",
"315 656 OFFCURVE",
"346 654 OFFCURVE",
"349 654 CURVE SMOOTH",
"361 654 OFFCURVE",
"368 661 OFFCURVE",
"368 668 CURVE SMOOTH",
"368 674 OFFCURVE",
"361 681 OFFCURVE",
"347 681 CURVE SMOOTH",
"343 681 OFFCURVE",
"272 681 OFFCURVE",
"194 681 CURVE SMOOTH",
"116 681 OFFCURVE",
"45 681 OFFCURVE",
"41 681 CURVE SMOOTH",
"27 681 OFFCURVE",
"20 674 OFFCURVE",
"20 667 CURVE SMOOTH",
"20 660 OFFCURVE",
"28 653 OFFCURVE",
"43 654 CURVE SMOOTH",
"55 655 OFFCURVE",
"67 656 OFFCURVE",
"78 656 CURVE SMOOTH",
"114 656 OFFCURVE",
"142 647 OFFCURVE",
"150 614 CURVE SMOOTH",
"164 556 OFFCURVE",
"159 332 OFFCURVE",
"159 287 CURVE SMOOTH",
"159 66 OFFCURVE",
"295 6 OFFCURVE",
"419 6 CURVE SMOOTH"
);
}
);
width = 815;
}
);
leftKerningGroup = U;
rightKerningGroup = U;
unicode = 0055;
},
{
glyphname = V;
lastChange = "2020-01-30 10:02:12 +0000";
layers = (
{
anchors = (
{
name = bottom;
position = "{388, 0}";
},
{
name = top;
position = "{388, 700}";
}
);
layerId = "4FF06481-DC31-47E8-8EFF-C3C3B18F183D";
paths = (
{
closed = 1;
nodes = (
"378 0 OFFCURVE",
"406 -9 OFFCURVE",
"417 21 CURVE SMOOTH",
"633 599 LINE SMOOTH",
"651 647 OFFCURVE",
"697 658 OFFCURVE",
"736 652 CURVE SMOOTH",
"760 648 OFFCURVE",
"763 679 OFFCURVE",
"737 679 CURVE SMOOTH",
"499 679 LINE SMOOTH",
"473 679 OFFCURVE",
"476 649 OFFCURVE",
"500 652 CURVE SMOOTH",
"570 661 OFFCURVE",
"600 633 OFFCURVE",
"582 581 CURVE SMOOTH",
"424 134 LINE SMOOTH",
"419 120 OFFCURVE",
"409 120 OFFCURVE",
"404 134 CURVE SMOOTH",
"238 612 LINE SMOOTH",
"225 650 OFFCURVE",
"273 658 OFFCURVE",
"325 652 CURVE SMOOTH",
"353 649 OFFCURVE",
"357 679 OFFCURVE",
"327 679 CURVE SMOOTH",
"194 679 LINE",
"41 679 LINE SMOOTH",
"11 679 OFFCURVE",
"15 649 OFFCURVE",
"43 652 CURVE SMOOTH",
"96 658 OFFCURVE",
"138 653 OFFCURVE",
"156 605 CURVE SMOOTH",
"370 21 LINE SMOOTH"
);
}
);
width = 775;
}
);
leftKerningGroup = V;
rightKerningGroup = V;
unicode = 0056;
},
{
glyphname = W;
lastChange = "2020-01-30 10:01:59 +0000";
layers = (
{
anchors = (
{
name = bottom;
position = "{545, 0}";
},
{
name = top;
position = "{545, 700}";
}
);
layerId = "4FF06481-DC31-47E8-8EFF-C3C3B18F183D";
paths = (
{
closed = 1;
nodes = (
"11 679 OFFCURVE",
"15 649 OFFCURVE",
"43 652 CURVE SMOOTH",
"96 658 OFFCURVE",
"141 653 OFFCURVE",
"156 605 CURVE SMOOTH",
"340 21 LINE SMOOTH",
"347 0 OFFCURVE",
"387 -9 OFFCURVE",
"397 21 CURVE SMOOTH",
"543 475 LINE SMOOTH",
"547 489 OFFCURVE",
"559 488 OFFCURVE",
"563 475 CURVE SMOOTH",
"705 21 LINE SMOOTH",
"712 0 OFFCURVE",
"752 -9 OFFCURVE",
"762 21 CURVE SMOOTH",
"948 599 LINE SMOOTH",
"963 647 OFFCURVE",
"1012 658 OFFCURVE",
"1051 652 CURVE SMOOTH",
"1075 648 OFFCURVE",
"1078 679 OFFCURVE",
"1052 679 CURVE SMOOTH",
"814 679 LINE SMOOTH",
"788 679 OFFCURVE",
"791 649 OFFCURVE",
"815 652 CURVE SMOOTH",
"885 661 OFFCURVE",
"914 633 OFFCURVE",
"897 581 CURVE SMOOTH",
"759 147 LINE SMOOTH",
"755 133 OFFCURVE",
"744 133 OFFCURVE",
"740 147 CURVE SMOOTH",
"607 599 LINE SMOOTH",
"596 637 OFFCURVE",
"648 658 OFFCURVE",
"700 652 CURVE SMOOTH",
"728 649 OFFCURVE",
"732 679 OFFCURVE",
"702 679 CURVE SMOOTH",
"426 679 LINE SMOOTH",
"396 679 OFFCURVE",
"400 649 OFFCURVE",
"428 652 CURVE SMOOTH",
"481 658 OFFCURVE",
"506 653 OFFCURVE",
"521 605 CURVE SMOOTH",
"529 579 OFFCURVE",
"532 576 OFFCURVE",
"528 564 CURVE SMOOTH",
"394 147 LINE SMOOTH",
"390 133 OFFCURVE",
"379 133 OFFCURVE",
"375 147 CURVE SMOOTH",
"238 612 LINE SMOOTH",
"227 650 OFFCURVE",
"273 658 OFFCURVE",
"325 652 CURVE SMOOTH",
"353 649 OFFCURVE",
"357 679 OFFCURVE",
"327 679 CURVE SMOOTH",
"41 679 LINE SMOOTH"
);
}
);
width = 1090;
}
);
leftKerningGroup = W;
rightKerningGroup = W;
unicode = 0057;
},
{
glyphname = X;
lastChange = "2020-01-25 12:32:57 +0000";
layers = (
{
anchors = (
{
name = bottom;
position = "{370, 0}";
},
{
name = top;
position = "{370, 700}";
}
);
layerId = "4FF06481-DC31-47E8-8EFF-C3C3B18F183D";
paths = (
{
closed = 1;
nodes = (
"306 0 LINE SMOOTH",
"332 0 OFFCURVE",
"329 30 OFFCURVE",
"305 27 CURVE SMOOTH",
"235 18 OFFCURVE",
"167 50 OFFCURVE",
"203 98 CURVE SMOOTH",
"343 282 LINE SMOOTH",
"349 291 OFFCURVE",
"358 292 OFFCURVE",
"364 282 CURVE SMOOTH",
"502 67 LINE SMOOTH",
"526 29 OFFCURVE",
"467 21 OFFCURVE",
"415 27 CURVE SMOOTH",
"387 30 OFFCURVE",
"383 0 OFFCURVE",
"413 0 CURVE SMOOTH",
"699 0 LINE SMOOTH",
"729 0 OFFCURVE",
"725 30 OFFCURVE",
"697 27 CURVE SMOOTH",
"644 21 OFFCURVE",
"614 27 OFFCURVE",
"584 74 CURVE SMOOTH",
"408 348 LINE SMOOTH",
"404 355 OFFCURVE",
"404 362 OFFCURVE",
"409 369 CURVE SMOOTH",
"583 599 LINE SMOOTH",
"609 633 OFFCURVE",
"657 658 OFFCURVE",
"696 652 CURVE SMOOTH",
"720 648 OFFCURVE",
"723 679 OFFCURVE",
"697 679 CURVE SMOOTH",
"429 679 LINE SMOOTH",
"403 679 OFFCURVE",
"406 649 OFFCURVE",
"430 652 CURVE SMOOTH",
"500 661 OFFCURVE",
"568 628 OFFCURVE",
"532 581 CURVE SMOOTH",
"395 400 LINE SMOOTH",
"389 391 OFFCURVE",
"380 390 OFFCURVE",
"374 400 CURVE SMOOTH",
"238 612 LINE SMOOTH",
"213 651 OFFCURVE",
"273 658 OFFCURVE",
"325 652 CURVE SMOOTH",
"353 649 OFFCURVE",
"357 679 OFFCURVE",
"327 679 CURVE SMOOTH",
"41 679 LINE SMOOTH",
"11 679 OFFCURVE",
"15 649 OFFCURVE",
"43 652 CURVE SMOOTH",
"96 658 OFFCURVE",
"126 652 OFFCURVE",
"156 605 CURVE SMOOTH",
"330 335 LINE SMOOTH",
"334 328 OFFCURVE",
"334 321 OFFCURVE",
"329 314 CURVE SMOOTH",
"152 80 LINE SMOOTH",
"124 43 OFFCURVE",
"78 21 OFFCURVE",
"39 27 CURVE SMOOTH",
"15 31 OFFCURVE",
"12 0 OFFCURVE",
"38 0 CURVE SMOOTH"
);
}
);
width = 740;
}
);
leftKerningGroup = X;
rightKerningGroup = X;
unicode = 0058;
},
{
glyphname = Y;
lastChange = "2020-01-30 10:01:54 +0000";
layers = (
{
anchors = (
{
name = bottom;
position = "{388, 0}";
},
{
name = top;
position = "{388, 700}";
},
{
name = topleft;
position = "{20, 700}";
}
);
guideLines = (
{
position = "{511, 258}";
}
);
layerId = "4FF06481-DC31-47E8-8EFF-C3C3B18F183D";
paths = (
{
closed = 1;
nodes = (
"11 679 OFFCURVE",
"15 649 OFFCURVE",
"43 652 CURVE SMOOTH",
"96 658 OFFCURVE",
"128 652 OFFCURVE",
"156 605 CURVE SMOOTH",
"353 270 LINE SMOOTH",
"356 264 OFFCURVE",
"358 258 OFFCURVE",
"358 251 CURVE SMOOTH",
"358 156 OFFCURVE",
"356 95 OFFCURVE",
"349 68 CURVE SMOOTH",
"338 25 OFFCURVE",
"294 22 OFFCURVE",
"242 28 CURVE SMOOTH",
"214 31 OFFCURVE",
"210 1 OFFCURVE",
"240 1 CURVE SMOOTH",
"393 1 LINE",
"546 1 LINE SMOOTH",
"576 1 OFFCURVE",
"572 31 OFFCURVE",
"544 28 CURVE SMOOTH",
"492 22 OFFCURVE",
"448 25 OFFCURVE",
"437 68 CURVE SMOOTH",
"430 95 OFFCURVE",
"428 155 OFFCURVE",
"428 248 CURVE SMOOTH",
"428 255 OFFCURVE",
"429 260 OFFCURVE",
"433 267 CURVE SMOOTH",
"633 599 LINE SMOOTH",
"663 648 OFFCURVE",
"697 658 OFFCURVE",
"736 652 CURVE SMOOTH",
"760 648 OFFCURVE",
"763 679 OFFCURVE",
"737 679 CURVE SMOOTH",
"499 679 LINE SMOOTH",
"473 679 OFFCURVE",
"476 649 OFFCURVE",
"500 652 CURVE SMOOTH",
"570 661 OFFCURVE",
"616 636 OFFCURVE",
"582 581 CURVE SMOOTH",
"425 322 LINE SMOOTH",
"419 312 OFFCURVE",
"410 311 OFFCURVE",
"404 322 CURVE SMOOTH",
"238 612 LINE SMOOTH",
"215 652 OFFCURVE",
"273 658 OFFCURVE",
"325 652 CURVE SMOOTH",
"353 649 OFFCURVE",
"357 679 OFFCURVE",
"327 679 CURVE SMOOTH",
"41 679 LINE SMOOTH"
);
}
);
width = 775;
}
);
leftKerningGroup = Y;
rightKerningGroup = Y;
unicode = 0059;
},
{
glyphname = Z;
lastChange = "2020-01-25 12:33:53 +0000";
layers = (
{
anchors = (
{
name = bottom;
position = "{283, 0}";
},
{
name = center;
position = "{283, 350}";
},
{
name = top;
position = "{283, 700}";
}
);
layerId = "4FF06481-DC31-47E8-8EFF-C3C3B18F183D";
paths = (
{
closed = 1;
nodes = (
"498 1 LINE SMOOTH",
"510 1 OFFCURVE",
"522 7 OFFCURVE",
"525 37 CURVE SMOOTH",
"532 109 OFFCURVE",
"536 155 OFFCURVE",
"536 187 CURVE SMOOTH",
"536 203 OFFCURVE",
"528 211 OFFCURVE",
"520 211 CURVE SMOOTH",
"511 211 OFFCURVE",
"500 203 OFFCURVE",
"500 185 CURVE SMOOTH",
"500 136 OFFCURVE",
"489 79 OFFCURVE",
"443 49 CURVE SMOOTH",
"417 32 OFFCURVE",
"395 27 OFFCURVE",
"346 27 CURVE SMOOTH",
"114 27 LINE SMOOTH",
"103 27 OFFCURVE",
"97 34 OFFCURVE",
"103 45 CURVE SMOOTH",
"213 241 OFFCURVE",
"493 504 OFFCURVE",
"542 633 CURVE SMOOTH",
"553 662 OFFCURVE",
"546 681 OFFCURVE",
"511 681 CURVE SMOOTH",
"58 680 LINE SMOOTH",
"46 680 OFFCURVE",
"34 674 OFFCURVE",
"31 644 CURVE SMOOTH",
"24 572 OFFCURVE",
"20 526 OFFCURVE",
"20 494 CURVE SMOOTH",
"20 478 OFFCURVE",
"28 470 OFFCURVE",
"36 470 CURVE SMOOTH",
"45 470 OFFCURVE",
"56 478 OFFCURVE",
"56 496 CURVE SMOOTH",
"56 545 OFFCURVE",
"67 602 OFFCURVE",
"113 632 CURVE SMOOTH",
"139 649 OFFCURVE",
"161 654 OFFCURVE",
"220 654 CURVE SMOOTH",
"445 654 LINE SMOOTH",
"455 654 OFFCURVE",
"463 648 OFFCURVE",
"458 638 CURVE SMOOTH",
"403 529 OFFCURVE",
"52 148 OFFCURVE",
"22 36 CURVE SMOOTH",
"16 13 OFFCURVE",
"26 0 OFFCURVE",
"45 0 CURVE SMOOTH"
);
}
);
width = 566;
}
);
leftKerningGroup = Z;
rightKerningGroup = Z;
unicode = 005A;
},
{
glyphname = bracketleft;
lastChange = "2020-01-29 14:14:41 +0000";
layers = (
{
layerId = "4FF06481-DC31-47E8-8EFF-C3C3B18F183D";
paths = (
{
closed = 1;
nodes = (
"40 -77 OFFCURVE",
"43 -97 OFFCURVE",
"71 -97 CURVE SMOOTH",
"105 -97 OFFCURVE",
"126 -95 OFFCURVE",
"147 -95 CURVE SMOOTH",
"157 -95 OFFCURVE",
"179 -95 OFFCURVE",
"213 -97 CURVE SMOOTH",
"234 -98 OFFCURVE",
"242 -87 OFFCURVE",
"242 -77 CURVE SMOOTH",
"242 -64 OFFCURVE",
"234 -54 OFFCURVE",
"213 -55 CURVE SMOOTH",
"175 -57 OFFCURVE",
"148 -58 OFFCURVE",
"110 -58 CURVE SMOOTH",
"97 -58 OFFCURVE",
"90 -51 OFFCURVE",
"89 -39 CURVE SMOOTH",
"87 32 OFFCURVE",
"85 165 OFFCURVE",
"85 301 CURVE SMOOTH",
"85 435 OFFCURVE",
"87 568 OFFCURVE",
"89 639 CURVE SMOOTH",
"90 651 OFFCURVE",
"97 658 OFFCURVE",
"109 658 CURVE SMOOTH",
"141 659 OFFCURVE",
"176 658 OFFCURVE",
"213 656 CURVE SMOOTH",
"234 655 OFFCURVE",
"242 666 OFFCURVE",
"242 677 CURVE SMOOTH",
"242 687 OFFCURVE",
"235 697 OFFCURVE",
"216 697 CURVE SMOOTH",
"190 697 OFFCURVE",
"163 695 OFFCURVE",
"147 695 CURVE SMOOTH",
"122 695 OFFCURVE",
"97 696 OFFCURVE",
"73 697 CURVE SMOOTH",
"46 699 OFFCURVE",
"40 683 OFFCURVE",
"40 664 CURVE SMOOTH",
"42 608 OFFCURVE",
"44 444 OFFCURVE",
"44 285 CURVE SMOOTH",
"44 136 OFFCURVE",
"42 -8 OFFCURVE",
"40 -63 CURVE SMOOTH"
);
}
);
width = 282;
}
);
unicode = 005B;
},
{
glyphname = yen;
lastChange = "2020-01-27 06:19:57 +0000";
layers = (
{
components = (
{
name = _part.yokosen;
piece = {
nagasa = 5;
};
transform = "{1, 0, 0, 1, 22, -55}";
},
{
name = _part.yokosen;
piece = {
nagasa = 5;
};
transform = "{1, 0, 0, 1, 22, -161}";
}
);
layerId = "4FF06481-DC31-47E8-8EFF-C3C3B18F183D";
paths = (
{
closed = 1;
nodes = (
"11 679 OFFCURVE",
"15 649 OFFCURVE",
"43 652 CURVE SMOOTH",
"96 658 OFFCURVE",
"118 652 OFFCURVE",
"146 605 CURVE SMOOTH",
"333 290 LINE SMOOTH",
"336 284 OFFCURVE",
"338 278 OFFCURVE",
"338 271 CURVE SMOOTH",
"338 176 OFFCURVE",
"336 95 OFFCURVE",
"329 68 CURVE SMOOTH",
"318 25 OFFCURVE",
"284 22 OFFCURVE",
"232 28 CURVE SMOOTH",
"204 31 OFFCURVE",
"200 1 OFFCURVE",
"230 1 CURVE SMOOTH",
"373 1 LINE",
"516 1 LINE SMOOTH",
"546 1 OFFCURVE",
"542 31 OFFCURVE",
"514 28 CURVE SMOOTH",
"462 22 OFFCURVE",
"428 25 OFFCURVE",
"417 68 CURVE SMOOTH",
"410 95 OFFCURVE",
"408 175 OFFCURVE",
"408 268 CURVE SMOOTH",
"408 275 OFFCURVE",
"409 280 OFFCURVE",
"413 287 CURVE SMOOTH",
"603 599 LINE SMOOTH",
"633 648 OFFCURVE",
"657 658 OFFCURVE",
"696 652 CURVE SMOOTH",
"720 648 OFFCURVE",
"723 679 OFFCURVE",
"697 679 CURVE SMOOTH",
"469 679 LINE SMOOTH",
"443 679 OFFCURVE",
"446 649 OFFCURVE",
"470 652 CURVE SMOOTH",
"540 661 OFFCURVE",
"586 636 OFFCURVE",
"552 581 CURVE SMOOTH",
"405 342 LINE SMOOTH",
"399 332 OFFCURVE",
"390 331 OFFCURVE",
"384 342 CURVE SMOOTH",
"228 612 LINE SMOOTH",
"204 653 OFFCURVE",
"263 658 OFFCURVE",
"315 652 CURVE SMOOTH",
"343 649 OFFCURVE",
"347 679 OFFCURVE",
"317 679 CURVE SMOOTH",
"41 679 LINE SMOOTH"
);
}
);
width = 735;
}
);
unicode = 00A5;
},
{
glyphname = asciicircum;
lastChange = "2020-01-22 14:15:59 +0000";
layers = (
{
layerId = "4FF06481-DC31-47E8-8EFF-C3C3B18F183D";
paths = (
{
closed = 1;
nodes = (
"194 544 OFFCURVE",
"226 614 OFFCURVE",
"300 687 CURVE",
"374 614 OFFCURVE",
"406 544 OFFCURVE",
"438 544 CURVE SMOOTH",
"453 544 OFFCURVE",
"458 555 OFFCURVE",
"458 567 CURVE SMOOTH",
"458 589 OFFCURVE",
"405 614 OFFCURVE",
"330 731 CURVE SMOOTH",
"321 745 OFFCURVE",
"314 753 OFFCURVE",
"300 753 CURVE SMOOTH",
"285 753 OFFCURVE",
"278 746 OFFCURVE",
"269 731 CURVE SMOOTH",
"199 618 OFFCURVE",
"142 589 OFFCURVE",
"142 567 CURVE SMOOTH",
"142 555 OFFCURVE",
"151 544 OFFCURVE",
"162 544 CURVE SMOOTH"
);
}
);
width = 600;
}
);
unicode = 005E;
},
{
glyphname = underscore;
lastChange = "2020-01-26 12:49:24 +0000";
layers = (
{
layerId = "4FF06481-DC31-47E8-8EFF-C3C3B18F183D";
paths = (
{
closed = 1;
nodes = (
"88 -93 OFFCURVE",
"153 -91 OFFCURVE",
"229 -91 CURVE SMOOTH",
"305 -91 OFFCURVE",
"371 -94 OFFCURVE",
"413 -96 CURVE SMOOTH",
"430 -97 OFFCURVE",
"438 -85 OFFCURVE",
"438 -73 CURVE SMOOTH",
"438 -61 OFFCURVE",
"430 -49 OFFCURVE",
"413 -50 CURVE SMOOTH",
"371 -52 OFFCURVE",
"305 -54 OFFCURVE",
"229 -54 CURVE SMOOTH",
"153 -54 OFFCURVE",
"88 -53 OFFCURVE",
"45 -50 CURVE SMOOTH",
"29 -49 OFFCURVE",
"20 -61 OFFCURVE",
"20 -73 CURVE SMOOTH",
"20 -85 OFFCURVE",
"29 -97 OFFCURVE",
"45 -96 CURVE SMOOTH"
);
}
);
width = 458;
}
);
unicode = 005F;
},
{
glyphname = a;
lastChange = "2020-02-23 14:13:51 +0000";
layers = (
{
anchors = (
{
name = bottom;
position = "{206, 0}";
},
{
name = ogonek;
position = "{429, 33}";
},
{
name = top;
position = "{186, 380}";
}
);
layerId = "4FF06481-DC31-47E8-8EFF-C3C3B18F183D";
paths = (
{
closed = 1;
nodes = (
"174 -1 OFFCURVE",
"208 12 OFFCURVE",
"238 33 CURVE SMOOTH",
"248 40 OFFCURVE",
"254 38 OFFCURVE",
"260 30 CURVE SMOOTH",
"273 7 OFFCURVE",
"298 0 OFFCURVE",
"321 0 CURVE SMOOTH",
"345 0 OFFCURVE",
"381 9 OFFCURVE",
"381 26 CURVE SMOOTH",
"381 32 OFFCURVE",
"376 37 OFFCURVE",
"370 37 CURVE SMOOTH",
"366 37 OFFCURVE",
"348 26 OFFCURVE",
"343 26 CURVE SMOOTH",
"328 26 OFFCURVE",
"318 43 OFFCURVE",
"318 88 CURVE SMOOTH",
"318 269 LINE SMOOTH",
"318 344 OFFCURVE",
"256 380 OFFCURVE",
"184 380 CURVE SMOOTH",
"111 380 OFFCURVE",
"40 333 OFFCURVE",
"40 282 CURVE SMOOTH",
"40 254 OFFCURVE",
"59 243 OFFCURVE",
"74 243 CURVE SMOOTH",
"93 243 OFFCURVE",
"109 255 OFFCURVE",
"109 284 CURVE SMOOTH",
"109 323 OFFCURVE",
"134 353 OFFCURVE",
"180 353 CURVE SMOOTH",
"219 353 OFFCURVE",
"248 325 OFFCURVE",
"248 274 CURVE SMOOTH",
"248 223 LINE SMOOTH",
"248 214 OFFCURVE",
"243 208 OFFCURVE",
"234 207 CURVE SMOOTH",
"165 202 OFFCURVE",
"24 177 OFFCURVE",
"20 89 CURVE SMOOTH",
"17 18 OFFCURVE",
"69 -1 OFFCURVE",
"143 -1 CURVE SMOOTH"
);
},
{
closed = 1;
nodes = (
"215 10 OFFCURVE",
"78 14 OFFCURVE",
"89 102 CURVE SMOOTH",
"97 167 OFFCURVE",
"177 178 OFFCURVE",
"233 180 CURVE SMOOTH",
"243 180 OFFCURVE",
"248 175 OFFCURVE",
"248 165 CURVE SMOOTH",
"249 134 OFFCURVE",
"251 99 OFFCURVE",
"242 78 CURVE SMOOTH"
);
}
);
width = 391;
}
);
leftKerningGroup = a;
rightKerningGroup = a;
unicode = 0061;
},
{
glyphname = b;
lastChange = "2020-01-30 09:43:36 +0000";
layers = (
{
anchors = (
{
name = bottom;
position = "{216, 0}";
},
{
name = top;
position = "{216, 880}";
}
);
layerId = "4FF06481-DC31-47E8-8EFF-C3C3B18F183D";
paths = (
{
closed = 1;
nodes = (
"316 0 OFFCURVE",
"412 73 OFFCURVE",
"412 189 CURVE SMOOTH",
"412 319 OFFCURVE",
"327 380 OFFCURVE",
"255 380 CURVE SMOOTH",
"219 380 OFFCURVE",
"182 361 OFFCURVE",
"152 335 CURVE SMOOTH",
"142 327 OFFCURVE",
"134 330 OFFCURVE",
"134 344 CURVE SMOOTH",
"135 508 OFFCURVE",
"143 670 OFFCURVE",
"143 697 CURVE SMOOTH",
"143 705 OFFCURVE",
"137 709 OFFCURVE",
"129 709 CURVE SMOOTH",
"111 709 OFFCURVE",
"79 671 OFFCURVE",
"31 661 CURVE SMOOTH",
"17 658 OFFCURVE",
"10 651 OFFCURVE",
"10 646 CURVE SMOOTH",
"10 640 OFFCURVE",
"17 635 OFFCURVE",
"31 635 CURVE SMOOTH",
"58 635 OFFCURVE",
"67 607 OFFCURVE",
"67 575 CURVE SMOOTH",
"67 541 OFFCURVE",
"73 452 OFFCURVE",
"73 235 CURVE SMOOTH",
"73 109 OFFCURVE",
"71 66 OFFCURVE",
"61 37 CURVE SMOOTH",
"57 25 OFFCURVE",
"51 19 OFFCURVE",
"51 13 CURVE SMOOTH",
"51 6 OFFCURVE",
"58 -1 OFFCURVE",
"72 4 CURVE SMOOTH",
"113 19 OFFCURVE",
"129 0 OFFCURVE",
"208 0 CURVE SMOOTH"
);
},
{
closed = 1;
nodes = (
"165 31 OFFCURVE",
"137 52 OFFCURVE",
"137 87 CURVE SMOOTH",
"137 134 OFFCURVE",
"134 171 OFFCURVE",
"134 211 CURVE SMOOTH",
"134 292 OFFCURVE",
"188 334 OFFCURVE",
"226 334 CURVE SMOOTH",
"278 334 OFFCURVE",
"334 278 OFFCURVE",
"334 190 CURVE SMOOTH",
"334 81 OFFCURVE",
"282 31 OFFCURVE",
"222 31 CURVE SMOOTH"
);
}
);
width = 432;
}
);
leftKerningGroup = b;
rightKerningGroup = b;
unicode = 0062;
},
{
glyphname = c;
lastChange = "2020-02-23 14:15:38 +0000";
layers = (
{
anchors = (
{
name = bottom;
position = "{188, 0}";
},
{
name = top;
position = "{188, 380}";
}
);
layerId = "4FF06481-DC31-47E8-8EFF-C3C3B18F183D";
paths = (
{
closed = 1;
nodes = (
"265 0 OFFCURVE",
"325 41 OFFCURVE",
"353 100 CURVE SMOOTH",
"362 119 OFFCURVE",
"341 129 OFFCURVE",
"331 111 CURVE SMOOTH",
"301 60 OFFCURVE",
"263 36 OFFCURVE",
"211 36 CURVE SMOOTH",
"157 36 OFFCURVE",
"98 91 OFFCURVE",
"98 190 CURVE SMOOTH",
"98 288 OFFCURVE",
"147 354 OFFCURVE",
"201 354 CURVE SMOOTH",
"265 354 OFFCURVE",
"295 316 OFFCURVE",
"298 266 CURVE SMOOTH",
"301 207 OFFCURVE",
"381 230 OFFCURVE",
"348 306 CURVE SMOOTH",
"335 336 OFFCURVE",
"289 380 OFFCURVE",
"201 380 CURVE SMOOTH",
"120 380 OFFCURVE",
"20 319 OFFCURVE",
"20 189 CURVE SMOOTH",
"20 60 OFFCURVE",
"120 0 OFFCURVE",
"201 0 CURVE SMOOTH"
);
}
);
width = 376;
}
);
leftKerningGroup = c;
rightKerningGroup = c;
unicode = 0063;
},
{
glyphname = d;
lastChange = "2020-01-30 09:43:43 +0000";
layers = (
{
anchors = (
{
name = bottom;
position = "{223, 0}";
},
{
name = center;
position = "{223, 190}";
},
{
name = top;
position = "{328, 701}";
},
{
name = topright;
position = "{426, 380}";
}
);
layerId = "4FF06481-DC31-47E8-8EFF-C3C3B18F183D";
paths = (
{
closed = 1;
nodes = (
"239 0 OFFCURVE",
"273 8 OFFCURVE",
"301 25 CURVE SMOOTH",
"308 30 OFFCURVE",
"313 28 OFFCURVE",
"318 19 CURVE SMOOTH",
"326 6 OFFCURVE",
"337 0 OFFCURVE",
"348 0 CURVE SMOOTH",
"364 0 OFFCURVE",
"381 22 OFFCURVE",
"417 31 CURVE SMOOTH",
"442 37 OFFCURVE",
"443 66 OFFCURVE",
"414 58 CURVE SMOOTH",
"399 54 OFFCURVE",
"389 51 OFFCURVE",
"381 64 CURVE SMOOTH",
"365 90 OFFCURVE",
"367 212 OFFCURVE",
"367 341 CURVE SMOOTH",
"367 570 OFFCURVE",
"381 663 OFFCURVE",
"381 695 CURVE SMOOTH",
"381 707 OFFCURVE",
"368 711 OFFCURVE",
"353 702 CURVE SMOOTH",
"334 691 OFFCURVE",
"303 670 OFFCURVE",
"269 659 CURVE SMOOTH",
"241 650 OFFCURVE",
"241 633 OFFCURVE",
"269 633 CURVE SMOOTH",
"296 633 OFFCURVE",
"305 605 OFFCURVE",
"305 573 CURVE SMOOTH",
"307 377 LINE SMOOTH",
"307 366 OFFCURVE",
"300 362 OFFCURVE",
"290 366 CURVE SMOOTH",
"266 377 OFFCURVE",
"235 383 OFFCURVE",
"192 377 CURVE SMOOTH",
"111 367 OFFCURVE",
"20 299 OFFCURVE",
"20 179 CURVE SMOOTH",
"20 37 OFFCURVE",
"121 0 OFFCURVE",
"202 0 CURVE SMOOTH"
);
},
{
closed = 1;
nodes = (
"162 26 OFFCURVE",
"96 82 OFFCURVE",
"96 190 CURVE SMOOTH",
"96 294 OFFCURVE",
"157 344 OFFCURVE",
"200 351 CURVE SMOOTH",
"252 360 OFFCURVE",
"307 321 OFFCURVE",
"307 258 CURVE SMOOTH",
"307 175 OFFCURVE",
"305 164 OFFCURVE",
"305 114 CURVE SMOOTH",
"305 71 OFFCURVE",
"266 26 OFFCURVE",
"215 26 CURVE SMOOTH"
);
}
);
width = 446;
}
);
leftKerningGroup = d;
rightKerningGroup = d;
unicode = 0064;
},
{
glyphname = e;
lastChange = "2020-02-23 14:13:58 +0000";
layers = (
{
anchors = (
{
name = bottom;
position = "{195, 0}";
},
{
name = ogonek;
position = "{343, 32}";
},
{
name = top;
position = "{201, 380}";
}
);
layerId = "4FF06481-DC31-47E8-8EFF-C3C3B18F183D";
paths = (
{
closed = 1;
nodes = (
"20 60 OFFCURVE",
"115 0 OFFCURVE",
"206 0 CURVE SMOOTH",
"279 0 OFFCURVE",
"319 31 OFFCURVE",
"354 81 CURVE SMOOTH",
"372 106 OFFCURVE",
"348 123 OFFCURVE",
"334 99 CURVE SMOOTH",
"318 71 OFFCURVE",
"277 36 OFFCURVE",
"216 36 CURVE SMOOTH",
"136 36 OFFCURVE",
"93 115 OFFCURVE",
"93 201 CURVE SMOOTH",
"93 210 OFFCURVE",
"99 215 OFFCURVE",
"108 215 CURVE SMOOTH",
"321 214 LINE SMOOTH",
"336 214 OFFCURVE",
"352 231 OFFCURVE",
"350 265 CURVE SMOOTH",
"346 338 OFFCURVE",
"279 380 OFFCURVE",
"201 380 CURVE SMOOTH",
"120 380 OFFCURVE",
"20 319 OFFCURVE",
"20 189 CURVE SMOOTH"
);
},
{
closed = 1;
nodes = (
"119 322 OFFCURVE",
"157 354 OFFCURVE",
"201 354 CURVE SMOOTH",
"248 354 OFFCURVE",
"279 319 OFFCURVE",
"279 270 CURVE SMOOTH",
"279 258 OFFCURVE",
"279 240 OFFCURVE",
"251 240 CURVE SMOOTH",
"114 239 LINE SMOOTH",
"104 239 OFFCURVE",
"98 245 OFFCURVE",
"101 256 CURVE SMOOTH"
);
}
);
width = 380;
}
);
leftKerningGroup = e;
rightKerningGroup = e;
unicode = 0065;
},
{
glyphname = f;
lastChange = "2020-01-25 12:37:46 +0000";
layers = (
{
anchors = (
{
name = bottom;
position = "{158, 0}";
},
{
name = top;
position = "{158, 880}";
}
);
layerId = "4FF06481-DC31-47E8-8EFF-C3C3B18F183D";
paths = (
{
closed = 1;
nodes = (
"10 8 OFFCURVE",
"17 1 OFFCURVE",
"31 1 CURVE SMOOTH",
"144 1 LINE",
"257 1 LINE SMOOTH",
"271 1 OFFCURVE",
"278 8 OFFCURVE",
"278 15 CURVE SMOOTH",
"278 21 OFFCURVE",
"271 28 OFFCURVE",
"260 28 CURVE SMOOTH",
"255 28 LINE SMOOTH",
"245 28 OFFCURVE",
"237 26 OFFCURVE",
"230 26 CURVE SMOOTH",
"207 26 OFFCURVE",
"196 35 OFFCURVE",
"188 68 CURVE SMOOTH",
"180 100 OFFCURVE",
"179 215 OFFCURVE",
"179 341 CURVE SMOOTH",
"179 345 OFFCURVE",
"184 347 OFFCURVE",
"194 347 CURVE SMOOTH",
"226 347 OFFCURVE",
"255 346 OFFCURVE",
"276 344 CURVE SMOOTH",
"288 343 OFFCURVE",
"294 353 OFFCURVE",
"294 362 CURVE SMOOTH",
"294 371 OFFCURVE",
"289 380 OFFCURVE",
"276 380 CURVE SMOOTH",
"260 380 OFFCURVE",
"229 378 OFFCURVE",
"194 378 CURVE SMOOTH",
"184 378 OFFCURVE",
"179 384 OFFCURVE",
"179 393 CURVE SMOOTH",
"179 456 LINE SMOOTH",
"179 603 OFFCURVE",
"188 673 OFFCURVE",
"235 680 CURVE SMOOTH",
"293 689 OFFCURVE",
"279 630 OFFCURVE",
"305 618 CURVE SMOOTH",
"322 610 OFFCURVE",
"351 618 OFFCURVE",
"351 651 CURVE SMOOTH",
"351 678 OFFCURVE",
"314 714 OFFCURVE",
"254 709 CURVE SMOOTH",
"138 699 OFFCURVE",
"109 602 OFFCURVE",
"109 450 CURVE SMOOTH",
"109 393 LINE SMOOTH",
"109 384 OFFCURVE",
"103 379 OFFCURVE",
"94 379 CURVE SMOOTH",
"54 380 LINE SMOOTH",
"41 381 OFFCURVE",
"34 371 OFFCURVE",
"34 362 CURVE SMOOTH",
"34 352 OFFCURVE",
"41 343 OFFCURVE",
"53 344 CURVE SMOOTH",
"63 345 OFFCURVE",
"77 346 OFFCURVE",
"94 346 CURVE SMOOTH",
"104 346 OFFCURVE",
"109 341 OFFCURVE",
"109 331 CURVE SMOOTH",
"108 216 OFFCURVE",
"106 91 OFFCURVE",
"100 68 CURVE SMOOTH",
"92 35 OFFCURVE",
"81 26 OFFCURVE",
"58 26 CURVE SMOOTH",
"51 26 OFFCURVE",
"43 27 OFFCURVE",
"33 28 CURVE SMOOTH",
"18 30 OFFCURVE",
"10 23 OFFCURVE",
"10 15 CURVE SMOOTH"
);
}
);
width = 316;
}
);
leftKerningGroup = f;
rightKerningGroup = f;
unicode = 0066;
},
{
glyphname = g;
lastChange = "2020-01-30 12:33:00 +0000";
layers = (
{
anchors = (
{
name = bottom;
position = "{185, -100}";
},
{
name = top;
position = "{175, 380}";
}
);
layerId = "4FF06481-DC31-47E8-8EFF-C3C3B18F183D";
paths = (
{
closed = 1;
nodes = (
"-10 -129 OFFCURVE",
"44 -183 OFFCURVE",
"142 -183 CURVE SMOOTH",
"256 -183 OFFCURVE",
"363 -122 OFFCURVE",
"366 -31 CURVE SMOOTH",
"370 71 OFFCURVE",
"279 87 OFFCURVE",
"179 87 CURVE SMOOTH",
"109 87 OFFCURVE",
"88 91 OFFCURVE",
"82 116 CURVE SMOOTH",
"81 120 OFFCURVE",
"87 138 OFFCURVE",
"97 145 CURVE SMOOTH",
"104 150 OFFCURVE",
"110 149 OFFCURVE",
"117 146 CURVE SMOOTH",
"131 140 OFFCURVE",
"147 140 OFFCURVE",
"171 140 CURVE SMOOTH",
"243 140 OFFCURVE",
"310 177 OFFCURVE",
"310 257 CURVE SMOOTH",
"310 281 OFFCURVE",
"304 301 OFFCURVE",
"295 318 CURVE SMOOTH",
"290 328 OFFCURVE",
"292 336 OFFCURVE",
"303 338 CURVE SMOOTH",
"320 341 OFFCURVE",
"339 340 OFFCURVE",
"356 340 CURVE SMOOTH",
"373 340 OFFCURVE",
"366 373 OFFCURVE",
"340 379 CURVE SMOOTH",
"323 383 OFFCURVE",
"296 373 OFFCURVE",
"275 360 CURVE SMOOTH",
"267 355 OFFCURVE",
"261 356 OFFCURVE",
"253 360 CURVE SMOOTH",
"231 371 OFFCURVE",
"206 379 OFFCURVE",
"171 379 CURVE SMOOTH",
"99 379 OFFCURVE",
"32 340 OFFCURVE",
"32 257 CURVE SMOOTH",
"32 218 OFFCURVE",
"49 190 OFFCURVE",
"72 170 CURVE SMOOTH",
"80 163 OFFCURVE",
"80 156 OFFCURVE",
"72 149 CURVE SMOOTH",
"54 133 OFFCURVE",
"32 108 OFFCURVE",
"30 99 CURVE SMOOTH",
"25 77 OFFCURVE",
"39 55 OFFCURVE",
"59 40 CURVE SMOOTH",
"68 33 OFFCURVE",
"69 28 OFFCURVE",
"59 22 CURVE SMOOTH",
"27 3 OFFCURVE",
"1 -21 OFFCURVE",
"-2 -50 CURVE SMOOTH"
);
},
{
closed = 1;
nodes = (
"95 315 OFFCURVE",
"122 354 OFFCURVE",
"171 354 CURVE SMOOTH",
"220 354 OFFCURVE",
"247 315 OFFCURVE",
"247 259 CURVE SMOOTH",
"247 204 OFFCURVE",
"220 166 OFFCURVE",
"171 166 CURVE SMOOTH",
"122 166 OFFCURVE",
"95 204 OFFCURVE",
"95 259 CURVE SMOOTH"
);
},
{
closed = 1;
nodes = (
"226 22 OFFCURVE",
"296 27 OFFCURVE",
"302 -42 CURVE SMOOTH",
"309 -117 OFFCURVE",
"251 -155 OFFCURVE",
"180 -155 CURVE SMOOTH",
"56 -155 OFFCURVE",
"15 -26 OFFCURVE",
"103 18 CURVE SMOOTH",
"109 21 OFFCURVE",
"115 22 OFFCURVE",
"122 22 CURVE SMOOTH"
);
}
);
width = 379;
}
);
leftKerningGroup = g;
rightKerningGroup = g;
unicode = 0067;
},
{
glyphname = h;
lastChange = "2020-02-23 14:15:44 +0000";
layers = (
{
anchors = (
{
name = bottom;
position = "{237, 0}";
},
{
name = center;
position = "{237, 440}";
},
{
name = top;
position = "{116, 709}";
}
);
layerId = "4FF06481-DC31-47E8-8EFF-C3C3B18F183D";
paths = (
{
closed = 1;
nodes = (
"55 1 OFFCURVE",
"66 1 OFFCURVE",
"111 1 CURVE SMOOTH",
"194 1 LINE SMOOTH",
"224 1 OFFCURVE",
"220 33 OFFCURVE",
"192 28 CURVE SMOOTH",
"132 17 OFFCURVE",
"146 89 OFFCURVE",
"146 196 CURVE SMOOTH",
"146 290 OFFCURVE",
"192 334 OFFCURVE",
"232 334 CURVE SMOOTH",
"276 334 OFFCURVE",
"324 278 OFFCURVE",
"324 190 CURVE SMOOTH",
"324 102 OFFCURVE",
"331 19 OFFCURVE",
"278 28 CURVE SMOOTH",
"250 33 OFFCURVE",
"246 1 OFFCURVE",
"276 1 CURVE SMOOTH",
"300 1 OFFCURVE",
"311 1 OFFCURVE",
"359 1 CURVE SMOOTH",
"442 1 LINE SMOOTH",
"472 1 OFFCURVE",
"468 33 OFFCURVE",
"440 28 CURVE SMOOTH",
"380 17 OFFCURVE",
"394 89 OFFCURVE",
"394 196 CURVE SMOOTH",
"394 326 OFFCURVE",
"319 380 OFFCURVE",
"257 380 CURVE SMOOTH",
"221 380 OFFCURVE",
"191 362 OFFCURVE",
"164 336 CURVE SMOOTH",
"155 327 OFFCURVE",
"146 331 OFFCURVE",
"146 344 CURVE SMOOTH",
"147 509 OFFCURVE",
"155 670 OFFCURVE",
"155 697 CURVE SMOOTH",
"155 705 OFFCURVE",
"149 709 OFFCURVE",
"141 709 CURVE SMOOTH",
"123 709 OFFCURVE",
"91 671 OFFCURVE",
"43 661 CURVE SMOOTH",
"29 658 OFFCURVE",
"22 651 OFFCURVE",
"22 646 CURVE SMOOTH",
"22 640 OFFCURVE",
"29 635 OFFCURVE",
"43 635 CURVE SMOOTH",
"70 635 OFFCURVE",
"79 607 OFFCURVE",
"79 575 CURVE SMOOTH",
"79 541 OFFCURVE",
"85 452 OFFCURVE",
"85 235 CURVE SMOOTH",
"85 194 OFFCURVE",
"84 134 OFFCURVE",
"79 89 CURVE SMOOTH",
"74 50 OFFCURVE",
"62 23 OFFCURVE",
"33 28 CURVE SMOOTH",
"5 33 OFFCURVE",
"1 1 OFFCURVE",
"31 1 CURVE SMOOTH"
);
}
);
width = 473;
}
);
leftKerningGroup = h;
rightKerningGroup = h;
unicode = 0068;
},
{
glyphname = i;
lastChange = "2020-01-30 11:12:00 +0000";
layers = (
{
anchors = (
{
name = bottom;
position = "{113, 0}";
}
);
layerId = "4FF06481-DC31-47E8-8EFF-C3C3B18F183D";
paths = (
{
closed = 1;
nodes = (
"55 1 OFFCURVE",
"66 1 OFFCURVE",
"111 1 CURVE SMOOTH",
"159 1 OFFCURVE",
"170 1 OFFCURVE",
"194 1 CURVE SMOOTH",
"224 1 OFFCURVE",
"220 33 OFFCURVE",
"192 28 CURVE SMOOTH",
"163 23 OFFCURVE",
"151 34 OFFCURVE",
"146 60 CURVE SMOOTH",
"140 100 OFFCURVE",
"139 167 OFFCURVE",
"143 259 CURVE SMOOTH",
"145 307 OFFCURVE",
"149 353 OFFCURVE",
"149 368 CURVE SMOOTH",
"149 376 OFFCURVE",
"143 380 OFFCURVE",
"135 380 CURVE SMOOTH",
"117 380 OFFCURVE",
"89 344 OFFCURVE",
"41 332 CURVE SMOOTH",
"27 329 OFFCURVE",
"20 322 OFFCURVE",
"20 317 CURVE SMOOTH",
"20 311 OFFCURVE",
"27 306 OFFCURVE",
"41 306 CURVE SMOOTH",
"68 306 OFFCURVE",
"77 278 OFFCURVE",
"77 246 CURVE SMOOTH",
"77 168 OFFCURVE",
"84 101 OFFCURVE",
"73 60 CURVE SMOOTH",
"67 38 OFFCURVE",
"54 24 OFFCURVE",
"33 28 CURVE SMOOTH",
"5 33 OFFCURVE",
"1 1 OFFCURVE",
"31 1 CURVE SMOOTH"
);
},
{
closed = 1;
nodes = (
"135 446 OFFCURVE",
"160 471 OFFCURVE",
"160 502 CURVE SMOOTH",
"160 534 OFFCURVE",
"135 559 OFFCURVE",
"104 559 CURVE SMOOTH",
"73 559 OFFCURVE",
"48 534 OFFCURVE",
"48 502 CURVE SMOOTH",
"48 471 OFFCURVE",
"73 446 OFFCURVE",
"104 446 CURVE SMOOTH"
);
}
);
width = 225;
}
);
leftKerningGroup = i;
rightKerningGroup = i;
unicode = 0069;
},
{
glyphname = j;
lastChange = "2020-01-30 09:06:14 +0000";
layers = (
{
components = (
{
name = _part.dotlessj;
}
);
layerId = "4FF06481-DC31-47E8-8EFF-C3C3B18F183D";
paths = (
{
closed = 1;
nodes = (
"137 446 OFFCURVE",
"162 471 OFFCURVE",
"162 502 CURVE SMOOTH",
"162 534 OFFCURVE",
"137 559 OFFCURVE",
"106 559 CURVE SMOOTH",
"75 559 OFFCURVE",
"50 534 OFFCURVE",
"50 502 CURVE SMOOTH",
"50 471 OFFCURVE",
"75 446 OFFCURVE",
"106 446 CURVE SMOOTH"
);
}
);
width = 182;
}
);
leftKerningGroup = j;
rightKerningGroup = j;
unicode = 006A;
},
{
glyphname = k;
lastChange = "2020-01-25 12:39:25 +0000";
layers = (
{
anchors = (
{
name = bottom;
position = "{227, 0}";
},
{
name = top;
position = "{227, 880}";
}
);
layerId = "4FF06481-DC31-47E8-8EFF-C3C3B18F183D";
paths = (
{
closed = 1;
nodes = (
"22 640 OFFCURVE",
"29 635 OFFCURVE",
"43 635 CURVE SMOOTH",
"70 635 OFFCURVE",
"79 607 OFFCURVE",
"79 575 CURVE SMOOTH",
"79 541 OFFCURVE",
"85 452 OFFCURVE",
"85 235 CURVE SMOOTH",
"85 194 OFFCURVE",
"84 134 OFFCURVE",
"79 89 CURVE SMOOTH",
"74 50 OFFCURVE",
"62 23 OFFCURVE",
"33 28 CURVE SMOOTH",
"5 33 OFFCURVE",
"1 1 OFFCURVE",
"31 1 CURVE SMOOTH",
"111 1 LINE",
"194 1 LINE SMOOTH",
"224 1 OFFCURVE",
"220 33 OFFCURVE",
"192 28 CURVE SMOOTH",
"142 18 OFFCURVE",
"144 74 OFFCURVE",
"145 153 CURVE SMOOTH",
"145 162 OFFCURVE",
"148 167 OFFCURVE",
"154 172 CURVE SMOOTH",
"169 185 LINE SMOOTH",
"176 191 OFFCURVE",
"184 190 OFFCURVE",
"191 182 CURVE SMOOTH",
"318 34 OFFCURVE",
"309 19 OFFCURVE",
"258 28 CURVE SMOOTH",
"230 33 OFFCURVE",
"226 1 OFFCURVE",
"256 1 CURVE SMOOTH",
"339 1 LINE",
"422 1 LINE SMOOTH",
"452 1 OFFCURVE",
"448 29 OFFCURVE",
"420 28 CURVE SMOOTH",
"374 26 OFFCURVE",
"305 138 OFFCURVE",
"231 220 CURVE SMOOTH",
"225 227 OFFCURVE",
"225 235 OFFCURVE",
"232 241 CURVE SMOOTH",
"294 299 OFFCURVE",
"351 352 OFFCURVE",
"384 351 CURVE SMOOTH",
"412 350 OFFCURVE",
"416 378 OFFCURVE",
"386 378 CURVE SMOOTH",
"323 378 LINE",
"250 378 LINE SMOOTH",
"220 378 OFFCURVE",
"224 346 OFFCURVE",
"252 351 CURVE SMOOTH",
"301 360 OFFCURVE",
"307 350 OFFCURVE",
"167 229 CURVE SMOOTH",
"156 220 OFFCURVE",
"146 223 OFFCURVE",
"146 236 CURVE SMOOTH",
"146 351 LINE SMOOTH",
"146 491 OFFCURVE",
"155 665 OFFCURVE",
"155 697 CURVE SMOOTH",
"155 705 OFFCURVE",
"149 709 OFFCURVE",
"141 709 CURVE SMOOTH",
"123 709 OFFCURVE",
"91 671 OFFCURVE",
"43 661 CURVE SMOOTH",
"29 658 OFFCURVE",
"22 651 OFFCURVE",
"22 646 CURVE SMOOTH"
);
}
);
width = 453;
}
);
leftKerningGroup = k;
rightKerningGroup = k;
unicode = 006B;
},
{
glyphname = l;
lastChange = "2020-01-30 10:07:09 +0000";
layers = (
{
anchors = (
{
name = bottom;
position = "{113, 0}";
},
{
name = center;
position = "{113, 351}";
},
{
name = top;
position = "{103, 700}";
},
{
name = topright;
position = "{205, 700}";
}
);
layerId = "4FF06481-DC31-47E8-8EFF-C3C3B18F183D";
paths = (
{
closed = 1;
nodes = (
"55 1 OFFCURVE",
"66 1 OFFCURVE",
"111 1 CURVE SMOOTH",
"159 1 OFFCURVE",
"170 1 OFFCURVE",
"194 1 CURVE SMOOTH",
"224 1 OFFCURVE",
"220 33 OFFCURVE",
"192 28 CURVE SMOOTH",
"132 17 OFFCURVE",
"146 99 OFFCURVE",
"146 206 CURVE SMOOTH",
"146 351 LINE SMOOTH",
"146 491 OFFCURVE",
"155 665 OFFCURVE",
"155 697 CURVE SMOOTH",
"155 705 OFFCURVE",
"149 709 OFFCURVE",
"141 709 CURVE SMOOTH",
"123 709 OFFCURVE",
"91 671 OFFCURVE",
"43 661 CURVE SMOOTH",
"29 658 OFFCURVE",
"22 651 OFFCURVE",
"22 646 CURVE SMOOTH",
"22 640 OFFCURVE",
"29 635 OFFCURVE",
"43 635 CURVE SMOOTH",
"70 635 OFFCURVE",
"79 607 OFFCURVE",
"79 575 CURVE SMOOTH",
"79 541 OFFCURVE",
"85 452 OFFCURVE",
"85 235 CURVE SMOOTH",
"85 194 OFFCURVE",
"84 134 OFFCURVE",
"79 89 CURVE SMOOTH",
"74 50 OFFCURVE",
"62 23 OFFCURVE",
"33 28 CURVE SMOOTH",
"5 33 OFFCURVE",
"1 1 OFFCURVE",
"31 1 CURVE SMOOTH"
);
}
);
width = 225;
}
);
leftKerningGroup = l;
rightKerningGroup = l;
unicode = 006C;
},
{
glyphname = m;
lastChange = "2020-02-23 14:14:55 +0000";
layers = (
{
anchors = (
{
name = bottom;
position = "{353, 0}";
},
{
name = top;
position = "{353, 380}";
}
);
layerId = "4FF06481-DC31-47E8-8EFF-C3C3B18F183D";
paths = (
{
closed = 1;
nodes = (
"20 311 OFFCURVE",
"27 306 OFFCURVE",
"41 306 CURVE SMOOTH",
"68 306 OFFCURVE",
"77 278 OFFCURVE",
"77 246 CURVE SMOOTH",
"77 168 OFFCURVE",
"84 101 OFFCURVE",
"73 60 CURVE SMOOTH",
"67 38 OFFCURVE",
"54 24 OFFCURVE",
"33 28 CURVE SMOOTH",
"5 33 OFFCURVE",
"1 1 OFFCURVE",
"31 1 CURVE SMOOTH",
"194 1 LINE SMOOTH",
"224 1 OFFCURVE",
"220 33 OFFCURVE",
"192 28 CURVE SMOOTH",
"163 23 OFFCURVE",
"151 34 OFFCURVE",
"146 60 CURVE SMOOTH",
"141 96 OFFCURVE",
"139 153 OFFCURVE",
"142 230 CURVE SMOOTH",
"142 267 OFFCURVE",
"175 334 OFFCURVE",
"222 334 CURVE SMOOTH",
"266 334 OFFCURVE",
"314 278 OFFCURVE",
"314 190 CURVE SMOOTH",
"314 102 OFFCURVE",
"321 19 OFFCURVE",
"268 28 CURVE SMOOTH",
"240 33 OFFCURVE",
"236 1 OFFCURVE",
"266 1 CURVE SMOOTH",
"432 1 LINE SMOOTH",
"462 1 OFFCURVE",
"458 33 OFFCURVE",
"430 28 CURVE SMOOTH",
"370 17 OFFCURVE",
"384 89 OFFCURVE",
"384 196 CURVE SMOOTH",
"384 257 OFFCURVE",
"407 334 OFFCURVE",
"465 334 CURVE SMOOTH",
"509 334 OFFCURVE",
"557 278 OFFCURVE",
"557 190 CURVE SMOOTH",
"557 102 OFFCURVE",
"564 19 OFFCURVE",
"511 28 CURVE SMOOTH",
"483 33 OFFCURVE",
"479 1 OFFCURVE",
"509 1 CURVE SMOOTH",
"675 1 LINE SMOOTH",
"705 1 OFFCURVE",
"701 33 OFFCURVE",
"673 28 CURVE SMOOTH",
"613 17 OFFCURVE",
"627 89 OFFCURVE",
"627 196 CURVE SMOOTH",
"627 326 OFFCURVE",
"552 380 OFFCURVE",
"490 380 CURVE SMOOTH",
"439 380 OFFCURVE",
"389 336 OFFCURVE",
"371 307 CURVE SMOOTH",
"367 301 OFFCURVE",
"363 301 OFFCURVE",
"359 308 CURVE SMOOTH",
"331 357 OFFCURVE",
"287 380 OFFCURVE",
"247 380 CURVE SMOOTH",
"214 380 OFFCURVE",
"185 365 OFFCURVE",
"160 342 CURVE SMOOTH",
"153 336 OFFCURVE",
"148 339 OFFCURVE",
"148 348 CURVE SMOOTH",
"149 357 OFFCURVE",
"149 364 OFFCURVE",
"149 368 CURVE SMOOTH",
"149 376 OFFCURVE",
"143 380 OFFCURVE",
"135 380 CURVE SMOOTH",
"117 380 OFFCURVE",
"89 344 OFFCURVE",
"41 332 CURVE SMOOTH",
"27 329 OFFCURVE",
"20 322 OFFCURVE",
"20 317 CURVE SMOOTH"
);
}
);
width = 706;
}
);
leftKerningGroup = m;
rightKerningGroup = m;
unicode = 006D;
},
{
glyphname = n;
lastChange = "2020-02-23 14:15:09 +0000";
layers = (
{
anchors = (
{
name = bottom;
position = "{237, 0}";
},
{
name = top;
position = "{237, 380}";
}
);
layerId = "4FF06481-DC31-47E8-8EFF-C3C3B18F183D";
paths = (
{
closed = 1;
nodes = (
"20 311 OFFCURVE",
"27 306 OFFCURVE",
"41 306 CURVE SMOOTH",
"68 306 OFFCURVE",
"77 278 OFFCURVE",
"77 246 CURVE SMOOTH",
"77 168 OFFCURVE",
"85 101 OFFCURVE",
"73 60 CURVE SMOOTH",
"67 38 OFFCURVE",
"54 24 OFFCURVE",
"33 28 CURVE SMOOTH",
"5 33 OFFCURVE",
"1 1 OFFCURVE",
"31 1 CURVE SMOOTH",
"111 1 LINE",
"194 1 LINE SMOOTH",
"224 1 OFFCURVE",
"220 33 OFFCURVE",
"192 28 CURVE SMOOTH",
"163 23 OFFCURVE",
"151 34 OFFCURVE",
"146 60 CURVE SMOOTH",
"141 95 OFFCURVE",
"139 151 OFFCURVE",
"142 227 CURVE SMOOTH",
"142 270 OFFCURVE",
"184 334 OFFCURVE",
"232 334 CURVE SMOOTH",
"276 334 OFFCURVE",
"324 278 OFFCURVE",
"324 190 CURVE SMOOTH",
"324 102 OFFCURVE",
"331 19 OFFCURVE",
"278 28 CURVE SMOOTH",
"250 33 OFFCURVE",
"246 1 OFFCURVE",
"276 1 CURVE SMOOTH",
"359 1 LINE",
"442 1 LINE SMOOTH",
"472 1 OFFCURVE",
"468 33 OFFCURVE",
"440 28 CURVE SMOOTH",
"380 17 OFFCURVE",
"394 89 OFFCURVE",
"394 196 CURVE SMOOTH",
"394 326 OFFCURVE",
"319 380 OFFCURVE",
"257 380 CURVE SMOOTH",
"223 380 OFFCURVE",
"189 364 OFFCURVE",
"160 340 CURVE SMOOTH",
"153 335 OFFCURVE",
"147 337 OFFCURVE",
"148 346 CURVE SMOOTH",
"149 356 OFFCURVE",
"149 363 OFFCURVE",
"149 368 CURVE SMOOTH",
"149 376 OFFCURVE",
"143 380 OFFCURVE",
"135 380 CURVE SMOOTH",
"117 380 OFFCURVE",
"89 344 OFFCURVE",
"41 332 CURVE SMOOTH",
"27 329 OFFCURVE",
"20 322 OFFCURVE",
"20 317 CURVE SMOOTH"
);
}
);
width = 473;
}
);
leftKerningGroup = n;
rightKerningGroup = n;
unicode = 006E;
},
{
glyphname = o;
lastChange = "2020-02-23 14:13:59 +0000";
layers = (
{
anchors = (
{
name = bottom;
position = "{212, 0}";
},
{
name = center;
position = "{212, 190}";
},
{
name = ogonek;
position = "{346, 31}";
},
{
name = top;
position = "{212, 380}";
},
{
name = topright;
position = "{286, 324}";
}
);
layerId = "4FF06481-DC31-47E8-8EFF-C3C3B18F183D";
paths = (
{
closed = 1;
nodes = (
"303 0 OFFCURVE",
"403 60 OFFCURVE",
"403 189 CURVE SMOOTH",
"403 319 OFFCURVE",
"303 380 OFFCURVE",
"211 380 CURVE SMOOTH",
"120 380 OFFCURVE",
"20 319 OFFCURVE",
"20 189 CURVE SMOOTH",
"20 60 OFFCURVE",
"120 0 OFFCURVE",
"211 0 CURVE SMOOTH"
);
},
{
closed = 1;
nodes = (
"143 26 OFFCURVE",
"97 92 OFFCURVE",
"97 190 CURVE SMOOTH",
"97 287 OFFCURVE",
"143 354 OFFCURVE",
"211 354 CURVE SMOOTH",
"280 354 OFFCURVE",
"325 287 OFFCURVE",
"325 190 CURVE SMOOTH",
"325 92 OFFCURVE",
"280 26 OFFCURVE",
"211 26 CURVE SMOOTH"
);
}
);
width = 423;
}
);
leftKerningGroup = o;
rightKerningGroup = o;
unicode = 006F;
},
{
glyphname = p;
lastChange = "2020-01-30 09:54:22 +0000";
layers = (
{
anchors = (
{
name = bottom;
position = "{222, 0}";
},
{
name = top;
position = "{222, 380}";
}
);
layerId = "4FF06481-DC31-47E8-8EFF-C3C3B18F183D";
paths = (
{
closed = 1;
nodes = (
"22 311 OFFCURVE",
"29 306 OFFCURVE",
"43 306 CURVE SMOOTH",
"90 306 OFFCURVE",
"85 197 OFFCURVE",
"85 24 CURVE SMOOTH",
"85 -17 OFFCURVE",
"84 -46 OFFCURVE",
"79 -91 CURVE SMOOTH",
"75 -130 OFFCURVE",
"62 -157 OFFCURVE",
"33 -152 CURVE SMOOTH",
"5 -147 OFFCURVE",
"1 -179 OFFCURVE",
"31 -179 CURVE SMOOTH",
"194 -179 LINE SMOOTH",
"224 -179 OFFCURVE",
"220 -147 OFFCURVE",
"192 -152 CURVE SMOOTH",
"132 -163 OFFCURVE",
"146 -81 OFFCURVE",
"146 -39 CURVE SMOOTH",
"146 -10 LINE SMOOTH",
"146 0 OFFCURVE",
"152 5 OFFCURVE",
"162 4 CURVE SMOOTH",
"177 2 OFFCURVE",
"196 0 OFFCURVE",
"220 0 CURVE SMOOTH",
"328 0 OFFCURVE",
"424 73 OFFCURVE",
"424 189 CURVE SMOOTH",
"424 319 OFFCURVE",
"339 380 OFFCURVE",
"267 380 CURVE SMOOTH",
"234 380 OFFCURVE",
"200 364 OFFCURVE",
"172 342 CURVE SMOOTH",
"162 334 OFFCURVE",
"155 337 OFFCURVE",
"155 350 CURVE SMOOTH",
"155 368 LINE SMOOTH",
"155 376 OFFCURVE",
"149 380 OFFCURVE",
"141 380 CURVE SMOOTH",
"123 380 OFFCURVE",
"91 342 OFFCURVE",
"43 332 CURVE SMOOTH",
"29 329 OFFCURVE",
"22 322 OFFCURVE",
"22 317 CURVE SMOOTH"
);
},
{
closed = 1;
nodes = (
"147 169 OFFCURVE",
"146 198 OFFCURVE",
"151 246 CURVE SMOOTH",
"157 301 OFFCURVE",
"209 334 OFFCURVE",
"242 334 CURVE SMOOTH",
"296 334 OFFCURVE",
"354 278 OFFCURVE",
"354 190 CURVE SMOOTH",
"354 81 OFFCURVE",
"300 31 OFFCURVE",
"238 31 CURVE SMOOTH",
"178 31 OFFCURVE",
"150 61 OFFCURVE",
"149 103 CURVE SMOOTH"
);
}
);
width = 444;
}
);
leftKerningGroup = p;
rightKerningGroup = p;
unicode = 0070;
},
{
glyphname = q;
lastChange = "2020-01-30 09:33:03 +0000";
layers = (
{
anchors = (
{
name = bottom;
position = "{214, 0}";
},
{
name = top;
position = "{214, 380}";
}
);
layerId = "4FF06481-DC31-47E8-8EFF-C3C3B18F183D";
paths = (
{
closed = 1;
nodes = (
"324 -179 LINE",
"407 -179 LINE SMOOTH",
"437 -179 OFFCURVE",
"433 -147 OFFCURVE",
"405 -152 CURVE SMOOTH",
"345 -163 OFFCURVE",
"358 -81 OFFCURVE",
"357 -39 CURVE SMOOTH",
"355 20 OFFCURVE",
"353 292 OFFCURVE",
"371 343 CURVE SMOOTH",
"375 355 OFFCURVE",
"381 361 OFFCURVE",
"381 367 CURVE SMOOTH",
"381 374 OFFCURVE",
"374 381 OFFCURVE",
"360 376 CURVE SMOOTH",
"319 361 OFFCURVE",
"303 380 OFFCURVE",
"224 380 CURVE SMOOTH",
"116 380 OFFCURVE",
"20 307 OFFCURVE",
"20 191 CURVE SMOOTH",
"20 61 OFFCURVE",
"105 0 OFFCURVE",
"177 0 CURVE SMOOTH",
"213 0 OFFCURVE",
"250 19 OFFCURVE",
"280 44 CURVE SMOOTH",
"290 53 OFFCURVE",
"298 50 OFFCURVE",
"298 36 CURVE SMOOTH",
"298 -18 OFFCURVE",
"296 -49 OFFCURVE",
"292 -91 CURVE SMOOTH",
"288 -130 OFFCURVE",
"275 -157 OFFCURVE",
"246 -152 CURVE SMOOTH",
"218 -147 OFFCURVE",
"214 -179 OFFCURVE",
"244 -179 CURVE SMOOTH"
);
},
{
closed = 1;
nodes = (
"148 46 OFFCURVE",
"90 102 OFFCURVE",
"90 190 CURVE SMOOTH",
"90 299 OFFCURVE",
"144 349 OFFCURVE",
"206 349 CURVE SMOOTH",
"266 349 OFFCURVE",
"295 328 OFFCURVE",
"295 293 CURVE SMOOTH",
"295 188 OFFCURVE",
"314 46 OFFCURVE",
"202 46 CURVE SMOOTH"
);
}
);
width = 398;
}
);
leftKerningGroup = q;
rightKerningGroup = q;
unicode = 0071;
},
{
glyphname = r;
lastChange = "2020-02-23 14:11:49 +0000";
layers = (
{
anchors = (
{
name = bottom;
position = "{111, 1}";
},
{
name = top;
position = "{151, 380}";
}
);
layerId = "4FF06481-DC31-47E8-8EFF-C3C3B18F183D";
paths = (
{
closed = 1;
nodes = (
"20 311 OFFCURVE",
"27 306 OFFCURVE",
"41 306 CURVE SMOOTH",
"68 306 OFFCURVE",
"77 278 OFFCURVE",
"77 246 CURVE SMOOTH",
"77 168 OFFCURVE",
"81 100 OFFCURVE",
"73 60 CURVE SMOOTH",
"68 37 OFFCURVE",
"54 24 OFFCURVE",
"33 28 CURVE SMOOTH",
"5 33 OFFCURVE",
"1 1 OFFCURVE",
"31 1 CURVE SMOOTH",
"111 1 LINE",
"194 1 LINE SMOOTH",
"224 1 OFFCURVE",
"220 33 OFFCURVE",
"192 28 CURVE SMOOTH",
"163 23 OFFCURVE",
"151 34 OFFCURVE",
"146 60 CURVE SMOOTH",
"140 99 OFFCURVE",
"138 162 OFFCURVE",
"143 255 CURVE",
"158 315 OFFCURVE",
"207 328 OFFCURVE",
"252 311 CURVE SMOOTH",
"293 296 OFFCURVE",
"332 359 OFFCURVE",
"281 377 CURVE SMOOTH",
"257 386 OFFCURVE",
"199 377 OFFCURVE",
"159 334 CURVE SMOOTH",
"153 327 OFFCURVE",
"147 329 OFFCURVE",
"148 339 CURVE SMOOTH",
"149 352 OFFCURVE",
"149 361 OFFCURVE",
"149 368 CURVE SMOOTH",
"149 376 OFFCURVE",
"143 380 OFFCURVE",
"135 380 CURVE SMOOTH",
"117 380 OFFCURVE",
"89 344 OFFCURVE",
"41 332 CURVE SMOOTH",
"27 329 OFFCURVE",
"20 322 OFFCURVE",
"20 317 CURVE SMOOTH"
);
}
);
width = 315;
}
);
leftKerningGroup = r;
rightKerningGroup = r;
unicode = 0072;
},
{
glyphname = s;
lastChange = "2020-01-30 10:07:37 +0000";
layers = (
{
anchors = (
{
name = bottom;
position = "{159, 0}";
},
{
name = top;
position = "{159, 380}";
}
);
layerId = "4FF06481-DC31-47E8-8EFF-C3C3B18F183D";
paths = (
{
closed = 1;
nodes = (
"240 0 OFFCURVE",
"296 41 OFFCURVE",
"296 100 CURVE SMOOTH",
"296 180 OFFCURVE",
"207 202 OFFCURVE",
"146 231 CURVE SMOOTH",
"100 253 OFFCURVE",
"81 276 OFFCURVE",
"81 301 CURVE SMOOTH",
"81 327 OFFCURVE",
"102 351 OFFCURVE",
"149 351 CURVE SMOOTH",
"217 351 OFFCURVE",
"262 297 OFFCURVE",
"262 259 CURVE SMOOTH",
"262 251 OFFCURVE",
"269 245 OFFCURVE",
"275 245 CURVE SMOOTH",
"282 245 OFFCURVE",
"289 251 OFFCURVE",
"289 259 CURVE SMOOTH",
"289 268 OFFCURVE",
"289 281 OFFCURVE",
"289 308 CURVE SMOOTH",
"289 335 OFFCURVE",
"289 361 OFFCURVE",
"289 363 CURVE SMOOTH",
"289 372 OFFCURVE",
"282 377 OFFCURVE",
"275 377 CURVE SMOOTH",
"269 377 OFFCURVE",
"262 373 OFFCURVE",
"262 364 CURVE SMOOTH",
"262 354 OFFCURVE",
"261 349 OFFCURVE",
"257 349 CURVE SMOOTH",
"250 349 OFFCURVE",
"222 380 OFFCURVE",
"149 380 CURVE SMOOTH",
"67 380 OFFCURVE",
"20 329 OFFCURVE",
"20 277 CURVE SMOOTH",
"20 206 OFFCURVE",
"85 185 OFFCURVE",
"138 159 CURVE SMOOTH",
"188 134 OFFCURVE",
"235 111 OFFCURVE",
"235 82 CURVE SMOOTH",
"235 48 OFFCURVE",
"204 28 OFFCURVE",
"163 28 CURVE SMOOTH",
"109 28 OFFCURVE",
"49 85 OFFCURVE",
"49 128 CURVE SMOOTH",
"49 138 OFFCURVE",
"42 143 OFFCURVE",
"36 143 CURVE SMOOTH",
"29 143 OFFCURVE",
"22 138 OFFCURVE",
"22 128 CURVE SMOOTH",
"22 115 OFFCURVE",
"22 100 OFFCURVE",
"22 79 CURVE SMOOTH",
"22 52 OFFCURVE",
"22 29 OFFCURVE",
"22 19 CURVE SMOOTH",
"22 12 OFFCURVE",
"25 4 OFFCURVE",
"35 4 CURVE SMOOTH",
"44 4 OFFCURVE",
"49 13 OFFCURVE",
"49 20 CURVE SMOOTH",
"49 35 OFFCURVE",
"49 41 OFFCURVE",
"54 41 CURVE SMOOTH",
"60 41 OFFCURVE",
"86 0 OFFCURVE",
"170 0 CURVE SMOOTH"
);
}
);
width = 316;
}
);
leftKerningGroup = s;
rightKerningGroup = s;
unicode = 0073;
},
{
glyphname = t;
lastChange = "2020-01-30 09:55:06 +0000";
layers = (
{
anchors = (
{
name = bottom;
position = "{145, 0}";
},
{
name = center;
position = "{145, 190}";
},
{
name = top;
position = "{133, 496}";
},
{
name = topright;
position = "{260, 380}";
}
);
layerId = "4FF06481-DC31-47E8-8EFF-C3C3B18F183D";
paths = (
{
closed = 1;
nodes = (
"191 0 OFFCURVE",
"229 23 OFFCURVE",
"251 50 CURVE SMOOTH",
"269 72 OFFCURVE",
"257 94 OFFCURVE",
"236 70 CURVE SMOOTH",
"187 14 OFFCURVE",
"150 55 OFFCURVE",
"150 87 CURVE SMOOTH",
"150 122 OFFCURVE",
"150 223 OFFCURVE",
"151 337 CURVE SMOOTH",
"151 343 OFFCURVE",
"155 347 OFFCURVE",
"161 347 CURVE SMOOTH",
"211 347 OFFCURVE",
"233 346 OFFCURVE",
"252 344 CURVE SMOOTH",
"276 342 OFFCURVE",
"278 382 OFFCURVE",
"250 380 CURVE SMOOTH",
"235 379 OFFCURVE",
"213 378 OFFCURVE",
"162 378 CURVE SMOOTH",
"156 378 OFFCURVE",
"152 382 OFFCURVE",
"152 388 CURVE SMOOTH",
"152 470 LINE SMOOTH",
"152 486 OFFCURVE",
"147 496 OFFCURVE",
"133 496 CURVE SMOOTH",
"108 496 OFFCURVE",
"118 447 OFFCURVE",
"94 407 CURVE SMOOTH",
"81 385 OFFCURVE",
"53 380 OFFCURVE",
"30 380 CURVE SMOOTH",
"2 380 OFFCURVE",
"4 342 OFFCURVE",
"29 344 CURVE SMOOTH",
"40 345 OFFCURVE",
"50 345 OFFCURVE",
"73 345 CURVE SMOOTH",
"79 345 OFFCURVE",
"83 341 OFFCURVE",
"83 335 CURVE SMOOTH",
"83 87 LINE SMOOTH",
"83 48 OFFCURVE",
"93 0 OFFCURVE",
"143 0 CURVE SMOOTH"
);
}
);
width = 280;
}
);
leftKerningGroup = t;
rightKerningGroup = t;
unicode = 0074;
},
{
glyphname = u;
lastChange = "2020-02-10 07:38:12 +0000";
layers = (
{
anchors = (
{
name = bottom;
position = "{220, 0}";
},
{
name = ogonek;
position = "{408, 20}";
},
{
name = top;
position = "{220, 380}";
},
{
name = topright;
position = "{319, 354}";
}
);
layerId = "4FF06481-DC31-47E8-8EFF-C3C3B18F183D";
paths = (
{
closed = 1;
nodes = (
"10 310 OFFCURVE",
"17 306 OFFCURVE",
"31 306 CURVE SMOOTH",
"58 306 OFFCURVE",
"67 278 OFFCURVE",
"67 246 CURVE SMOOTH",
"67 101 LINE SMOOTH",
"67 36 OFFCURVE",
"137 1 OFFCURVE",
"190 1 CURVE SMOOTH",
"226 1 OFFCURVE",
"262 15 OFFCURVE",
"292 45 CURVE SMOOTH",
"299 53 OFFCURVE",
"304 52 OFFCURVE",
"306 41 CURVE SMOOTH",
"310 17 OFFCURVE",
"320 0 OFFCURVE",
"342 0 CURVE SMOOTH",
"358 0 OFFCURVE",
"375 22 OFFCURVE",
"411 31 CURVE SMOOTH",
"423 34 OFFCURVE",
"430 42 OFFCURVE",
"430 49 CURVE SMOOTH",
"430 55 OFFCURVE",
"426 59 OFFCURVE",
"417 59 CURVE SMOOTH",
"409 59 OFFCURVE",
"398 54 OFFCURVE",
"389 54 CURVE SMOOTH",
"365 54 OFFCURVE",
"362 121 OFFCURVE",
"362 182 CURVE SMOOTH",
"362 254 OFFCURVE",
"368 334 OFFCURVE",
"368 368 CURVE SMOOTH",
"368 376 OFFCURVE",
"363 380 OFFCURVE",
"355 380 CURVE SMOOTH",
"351 380 OFFCURVE",
"346 378 OFFCURVE",
"340 375 CURVE SMOOTH",
"320 365 OFFCURVE",
"297 342 OFFCURVE",
"263 332 CURVE SMOOTH",
"249 328 OFFCURVE",
"242 321 OFFCURVE",
"242 316 CURVE SMOOTH",
"242 310 OFFCURVE",
"249 306 OFFCURVE",
"263 306 CURVE SMOOTH",
"290 306 OFFCURVE",
"299 278 OFFCURVE",
"299 246 CURVE SMOOTH",
"299 171 OFFCURVE",
"297 150 OFFCURVE",
"299 103 CURVE SMOOTH",
"300 96 OFFCURVE",
"298 91 OFFCURVE",
"294 84 CURVE SMOOTH",
"272 54 OFFCURVE",
"245 35 OFFCURVE",
"215 35 CURVE SMOOTH",
"170 35 OFFCURVE",
"133 74 OFFCURVE",
"133 117 CURVE SMOOTH",
"133 198 OFFCURVE",
"136 323 OFFCURVE",
"136 368 CURVE SMOOTH",
"136 376 OFFCURVE",
"131 380 OFFCURVE",
"123 380 CURVE SMOOTH",
"119 380 OFFCURVE",
"114 378 OFFCURVE",
"108 375 CURVE SMOOTH",
"88 365 OFFCURVE",
"65 342 OFFCURVE",
"31 332 CURVE SMOOTH",
"17 328 OFFCURVE",
"10 321 OFFCURVE",
"10 316 CURVE SMOOTH"
);
}
);
width = 440;
}
);
leftKerningGroup = u;
rightKerningGroup = u;
unicode = 0075;
},
{
glyphname = v;
lastChange = "2020-01-30 11:12:23 +0000";
layers = (
{
anchors = (
{
name = bottom;
position = "{225, 0}";
},
{
name = top;
position = "{225, 380}";
}
);
layerId = "4FF06481-DC31-47E8-8EFF-C3C3B18F183D";
paths = (
{
closed = 1;
nodes = (
"208 -12 OFFCURVE",
"239 -4 OFFCURVE",
"250 21 CURVE SMOOTH",
"361 277 OFFCURVE",
"368 353 OFFCURVE",
"406 351 CURVE SMOOTH",
"434 350 OFFCURVE",
"438 378 OFFCURVE",
"408 378 CURVE SMOOTH",
"345 378 LINE",
"292 378 LINE SMOOTH",
"262 378 OFFCURVE",
"266 347 OFFCURVE",
"294 351 CURVE SMOOTH",
"350 360 OFFCURVE",
"324 301 OFFCURVE",
"252 116 CURVE SMOOTH",
"247 102 OFFCURVE",
"236 102 OFFCURVE",
"231 116 CURVE SMOOTH",
"167 296 OFFCURVE",
"131 363 OFFCURVE",
"185 353 CURVE SMOOTH",
"213 348 OFFCURVE",
"217 380 OFFCURVE",
"187 380 CURVE SMOOTH",
"104 380 LINE",
"41 380 LINE SMOOTH",
"11 380 OFFCURVE",
"15 352 OFFCURVE",
"43 353 CURVE SMOOTH",
"82 355 OFFCURVE",
"77 319 OFFCURVE",
"196 18 CURVE SMOOTH"
);
}
);
width = 439;
}
);
leftKerningGroup = v;
rightKerningGroup = v;
unicode = 0076;
},
{
glyphname = w;
lastChange = "2020-01-25 12:45:04 +0000";
layers = (
{
anchors = (
{
name = bottom;
position = "{315, 0}";
},
{
name = top;
position = "{315, 380}";
}
);
layerId = "4FF06481-DC31-47E8-8EFF-C3C3B18F183D";
paths = (
{
closed = 1;
nodes = (
"418 -12 OFFCURVE",
"453 -4 OFFCURVE",
"462 21 CURVE SMOOTH",
"553 273 OFFCURVE",
"569 352 OFFCURVE",
"597 351 CURVE SMOOTH",
"625 350 OFFCURVE",
"629 378 OFFCURVE",
"599 378 CURVE SMOOTH",
"483 378 LINE SMOOTH",
"453 378 OFFCURVE",
"457 347 OFFCURVE",
"485 351 CURVE SMOOTH",
"541 360 OFFCURVE",
"525 296 OFFCURVE",
"464 118 CURVE SMOOTH",
"459 103 OFFCURVE",
"448 104 OFFCURVE",
"443 118 CURVE SMOOTH",
"378 316 OFFCURVE",
"352 363 OFFCURVE",
"406 353 CURVE SMOOTH",
"434 348 OFFCURVE",
"438 380 OFFCURVE",
"408 380 CURVE SMOOTH",
"262 380 LINE SMOOTH",
"232 380 OFFCURVE",
"236 352 OFFCURVE",
"264 353 CURVE SMOOTH",
"314 356 OFFCURVE",
"311 308 OFFCURVE",
"239 117 CURVE SMOOTH",
"233 103 OFFCURVE",
"222 103 OFFCURVE",
"218 118 CURVE SMOOTH",
"159 308 OFFCURVE",
"131 363 OFFCURVE",
"185 353 CURVE SMOOTH",
"213 348 OFFCURVE",
"217 380 OFFCURVE",
"187 380 CURVE SMOOTH",
"31 380 LINE SMOOTH",
"1 380 OFFCURVE",
"5 352 OFFCURVE",
"33 353 CURVE SMOOTH",
"82 355 OFFCURVE",
"69 308 OFFCURVE",
"174 20 CURVE SMOOTH",
"185 -10 OFFCURVE",
"219 -4 OFFCURVE",
"230 21 CURVE SMOOTH",
"265 104 OFFCURVE",
"293 179 OFFCURVE",
"311 234 CURVE SMOOTH",
"315 248 OFFCURVE",
"325 248 OFFCURVE",
"330 235 CURVE SMOOTH",
"347 187 OFFCURVE",
"367 127 OFFCURVE",
"407 18 CURVE SMOOTH"
);
}
);
width = 630;
}
);
leftKerningGroup = w;
rightKerningGroup = w;
unicode = 0077;
},
{
glyphname = x;
lastChange = "2020-01-25 12:45:56 +0000";
layers = (
{
anchors = (
{
name = bottom;
position = "{217, 0}";
},
{
name = top;
position = "{217, 380}";
}
);
layerId = "4FF06481-DC31-47E8-8EFF-C3C3B18F183D";
paths = (
{
closed = 1;
nodes = (
"1 380 OFFCURVE",
"5 353 OFFCURVE",
"33 353 CURVE SMOOTH",
"42 353 OFFCURVE",
"55 353 OFFCURVE",
"64 341 CURVE SMOOTH",
"99 296 OFFCURVE",
"140 241 OFFCURVE",
"178 189 CURVE SMOOTH",
"184 182 OFFCURVE",
"184 176 OFFCURVE",
"178 168 CURVE SMOOTH",
"137 111 OFFCURVE",
"93 56 OFFCURVE",
"68 36 CURVE SMOOTH",
"51 23 OFFCURVE",
"45 28 OFFCURVE",
"35 28 CURVE SMOOTH",
"7 28 OFFCURVE",
"3 1 OFFCURVE",
"33 1 CURVE SMOOTH",
"159 1 LINE SMOOTH",
"189 1 OFFCURVE",
"185 33 OFFCURVE",
"157 28 CURVE SMOOTH",
"134 24 OFFCURVE",
"121 24 OFFCURVE",
"128 38 CURVE SMOOTH",
"132 45 OFFCURVE",
"160 86 OFFCURVE",
"195 136 CURVE SMOOTH",
"202 145 OFFCURVE",
"210 145 OFFCURVE",
"217 136 CURVE SMOOTH",
"249 90 OFFCURVE",
"273 55 OFFCURVE",
"277 43 CURVE SMOOTH",
"282 25 OFFCURVE",
"267 24 OFFCURVE",
"243 28 CURVE SMOOTH",
"215 33 OFFCURVE",
"211 1 OFFCURVE",
"241 1 CURVE SMOOTH",
"407 1 LINE SMOOTH",
"437 1 OFFCURVE",
"433 28 OFFCURVE",
"405 28 CURVE SMOOTH",
"393 28 OFFCURVE",
"378 32 OFFCURVE",
"366 46 CURVE SMOOTH",
"346 68 OFFCURVE",
"299 132 OFFCURVE",
"253 194 CURVE SMOOTH",
"248 202 OFFCURVE",
"248 208 OFFCURVE",
"253 216 CURVE SMOOTH",
"292 268 OFFCURVE",
"327 316 OFFCURVE",
"341 331 CURVE SMOOTH",
"356 348 OFFCURVE",
"376 352 OFFCURVE",
"389 351 CURVE SMOOTH",
"417 349 OFFCURVE",
"421 378 OFFCURVE",
"391 378 CURVE SMOOTH",
"265 378 LINE SMOOTH",
"235 378 OFFCURVE",
"239 347 OFFCURVE",
"267 351 CURVE SMOOTH",
"292 355 OFFCURVE",
"305 355 OFFCURVE",
"294 337 CURVE SMOOTH",
"290 331 OFFCURVE",
"267 295 OFFCURVE",
"236 250 CURVE SMOOTH",
"229 240 OFFCURVE",
"221 240 OFFCURVE",
"214 249 CURVE SMOOTH",
"182 295 OFFCURVE",
"156 333 OFFCURVE",
"151 344 CURVE SMOOTH",
"146 355 OFFCURVE",
"164 356 OFFCURVE",
"185 353 CURVE SMOOTH",
"213 348 OFFCURVE",
"217 380 OFFCURVE",
"187 380 CURVE SMOOTH",
"31 380 LINE SMOOTH"
);
}
);
width = 438;
}
);
leftKerningGroup = x;
rightKerningGroup = x;
unicode = 0078;
},
{
glyphname = y;
lastChange = "2020-01-30 10:09:55 +0000";
layers = (
{
anchors = (
{
name = bottom;
position = "{295, 0}";
},
{
name = top;
position = "{205, 380}";
}
);
layerId = "4FF06481-DC31-47E8-8EFF-C3C3B18F183D";
paths = (
{
closed = 1;
nodes = (
"-9 380 OFFCURVE",
"-5 352 OFFCURVE",
"23 353 CURVE SMOOTH",
"35 354 OFFCURVE",
"46 344 OFFCURVE",
"58 325 CURVE SMOOTH",
"84 282 OFFCURVE",
"124 174 OFFCURVE",
"186 23 CURVE SMOOTH",
"189 15 OFFCURVE",
"188 9 OFFCURVE",
"185 2 CURVE SMOOTH",
"174 -21 LINE SMOOTH",
"157 -56 OFFCURVE",
"126 -80 OFFCURVE",
"102 -80 CURVE SMOOTH",
"37 -80 OFFCURVE",
"50 -157 OFFCURVE",
"122 -133 CURVE SMOOTH",
"154 -122 OFFCURVE",
"191 -65 OFFCURVE",
"207 -31 CURVE SMOOTH",
"258 85 OFFCURVE",
"337 299 OFFCURVE",
"356 328 CURVE SMOOTH",
"367 345 OFFCURVE",
"374 352 OFFCURVE",
"386 351 CURVE SMOOTH",
"414 350 OFFCURVE",
"418 378 OFFCURVE",
"388 378 CURVE SMOOTH",
"272 378 LINE SMOOTH",
"242 378 OFFCURVE",
"246 347 OFFCURVE",
"274 351 CURVE SMOOTH",
"296 354 OFFCURVE",
"308 349 OFFCURVE",
"308 330 CURVE SMOOTH",
"309 312 OFFCURVE",
"273 212 OFFCURVE",
"233 113 CURVE SMOOTH",
"228 100 OFFCURVE",
"218 101 OFFCURVE",
"213 114 CURVE SMOOTH",
"167 230 OFFCURVE",
"135 298 OFFCURVE",
"135 330 CURVE SMOOTH",
"135 350 OFFCURVE",
"145 357 OFFCURVE",
"165 353 CURVE SMOOTH",
"193 348 OFFCURVE",
"197 380 OFFCURVE",
"167 380 CURVE SMOOTH",
"21 380 LINE SMOOTH"
);
}
);
width = 409;
}
);
leftKerningGroup = y;
rightKerningGroup = y;
unicode = 0079;
},
{
glyphname = z;
lastChange = "2020-01-30 10:07:47 +0000";
layers = (
{
anchors = (
{
name = bottom;
position = "{163, 0}";
},
{
name = center;
position = "{163, 190}";
},
{
name = top;
position = "{163, 380}";
}
);
layerId = "4FF06481-DC31-47E8-8EFF-C3C3B18F183D";
paths = (
{
closed = 1;
nodes = (
"290 1 LINE SMOOTH",
"297 1 OFFCURVE",
"303 4 OFFCURVE",
"305 21 CURVE SMOOTH",
"310 61 OFFCURVE",
"311 97 OFFCURVE",
"311 115 CURVE SMOOTH",
"311 123 OFFCURVE",
"301 128 OFFCURVE",
"297 128 CURVE SMOOTH",
"291 128 OFFCURVE",
"284 123 OFFCURVE",
"284 113 CURVE SMOOTH",
"284 86 OFFCURVE",
"278 56 OFFCURVE",
"253 38 CURVE SMOOTH",
"239 28 OFFCURVE",
"226 26 OFFCURVE",
"198 26 CURVE SMOOTH",
"97 26 LINE SMOOTH",
"86 26 OFFCURVE",
"81 34 OFFCURVE",
"87 44 CURVE SMOOTH",
"146 145 OFFCURVE",
"290 293 OFFCURVE",
"312 354 CURVE SMOOTH",
"318 371 OFFCURVE",
"314 381 OFFCURVE",
"295 381 CURVE SMOOTH",
"31 380 LINE SMOOTH",
"25 380 OFFCURVE",
"18 377 OFFCURVE",
"16 360 CURVE SMOOTH",
"12 320 OFFCURVE",
"10 284 OFFCURVE",
"10 266 CURVE SMOOTH",
"10 257 OFFCURVE",
"19 253 OFFCURVE",
"23 253 CURVE SMOOTH",
"28 253 OFFCURVE",
"37 257 OFFCURVE",
"37 267 CURVE SMOOTH",
"37 295 OFFCURVE",
"43 326 OFFCURVE",
"69 343 CURVE SMOOTH",
"84 353 OFFCURVE",
"93 355 OFFCURVE",
"123 355 CURVE SMOOTH",
"222 355 LINE SMOOTH",
"233 355 OFFCURVE",
"239 347 OFFCURVE",
"233 338 CURVE SMOOTH",
"192 274 OFFCURVE",
"22 70 OFFCURVE",
"11 20 CURVE SMOOTH",
"8 7 OFFCURVE",
"13 0 OFFCURVE",
"24 0 CURVE SMOOTH"
);
}
);
width = 325;
}
);
leftKerningGroup = z;
rightKerningGroup = z;
unicode = 007A;
},
{
glyphname = braceleft;
lastChange = "2020-01-29 14:34:52 +0000";
layers = (
{
layerId = "4FF06481-DC31-47E8-8EFF-C3C3B18F183D";
paths = (
{
closed = 1;
nodes = (
"328 -92 OFFCURVE",
"328 -61 OFFCURVE",
"288 -64 CURVE SMOOTH",
"188 -71 OFFCURVE",
"170 2 OFFCURVE",
"170 131 CURVE SMOOTH",
"170 242 OFFCURVE",
"160 286 OFFCURVE",
"108 301 CURVE",
"160 316 OFFCURVE",
"170 360 OFFCURVE",
"170 471 CURVE SMOOTH",
"170 600 OFFCURVE",
"188 673 OFFCURVE",
"288 666 CURVE SMOOTH",
"328 663 OFFCURVE",
"328 694 OFFCURVE",
"288 696 CURVE SMOOTH",
"166 702 OFFCURVE",
"108 667 OFFCURVE",
"120 466 CURVE SMOOTH",
"126 368 OFFCURVE",
"99 311 OFFCURVE",
"61 315 CURVE SMOOTH",
"46 317 OFFCURVE",
"39 308 OFFCURVE",
"40 300 CURVE SMOOTH",
"41 293 OFFCURVE",
"48 286 OFFCURVE",
"61 287 CURVE SMOOTH",
"99 291 OFFCURVE",
"126 234 OFFCURVE",
"120 136 CURVE SMOOTH",
"108 -64 OFFCURVE",
"166 -100 OFFCURVE",
"288 -94 CURVE SMOOTH"
);
}
);
width = 358;
}
);
unicode = 007B;
},
{
glyphname = brokenbar;
lastChange = "2020-01-26 13:10:13 +0000";
layers = (
{
layerId = "4FF06481-DC31-47E8-8EFF-C3C3B18F183D";
paths = (
{
closed = 1;
nodes = (
"100 -13 OFFCURVE",
"97 39 OFFCURVE",
"97 92 CURVE SMOOTH",
"97 131 OFFCURVE",
"100 175 OFFCURVE",
"100 235 CURVE SMOOTH",
"100 262 OFFCURVE",
"88 269 OFFCURVE",
"75 269 CURVE SMOOTH",
"63 269 OFFCURVE",
"50 258 OFFCURVE",
"50 236 CURVE SMOOTH",
"50 185 OFFCURVE",
"52 125 OFFCURVE",
"52 72 CURVE SMOOTH",
"52 39 OFFCURVE",
"51 -2 OFFCURVE",
"51 -70 CURVE SMOOTH",
"51 -82 OFFCURVE",
"57 -100 OFFCURVE",
"75 -100 CURVE SMOOTH",
"91 -100 OFFCURVE",
"100 -86 OFFCURVE",
"100 -67 CURVE SMOOTH"
);
},
{
closed = 1;
nodes = (
"100 522 OFFCURVE",
"97 574 OFFCURVE",
"97 627 CURVE SMOOTH",
"97 666 OFFCURVE",
"100 710 OFFCURVE",
"100 770 CURVE SMOOTH",
"100 797 OFFCURVE",
"88 804 OFFCURVE",
"75 804 CURVE SMOOTH",
"63 804 OFFCURVE",
"50 793 OFFCURVE",
"50 771 CURVE SMOOTH",
"50 720 OFFCURVE",
"52 660 OFFCURVE",
"52 607 CURVE SMOOTH",
"52 574 OFFCURVE",
"51 533 OFFCURVE",
"51 465 CURVE SMOOTH",
"51 453 OFFCURVE",
"57 435 OFFCURVE",
"75 435 CURVE SMOOTH",
"91 435 OFFCURVE",
"100 449 OFFCURVE",
"100 468 CURVE SMOOTH"
);
}
);
width = 150;
}
);
unicode = 00A6;
},
{
glyphname = backslash;
lastChange = "2020-01-26 13:03:41 +0000";
layers = (
{
layerId = "4FF06481-DC31-47E8-8EFF-C3C3B18F183D";
paths = (
{
closed = 1;
nodes = (
"327 -73 OFFCURVE",
"338 -80 OFFCURVE",
"348 -80 CURVE SMOOTH",
"362 -80 OFFCURVE",
"376 -69 OFFCURVE",
"376 -53 CURVE SMOOTH",
"376 -40 OFFCURVE",
"302 140 OFFCURVE",
"231 336 CURVE SMOOTH",
"165 518 OFFCURVE",
"99 706 OFFCURVE",
"84 755 CURVE SMOOTH",
"79 771 OFFCURVE",
"67 778 OFFCURVE",
"56 778 CURVE SMOOTH",
"43 778 OFFCURVE",
"30 768 OFFCURVE",
"30 751 CURVE SMOOTH",
"30 735 OFFCURVE",
"99 572 OFFCURVE",
"183 340 CURVE SMOOTH",
"245 168 OFFCURVE",
"304 -5 OFFCURVE",
"322 -58 CURVE SMOOTH"
);
}
);
width = 406;
}
);
unicode = 005C;
},
{
glyphname = asciitilde;
lastChange = "2020-01-26 13:22:14 +0000";
layers = (
{
layerId = "4FF06481-DC31-47E8-8EFF-C3C3B18F183D";
paths = (
{
closed = 1;
nodes = (
"75 239 OFFCURVE",
"97 264 OFFCURVE",
"121 264 CURVE SMOOTH",
"201 264 OFFCURVE",
"207 181 OFFCURVE",
"301 181 CURVE SMOOTH",
"350 181 OFFCURVE",
"398 217 OFFCURVE",
"411 279 CURVE SMOOTH",
"414 293 OFFCURVE",
"407 300 OFFCURVE",
"400 300 CURVE SMOOTH",
"393 300 OFFCURVE",
"384 293 OFFCURVE",
"383 281 CURVE SMOOTH",
"380 247 OFFCURVE",
"356 216 OFFCURVE",
"326 216 CURVE SMOOTH",
"248 216 OFFCURVE",
"236 296 OFFCURVE",
"148 296 CURVE SMOOTH",
"75 296 OFFCURVE",
"40 225 OFFCURVE",
"40 200 CURVE SMOOTH",
"40 188 OFFCURVE",
"46 183 OFFCURVE",
"52 183 CURVE SMOOTH",
"60 183 OFFCURVE",
"69 190 OFFCURVE",
"71 207 CURVE SMOOTH"
);
}
);
width = 452;
}
);
unicode = 007E;
},
{
glyphname = cent;
lastChange = "2020-01-27 06:21:04 +0000";
layers = (
{
components = (
{
name = _part.yokosen;
piece = {
nagasa = 45;
};
transform = "{0, 1, -1, 0, 557, -2}";
}
);
layerId = "4FF06481-DC31-47E8-8EFF-C3C3B18F183D";
paths = (
{
closed = 1;
nodes = (
"285 160 OFFCURVE",
"345 201 OFFCURVE",
"373 260 CURVE SMOOTH",
"382 279 OFFCURVE",
"361 289 OFFCURVE",
"351 271 CURVE SMOOTH",
"322 219 OFFCURVE",
"283 196 OFFCURVE",
"221 196 CURVE SMOOTH",
"157 196 OFFCURVE",
"98 251 OFFCURVE",
"98 350 CURVE SMOOTH",
"98 448 OFFCURVE",
"147 514 OFFCURVE",
"211 514 CURVE SMOOTH",
"285 514 OFFCURVE",
"315 476 OFFCURVE",
"318 426 CURVE SMOOTH",
"322 367 OFFCURVE",
"401 390 OFFCURVE",
"368 466 CURVE SMOOTH",
"355 496 OFFCURVE",
"309 540 OFFCURVE",
"211 540 CURVE SMOOTH",
"120 540 OFFCURVE",
"20 479 OFFCURVE",
"20 349 CURVE SMOOTH",
"20 220 OFFCURVE",
"120 160 OFFCURVE",
"211 160 CURVE SMOOTH"
);
}
);
width = 396;
}
);
unicode = 00A2;
},
{
glyphname = sterling;
lastChange = "2020-01-27 06:13:36 +0000";
layers = (
{
components = (
{
name = _part.yokosen;
piece = {
nagasa = 10;
};
transform = "{1, 0, 0, 1, -106, 0}";
}
);
layerId = "4FF06481-DC31-47E8-8EFF-C3C3B18F183D";
paths = (
{
closed = 1;
nodes = (
"466 1 OFFCURVE",
"578 59 OFFCURVE",
"578 127 CURVE SMOOTH",
"578 139 OFFCURVE",
"572 147 OFFCURVE",
"564 147 CURVE SMOOTH",
"556 147 OFFCURVE",
"546 140 OFFCURVE",
"536 120 CURVE SMOOTH",
"484 16 OFFCURVE",
"345 138 OFFCURVE",
"243 138 CURVE SMOOTH",
"222 138 OFFCURVE",
"204 134 OFFCURVE",
"188 128 CURVE SMOOTH",
"178 124 OFFCURVE",
"176 125 OFFCURVE",
"181 136 CURVE SMOOTH",
"233 225 OFFCURVE",
"220 367 OFFCURVE",
"220 432 CURVE SMOOTH",
"220 532 OFFCURVE",
"231 671 OFFCURVE",
"352 671 CURVE SMOOTH",
"407 671 OFFCURVE",
"465 627 OFFCURVE",
"485 549 CURVE SMOOTH",
"491 525 OFFCURVE",
"504 514 OFFCURVE",
"517 514 CURVE SMOOTH",
"535 514 OFFCURVE",
"554 535 OFFCURVE",
"554 566 CURVE SMOOTH",
"554 633 OFFCURVE",
"466 698 OFFCURVE",
"364 698 CURVE SMOOTH",
"252 698 OFFCURVE",
"146 628 OFFCURVE",
"146 437 CURVE SMOOTH",
"146 372 OFFCURVE",
"158 317 OFFCURVE",
"158 271 CURVE SMOOTH",
"158 146 OFFCURVE",
"154 105 OFFCURVE",
"63 51 CURVE SMOOTH",
"46 41 OFFCURVE",
"41 30 OFFCURVE",
"41 21 CURVE SMOOTH",
"41 12 OFFCURVE",
"48 2 OFFCURVE",
"58 2 CURVE SMOOTH",
"67 2 OFFCURVE",
"80 7 OFFCURVE",
"94 21 CURVE SMOOTH",
"119 46 OFFCURVE",
"162 66 OFFCURVE",
"195 66 CURVE SMOOTH",
"244 66 OFFCURVE",
"305 1 OFFCURVE",
"390 1 CURVE SMOOTH"
);
}
);
width = 600;
}
);
unicode = 00A3;
},
{
glyphname = fraction;
lastChange = "2020-01-28 11:01:31 +0000";
layers = (
{
layerId = "4FF06481-DC31-47E8-8EFF-C3C3B18F183D";
paths = (
{
closed = 1;
nodes = (
"130 77 OFFCURVE",
"209 200 OFFCURVE",
"329 370 CURVE SMOOTH",
"419 499 OFFCURVE",
"499 605 OFFCURVE",
"533 654 CURVE SMOOTH",
"543 668 OFFCURVE",
"554 682 OFFCURVE",
"554 695 CURVE SMOOTH",
"554 704 OFFCURVE",
"545 719 OFFCURVE",
"528 719 CURVE SMOOTH",
"519 719 OFFCURVE",
"509 714 OFFCURVE",
"501 702 CURVE SMOOTH",
"474 659 OFFCURVE",
"367 502 OFFCURVE",
"257 344 CURVE SMOOTH",
"165 214 OFFCURVE",
"81 102 OFFCURVE",
"41 45 CURVE SMOOTH",
"31 30 OFFCURVE",
"20 16 OFFCURVE",
"20 4 CURVE SMOOTH",
"20 -10 OFFCURVE",
"31 -21 OFFCURVE",
"44 -21 CURVE SMOOTH",
"52 -21 OFFCURVE",
"64 -17 OFFCURVE",
"71 -7 CURVE SMOOTH"
);
}
);
width = 574;
}
);
unicode = 2044;
},
{
glyphname = florin;
lastChange = "2020-01-28 10:56:19 +0000";
layers = (
{
components = (
{
name = _part.yokosen;
transform = "{1, 0, 0, 1, -83, 10}";
}
);
layerId = "4FF06481-DC31-47E8-8EFF-C3C3B18F183D";
paths = (
{
closed = 1;
nodes = (
"45 -99 OFFCURVE",
"97 -99 CURVE SMOOTH",
"168 -99 OFFCURVE",
"243 -66 OFFCURVE",
"270 72 CURVE SMOOTH",
"283 146 OFFCURVE",
"292 263 OFFCURVE",
"296 393 CURVE SMOOTH",
"302 588 OFFCURVE",
"313 673 OFFCURVE",
"369 673 CURVE SMOOTH",
"390 673 OFFCURVE",
"414 663 OFFCURVE",
"419 606 CURVE SMOOTH",
"421 581 OFFCURVE",
"438 569 OFFCURVE",
"454 569 CURVE SMOOTH",
"473 569 OFFCURVE",
"491 588 OFFCURVE",
"488 623 CURVE SMOOTH",
"485 653 OFFCURVE",
"455 700 OFFCURVE",
"387 700 CURVE SMOOTH",
"291 700 OFFCURVE",
"232 609 OFFCURVE",
"226 424 CURVE SMOOTH",
"214 60 OFFCURVE",
"218 -72 OFFCURVE",
"111 -72 CURVE SMOOTH",
"90 -72 OFFCURVE",
"94 -56 OFFCURVE",
"91 -36 CURVE SMOOTH",
"88 -14 OFFCURVE",
"72 -4 OFFCURVE",
"56 -4 CURVE SMOOTH",
"39 -4 OFFCURVE",
"21 -17 OFFCURVE",
"21 -41 CURVE SMOOTH",
"21 -64 OFFCURVE"
);
}
);
width = 508;
}
);
unicode = 0192;
},
{
glyphname = section;
lastChange = "2020-01-27 06:38:47 +0000";
layers = (
{
layerId = "4FF06481-DC31-47E8-8EFF-C3C3B18F183D";
paths = (
{
closed = 1;
nodes = (
"20 -238 OFFCURVE",
"26 -243 OFFCURVE",
"33 -243 CURVE SMOOTH",
"40 -243 OFFCURVE",
"47 -237 OFFCURVE",
"47 -227 CURVE SMOOTH",
"47 -211 OFFCURVE",
"50 -189 OFFCURVE",
"59 -189 CURVE SMOOTH",
"69 -189 OFFCURVE",
"120 -261 OFFCURVE",
"233 -261 CURVE SMOOTH",
"343 -261 OFFCURVE",
"437 -200 OFFCURVE",
"437 -104 CURVE SMOOTH",
"437 -28 OFFCURVE",
"405 12 OFFCURVE",
"361 43 CURVE SMOOTH",
"348 52 OFFCURVE",
"349 60 OFFCURVE",
"363 67 CURVE SMOOTH",
"417 94 OFFCURVE",
"458 143 OFFCURVE",
"458 209 CURVE SMOOTH",
"458 432 OFFCURVE",
"101 413 OFFCURVE",
"101 569 CURVE SMOOTH",
"101 624 OFFCURVE",
"155 674 OFFCURVE",
"227 674 CURVE SMOOTH",
"335 674 OFFCURVE",
"410 575 OFFCURVE",
"410 488 CURVE SMOOTH",
"410 473 OFFCURVE",
"417 466 OFFCURVE",
"423 466 CURVE SMOOTH",
"430 466 OFFCURVE",
"437 474 OFFCURVE",
"437 488 CURVE SMOOTH",
"437 574 LINE",
"437 669 LINE SMOOTH",
"437 681 OFFCURVE",
"430 686 OFFCURVE",
"423 686 CURVE SMOOTH",
"417 686 OFFCURVE",
"410 682 OFFCURVE",
"410 671 CURVE SMOOTH",
"410 655 OFFCURVE",
"407 646 OFFCURVE",
"400 646 CURVE SMOOTH",
"388 646 OFFCURVE",
"321 700 OFFCURVE",
"227 700 CURVE SMOOTH",
"127 700 OFFCURVE",
"42 628 OFFCURVE",
"42 537 CURVE SMOOTH",
"42 475 OFFCURVE",
"84 437 OFFCURVE",
"140 404 CURVE SMOOTH",
"154 397 OFFCURVE",
"153 390 OFFCURVE",
"138 385 CURVE SMOOTH",
"71 361 OFFCURVE",
"21 300 OFFCURVE",
"21 224 CURVE SMOOTH",
"21 44 OFFCURVE",
"372 60 OFFCURVE",
"372 -112 CURVE SMOOTH",
"372 -189 OFFCURVE",
"327 -235 OFFCURVE",
"232 -235 CURVE SMOOTH",
"144 -235 OFFCURVE",
"47 -144 OFFCURVE",
"47 -33 CURVE SMOOTH",
"47 -24 OFFCURVE",
"40 -19 OFFCURVE",
"34 -19 CURVE SMOOTH",
"27 -19 OFFCURVE",
"20 -24 OFFCURVE",
"20 -36 CURVE SMOOTH",
"20 -122 LINE",
"20 -228 LINE SMOOTH"
);
},
{
closed = 1;
nodes = (
"80 317 OFFCURVE",
"127 364 OFFCURVE",
"192 370 CURVE SMOOTH",
"202 371 OFFCURVE",
"208 370 OFFCURVE",
"218 365 CURVE SMOOTH",
"288 332 OFFCURVE",
"393 292 OFFCURVE",
"393 201 CURVE SMOOTH",
"393 139 OFFCURVE",
"366 95 OFFCURVE",
"318 79 CURVE SMOOTH",
"309 76 OFFCURVE",
"301 77 OFFCURVE",
"292 81 CURVE SMOOTH",
"193 125 OFFCURVE",
"80 162 OFFCURVE",
"80 256 CURVE SMOOTH"
);
}
);
width = 478;
}
);
unicode = 00A7;
},
{
glyphname = currency;
lastChange = "2020-01-28 09:46:04 +0000";
layers = (
{
layerId = "4FF06481-DC31-47E8-8EFF-C3C3B18F183D";
paths = (
{
closed = 1;
nodes = (
"35 133 OFFCURVE",
"39 117 OFFCURVE",
"50 106 CURVE SMOOTH",
"60 96 OFFCURVE",
"77 91 OFFCURVE",
"89 105 CURVE SMOOTH",
"106 124 OFFCURVE",
"122 144 OFFCURVE",
"156 178 CURVE SMOOTH",
"162 184 OFFCURVE",
"169 184 OFFCURVE",
"175 181 CURVE SMOOTH",
"211 163 OFFCURVE",
"250 150 OFFCURVE",
"292 150 CURVE SMOOTH",
"334 150 OFFCURVE",
"376 158 OFFCURVE",
"409 180 CURVE SMOOTH",
"415 184 OFFCURVE",
"422 183 OFFCURVE",
"427 177 CURVE SMOOTH",
"457 141 OFFCURVE",
"477 124 OFFCURVE",
"494 105 CURVE SMOOTH",
"506 91 OFFCURVE",
"523 96 OFFCURVE",
"533 106 CURVE SMOOTH",
"544 117 OFFCURVE",
"548 133 OFFCURVE",
"534 145 CURVE SMOOTH",
"517 160 OFFCURVE",
"500 181 OFFCURVE",
"465 210 CURVE SMOOTH",
"459 215 OFFCURVE",
"458 223 OFFCURVE",
"463 229 CURVE SMOOTH",
"487 258 OFFCURVE",
"497 290 OFFCURVE",
"497 342 CURVE SMOOTH",
"497 393 OFFCURVE",
"486 420 OFFCURVE",
"466 451 CURVE SMOOTH",
"462 457 OFFCURVE",
"463 465 OFFCURVE",
"468 470 CURVE SMOOTH",
"498 500 OFFCURVE",
"516 515 OFFCURVE",
"534 530 CURVE SMOOTH",
"548 542 OFFCURVE",
"544 560 OFFCURVE",
"534 570 CURVE SMOOTH",
"523 581 OFFCURVE",
"506 584 OFFCURVE",
"494 570 CURVE SMOOTH",
"479 552 OFFCURVE",
"463 535 OFFCURVE",
"433 505 CURVE SMOOTH",
"427 499 OFFCURVE",
"420 499 OFFCURVE",
"414 503 CURVE SMOOTH",
"380 526 OFFCURVE",
"336 536 OFFCURVE",
"292 536 CURVE SMOOTH",
"248 536 OFFCURVE",
"205 525 OFFCURVE",
"170 502 CURVE SMOOTH",
"164 498 OFFCURVE",
"156 499 OFFCURVE",
"151 504 CURVE SMOOTH",
"120 535 OFFCURVE",
"104 552 OFFCURVE",
"89 570 CURVE SMOOTH",
"77 584 OFFCURVE",
"60 581 OFFCURVE",
"49 570 CURVE SMOOTH",
"39 560 OFFCURVE",
"35 542 OFFCURVE",
"49 530 CURVE SMOOTH",
"67 514 OFFCURVE",
"82 497 OFFCURVE",
"116 469 CURVE SMOOTH",
"122 464 OFFCURVE",
"122 456 OFFCURVE",
"118 450 CURVE SMOOTH",
"98 420 OFFCURVE",
"88 392 OFFCURVE",
"88 342 CURVE SMOOTH",
"88 290 OFFCURVE",
"101 261 OFFCURVE",
"122 230 CURVE SMOOTH",
"126 224 OFFCURVE",
"125 216 OFFCURVE",
"120 211 CURVE SMOOTH",
"86 177 OFFCURVE",
"66 160 OFFCURVE",
"49 145 CURVE SMOOTH"
);
},
{
closed = 1;
nodes = (
"165 443 OFFCURVE",
"211 510 OFFCURVE",
"292 510 CURVE SMOOTH",
"374 510 OFFCURVE",
"419 443 OFFCURVE",
"419 343 CURVE SMOOTH",
"419 242 OFFCURVE",
"374 176 OFFCURVE",
"292 176 CURVE SMOOTH",
"211 176 OFFCURVE",
"165 242 OFFCURVE",
"165 343 CURVE SMOOTH"
);
}
);
width = 583;
}
);
unicode = 00A4;
},
{
glyphname = guilsinglleft;
lastChange = "2020-01-28 13:49:34 +0000";
layers = (
{
layerId = "4FF06481-DC31-47E8-8EFF-C3C3B18F183D";
paths = (
{
closed = 1;
nodes = (
"40 183 OFFCURVE",
"43 176 OFFCURVE",
"51 171 CURVE SMOOTH",
"95 144 OFFCURVE",
"122 121 OFFCURVE",
"157 94 CURVE SMOOTH",
"192 67 OFFCURVE",
"221 47 OFFCURVE",
"255 13 CURVE SMOOTH",
"262 6 OFFCURVE",
"270 3 OFFCURVE",
"278 3 CURVE SMOOTH",
"294 3 OFFCURVE",
"309 17 OFFCURVE",
"309 28 CURVE SMOOTH",
"309 34 OFFCURVE",
"306 40 OFFCURVE",
"298 45 CURVE SMOOTH",
"255 72 OFFCURVE",
"226 92 OFFCURVE",
"191 121 CURVE SMOOTH",
"168 140 OFFCURVE",
"147 155 OFFCURVE",
"126 176 CURVE SMOOTH",
"122 180 OFFCURVE",
"120 185 OFFCURVE",
"120 189 CURVE SMOOTH",
"120 194 OFFCURVE",
"122 197 OFFCURVE",
"126 201 CURVE SMOOTH",
"147 222 OFFCURVE",
"167 238 OFFCURVE",
"191 256 CURVE SMOOTH",
"227 283 OFFCURVE",
"255 305 OFFCURVE",
"298 332 CURVE SMOOTH",
"306 337 OFFCURVE",
"309 343 OFFCURVE",
"309 349 CURVE SMOOTH",
"309 361 OFFCURVE",
"293 374 OFFCURVE",
"278 374 CURVE SMOOTH",
"270 374 OFFCURVE",
"262 371 OFFCURVE",
"255 364 CURVE SMOOTH",
"221 330 OFFCURVE",
"192 310 OFFCURVE",
"157 283 CURVE SMOOTH",
"122 256 OFFCURVE",
"95 233 OFFCURVE",
"51 206 CURVE SMOOTH",
"43 201 OFFCURVE",
"40 194 OFFCURVE",
"40 188 CURVE SMOOTH"
);
}
);
width = 369;
}
);
unicode = 2039;
},
{
glyphname = endash;
lastChange = "2020-02-11 18:07:03 +0000";
layers = (
{
layerId = "4FF06481-DC31-47E8-8EFF-C3C3B18F183D";
paths = (
{
closed = 1;
nodes = (
"515 161 LINE",
"532 161 OFFCURVE",
"540 172 OFFCURVE",
"540 184 CURVE SMOOTH",
"540 196 OFFCURVE",
"532 207 OFFCURVE",
"515 207 CURVE",
"45 207 LINE",
"29 207 OFFCURVE",
"20 196 OFFCURVE",
"20 184 CURVE SMOOTH",
"20 172 OFFCURVE",
"29 161 OFFCURVE",
"45 161 CURVE"
);
}
);
width = 473;
}
);
widthMetricsKey = n;
unicode = 2013;
},
{
glyphname = periodcentered;
lastChange = "2020-01-26 12:25:25 +0000";
layers = (
{
layerId = "4FF06481-DC31-47E8-8EFF-C3C3B18F183D";
paths = (
{
closed = 1;
nodes = (
"121 205 OFFCURVE",
"145 229 OFFCURVE",
"145 258 CURVE SMOOTH",
"145 286 OFFCURVE",
"121 310 OFFCURVE",
"93 310 CURVE SMOOTH",
"64 310 OFFCURVE",
"40 286 OFFCURVE",
"40 258 CURVE SMOOTH",
"40 229 OFFCURVE",
"64 205 OFFCURVE",
"93 205 CURVE SMOOTH"
);
}
);
width = 185;
}
);
unicode = 00B7;
},
{
glyphname = paragraph;
lastChange = "2020-01-28 14:03:33 +0000";
layers = (
{
layerId = "4FF06481-DC31-47E8-8EFF-C3C3B18F183D";
paths = (
{
closed = 1;
nodes = (
"416 -2 OFFCURVE",
"431 10 OFFCURVE",
"430 33 CURVE SMOOTH",
"428 94 OFFCURVE",
"424 220 OFFCURVE",
"424 351 CURVE SMOOTH",
"424 478 OFFCURVE",
"428 605 OFFCURVE",
"430 667 CURVE SMOOTH",
"431 691 OFFCURVE",
"416 700 OFFCURVE",
"402 700 CURVE SMOOTH",
"387 700 OFFCURVE",
"373 691 OFFCURVE",
"374 667 CURVE SMOOTH",
"376 607 OFFCURVE",
"379 472 OFFCURVE",
"379 339 CURVE SMOOTH",
"379 212 OFFCURVE",
"376 91 OFFCURVE",
"374 33 CURVE SMOOTH",
"373 10 OFFCURVE",
"387 -2 OFFCURVE",
"402 -2 CURVE SMOOTH"
);
},
{
closed = 1;
nodes = (
"40 418 OFFCURVE",
"106 341 OFFCURVE",
"226 324 CURVE SMOOTH",
"244 321 OFFCURVE",
"257 312 OFFCURVE",
"257 298 CURVE SMOOTH",
"257 186 OFFCURVE",
"254 84 OFFCURVE",
"252 33 CURVE SMOOTH",
"251 10 OFFCURVE",
"265 -2 OFFCURVE",
"280 -2 CURVE SMOOTH",
"294 -2 OFFCURVE",
"309 10 OFFCURVE",
"308 33 CURVE SMOOTH",
"306 94 OFFCURVE",
"302 220 OFFCURVE",
"302 351 CURVE SMOOTH",
"302 478 OFFCURVE",
"306 605 OFFCURVE",
"308 667 CURVE SMOOTH",
"309 691 OFFCURVE",
"294 700 OFFCURVE",
"280 700 CURVE SMOOTH",
"125 700 OFFCURVE",
"40 615 OFFCURVE",
"40 510 CURVE SMOOTH"
);
}
);
width = 470;
}
);
unicode = 00B6;
},
{
glyphname = bullet;
lastChange = "2020-01-26 12:25:13 +0000";
layers = (
{
layerId = "4FF06481-DC31-47E8-8EFF-C3C3B18F183D";
paths = (
{
closed = 1;
nodes = (
"214 146 OFFCURVE",
"263 195 OFFCURVE",
"263 253 CURVE SMOOTH",
"263 310 OFFCURVE",
"214 359 OFFCURVE",
"157 359 CURVE SMOOTH",
"99 359 OFFCURVE",
"50 310 OFFCURVE",
"50 253 CURVE SMOOTH",
"50 195 OFFCURVE",
"99 146 OFFCURVE",
"157 146 CURVE SMOOTH"
);
}
);
width = 313;
}
);
unicode = 2022;
},
{
glyphname = emdash;
lastChange = "2020-01-26 13:16:50 +0000";
layers = (
{
layerId = "4FF06481-DC31-47E8-8EFF-C3C3B18F183D";
paths = (
{
closed = 1;
nodes = (
"746 161 LINE",
"763 161 OFFCURVE",
"771 172 OFFCURVE",
"771 184 CURVE SMOOTH",
"771 196 OFFCURVE",
"763 207 OFFCURVE",
"746 207 CURVE",
"45 207 LINE",
"29 207 OFFCURVE",
"20 196 OFFCURVE",
"20 184 CURVE SMOOTH",
"20 172 OFFCURVE",
"29 161 OFFCURVE",
"45 161 CURVE"
);
}
);
width = 706;
}
);
widthMetricsKey = m;
unicode = 2014;
},
{
glyphname = AE;
lastChange = "2020-01-23 05:40:56 +0000";
layers = (
{
anchors = (
{
name = bottom;
position = "{483, 0}";
},
{
name = top;
position = "{578, 700}";
}
);
layerId = "4FF06481-DC31-47E8-8EFF-C3C3B18F183D";
paths = (
{
closed = 1;
nodes = (
"542 322 LINE",
"542 354 LINE",
"331 354 LINE",
"331 322 LINE"
);
},
{
closed = 1;
nodes = (
"798 244 OFFCURVE",
"798 292 OFFCURVE",
"798 341 CURVE SMOOTH",
"798 390 OFFCURVE",
"798 448 OFFCURVE",
"798 450 CURVE SMOOTH",
"798 470 OFFCURVE",
"768 468 OFFCURVE",
"771 449 CURVE SMOOTH",
"777 414 OFFCURVE",
"764 370 OFFCURVE",
"721 363 CURVE SMOOTH",
"689 358 OFFCURVE",
"648 357 OFFCURVE",
"542 357 CURVE",
"542 325 LINE",
"648 325 OFFCURVE",
"689 325 OFFCURVE",
"721 319 CURVE SMOOTH",
"764 311 OFFCURVE",
"777 278 OFFCURVE",
"771 243 CURVE SMOOTH",
"768 224 OFFCURVE",
"798 222 OFFCURVE",
"798 242 CURVE SMOOTH"
);
},
{
closed = 1;
nodes = (
"40 1 OFFCURVE",
"91 1 OFFCURVE",
"169 1 CURVE SMOOTH",
"302 1 LINE SMOOTH",
"332 1 OFFCURVE",
"328 31 OFFCURVE",
"300 28 CURVE SMOOTH",
"228 21 OFFCURVE",
"179 20 OFFCURVE",
"187 52 CURVE SMOOTH",
"196 87 OFFCURVE",
"451 516 OFFCURVE",
"507 612 CURVE",
"514 545 OFFCURVE",
"517 122 OFFCURVE",
"504 68 CURVE SMOOTH",
"493 25 OFFCURVE",
"453 22 OFFCURVE",
"401 28 CURVE SMOOTH",
"373 31 OFFCURVE",
"369 1 OFFCURVE",
"399 1 CURVE SMOOTH",
"403 1 OFFCURVE",
"474 1 OFFCURVE",
"548 1 CURVE SMOOTH",
"697 1 LINE SMOOTH",
"796 1 OFFCURVE",
"864 0 OFFCURVE",
"893 0 CURVE SMOOTH",
"919 0 OFFCURVE",
"927 9 OFFCURVE",
"930 53 CURVE SMOOTH",
"932 81 OFFCURVE",
"936 147 OFFCURVE",
"936 203 CURVE SMOOTH",
"936 221 OFFCURVE",
"928 228 OFFCURVE",
"919 229 CURVE SMOOTH",
"910 230 OFFCURVE",
"901 222 OFFCURVE",
"901 206 CURVE SMOOTH",
"901 85 OFFCURVE",
"866 42 OFFCURVE",
"809 34 CURVE SMOOTH",
"755 26 OFFCURVE",
"748 28 OFFCURVE",
"702 28 CURVE SMOOTH",
"647 28 OFFCURVE",
"603 25 OFFCURVE",
"592 68 CURVE SMOOTH",
"584 100 OFFCURVE",
"583 215 OFFCURVE",
"583 341 CURVE SMOOTH",
"583 467 OFFCURVE",
"584 582 OFFCURVE",
"592 614 CURVE SMOOTH",
"603 657 OFFCURVE",
"641 655 OFFCURVE",
"702 654 CURVE SMOOTH",
"756 653 OFFCURVE",
"801 653 OFFCURVE",
"833 632 CURVE SMOOTH",
"879 602 OFFCURVE",
"890 545 OFFCURVE",
"890 496 CURVE SMOOTH",
"890 478 OFFCURVE",
"901 470 OFFCURVE",
"910 470 CURVE SMOOTH",
"918 470 OFFCURVE",
"926 478 OFFCURVE",
"926 494 CURVE SMOOTH",
"926 526 OFFCURVE",
"922 572 OFFCURVE",
"915 644 CURVE SMOOTH",
"912 674 OFFCURVE",
"900 680 OFFCURVE",
"888 680 CURVE SMOOTH",
"884 680 OFFCURVE",
"629 681 OFFCURVE",
"548 681 CURVE SMOOTH",
"399 681 LINE SMOOTH",
"369 681 OFFCURVE",
"373 651 OFFCURVE",
"401 654 CURVE SMOOTH",
"450 660 OFFCURVE",
"493 656 OFFCURVE",
"476 627 CURVE SMOOTH",
"408 512 OFFCURVE",
"170 96 OFFCURVE",
"139 57 CURVE SMOOTH",
"117 29 OFFCURVE",
"70 23 OFFCURVE",
"38 28 CURVE SMOOTH",
"10 32 OFFCURVE",
"6 1 OFFCURVE",
"36 1 CURVE SMOOTH"
);
}
);
width = 966;
}
);
leftKerningGroup = A;
leftMetricsKey = A;
rightKerningGroup = E;
rightMetricsKey = E;
unicode = 00C6;
},
{
glyphname = OE;
lastChange = "2020-01-25 13:53:08 +0000";
layers = (
{
anchors = (
{
name = bottom;
position = "{658, 0}";
},
{
name = top;
position = "{658, 700}";
}
);
layerId = "4FF06481-DC31-47E8-8EFF-C3C3B18F183D";
paths = (
{
closed = 1;
nodes = (
"20 107 OFFCURVE",
"194 0 OFFCURVE",
"344 0 CURVE SMOOTH",
"426 0 OFFCURVE",
"471 1 OFFCURVE",
"500 1 CURVE SMOOTH",
"697 1 LINE SMOOTH",
"806 1 OFFCURVE",
"884 0 OFFCURVE",
"913 0 CURVE SMOOTH",
"939 0 OFFCURVE",
"947 9 OFFCURVE",
"950 53 CURVE SMOOTH",
"952 81 OFFCURVE",
"956 147 OFFCURVE",
"956 203 CURVE SMOOTH",
"956 221 OFFCURVE",
"948 228 OFFCURVE",
"939 229 CURVE SMOOTH",
"930 230 OFFCURVE",
"921 222 OFFCURVE",
"921 206 CURVE SMOOTH",
"921 85 OFFCURVE",
"886 42 OFFCURVE",
"829 34 CURVE SMOOTH",
"775 26 OFFCURVE",
"748 28 OFFCURVE",
"702 28 CURVE SMOOTH",
"647 28 OFFCURVE",
"603 25 OFFCURVE",
"592 68 CURVE SMOOTH",
"585 96 OFFCURVE",
"583 195 OFFCURVE",
"583 299 CURVE SMOOTH",
"583 316 OFFCURVE",
"592 325 OFFCURVE",
"609 325 CURVE SMOOTH",
"675 325 OFFCURVE",
"705 324 OFFCURVE",
"731 319 CURVE SMOOTH",
"774 311 OFFCURVE",
"787 278 OFFCURVE",
"781 243 CURVE SMOOTH",
"778 224 OFFCURVE",
"808 222 OFFCURVE",
"808 242 CURVE SMOOTH",
"808 450 LINE SMOOTH",
"808 470 OFFCURVE",
"778 468 OFFCURVE",
"781 449 CURVE SMOOTH",
"787 414 OFFCURVE",
"774 370 OFFCURVE",
"731 363 CURVE SMOOTH",
"708 359 OFFCURVE",
"679 357 OFFCURVE",
"609 357 CURVE SMOOTH",
"592 357 OFFCURVE",
"583 366 OFFCURVE",
"583 383 CURVE SMOOTH",
"583 487 OFFCURVE",
"585 586 OFFCURVE",
"592 614 CURVE SMOOTH",
"603 657 OFFCURVE",
"641 655 OFFCURVE",
"702 654 CURVE SMOOTH",
"766 653 OFFCURVE",
"821 653 OFFCURVE",
"853 632 CURVE SMOOTH",
"899 602 OFFCURVE",
"910 545 OFFCURVE",
"910 496 CURVE SMOOTH",
"910 478 OFFCURVE",
"921 470 OFFCURVE",
"930 470 CURVE SMOOTH",
"938 470 OFFCURVE",
"946 478 OFFCURVE",
"946 494 CURVE SMOOTH",
"946 526 OFFCURVE",
"942 572 OFFCURVE",
"935 644 CURVE SMOOTH",
"932 674 OFFCURVE",
"920 680 OFFCURVE",
"908 680 CURVE SMOOTH",
"344 681 LINE SMOOTH",
"194 681 OFFCURVE",
"20 572 OFFCURVE",
"20 340 CURVE SMOOTH"
);
},
{
closed = 1;
nodes = (
"100 527 OFFCURVE",
"201 655 OFFCURVE",
"344 655 CURVE SMOOTH",
"459 655 OFFCURVE",
"503 616 OFFCURVE",
"506 576 CURVE SMOOTH",
"513 487 OFFCURVE",
"513 383 OFFCURVE",
"513 341 CURVE SMOOTH",
"513 225 OFFCURVE",
"508 166 OFFCURVE",
"504 106 CURVE SMOOTH",
"501 67 OFFCURVE",
"471 26 OFFCURVE",
"344 26 CURVE SMOOTH",
"201 26 OFFCURVE",
"100 152 OFFCURVE",
"100 340 CURVE SMOOTH"
);
}
);
width = 986;
}
);
leftKerningGroup = O;
leftMetricsKey = O;
rightKerningGroup = E;
rightMetricsKey = E;
unicode = 0152;
},
{
glyphname = ae;
lastChange = "2020-01-30 13:27:57 +0000";
layers = (
{
anchors = (
{
name = bottom;
position = "{287, 0}";
},
{
name = ogonek;
position = "{394, 0}";
},
{
name = top;
position = "{292, 380}";
}
);
layerId = "4FF06481-DC31-47E8-8EFF-C3C3B18F183D";
paths = (
{
closed = 1;
nodes = (
"232 147 OFFCURVE",
"232 37 OFFCURVE",
"156 31 CURVE SMOOTH",
"118 28 OFFCURVE",
"84 54 OFFCURVE",
"89 102 CURVE SMOOTH",
"97 183 OFFCURVE",
"185 191 OFFCURVE",
"284 191 CURVE SMOOTH",
"349 191 OFFCURVE",
"462 190 OFFCURVE",
"493 190 CURVE SMOOTH",
"524 190 OFFCURVE",
"535 214 OFFCURVE",
"535 244 CURVE SMOOTH",
"535 329 OFFCURVE",
"467 380 OFFCURVE",
"386 380 CURVE SMOOTH",
"315 380 OFFCURVE",
"232 323 OFFCURVE",
"232 193 CURVE SMOOTH"
);
},
{
closed = 1;
nodes = (
"235 56 OFFCURVE",
"315 0 OFFCURVE",
"396 0 CURVE SMOOTH",
"450 0 OFFCURVE",
"494 13 OFFCURVE",
"539 81 CURVE SMOOTH",
"543 87 OFFCURVE",
"545 92 OFFCURVE",
"545 97 CURVE SMOOTH",
"545 105 OFFCURVE",
"540 110 OFFCURVE",
"534 110 CURVE SMOOTH",
"529 110 OFFCURVE",
"524 107 OFFCURVE",
"519 99 CURVE SMOOTH",
"491 55 OFFCURVE",
"448 36 OFFCURVE",
"406 36 CURVE SMOOTH",
"352 36 OFFCURVE",
"301 91 OFFCURVE",
"301 190 CURVE SMOOTH",
"301 305 OFFCURVE",
"336 354 OFFCURVE",
"386 354 CURVE SMOOTH",
"433 354 OFFCURVE",
"464 313 OFFCURVE",
"464 257 CURVE SMOOTH",
"464 245 OFFCURVE",
"464 216 OFFCURVE",
"436 216 CURVE SMOOTH",
"384 216 OFFCURVE",
"256 215 OFFCURVE",
"227 215 CURVE SMOOTH",
"147 215 OFFCURVE",
"20 190 OFFCURVE",
"20 83 CURVE SMOOTH",
"20 17 OFFCURVE",
"81 -1 OFFCURVE",
"143 -1 CURVE SMOOTH",
"213 -1 OFFCURVE",
"300 42 OFFCURVE",
"300 234 CURVE SMOOTH",
"300 336 OFFCURVE",
"236 380 OFFCURVE",
"164 380 CURVE SMOOTH",
"98 380 OFFCURVE",
"34 336 OFFCURVE",
"34 289 CURVE SMOOTH",
"34 267 OFFCURVE",
"48 256 OFFCURVE",
"63 256 CURVE SMOOTH",
"78 256 OFFCURVE",
"95 268 OFFCURVE",
"92 291 CURVE SMOOTH",
"88 323 OFFCURVE",
"123 359 OFFCURVE",
"160 359 CURVE SMOOTH",
"199 359 OFFCURVE",
"229 335 OFFCURVE",
"230 284 CURVE SMOOTH",
"232 185 LINE SMOOTH"
);
}
);
width = 565;
}
);
leftKerningGroup = a;
leftMetricsKey = a;
rightKerningGroup = e;
rightMetricsKey = e;
unicode = 00E6;
},
{
glyphname = idotless;
lastChange = "2020-01-23 06:01:15 +0000";
layers = (
{
anchors = (
{
name = bottom;
position = "{113, 0}";
},
{
name = ogonek;
position = "{183, 11}";
},
{
name = top;
position = "{103, 380}";
}
);
layerId = "4FF06481-DC31-47E8-8EFF-C3C3B18F183D";
paths = (
{
closed = 1;
nodes = (
"55 1 OFFCURVE",
"66 1 OFFCURVE",
"111 1 CURVE SMOOTH",
"159 1 OFFCURVE",
"170 1 OFFCURVE",
"194 1 CURVE SMOOTH",
"224 1 OFFCURVE",
"220 33 OFFCURVE",
"192 28 CURVE SMOOTH",
"163 23 OFFCURVE",
"151 34 OFFCURVE",
"146 60 CURVE SMOOTH",
"140 100 OFFCURVE",
"139 167 OFFCURVE",
"143 259 CURVE SMOOTH",
"145 307 OFFCURVE",
"149 353 OFFCURVE",
"149 368 CURVE SMOOTH",
"149 376 OFFCURVE",
"143 380 OFFCURVE",
"135 380 CURVE SMOOTH",
"117 380 OFFCURVE",
"89 344 OFFCURVE",
"41 332 CURVE SMOOTH",
"27 329 OFFCURVE",
"20 322 OFFCURVE",
"20 317 CURVE SMOOTH",
"20 311 OFFCURVE",
"27 306 OFFCURVE",
"41 306 CURVE SMOOTH",
"68 306 OFFCURVE",
"77 278 OFFCURVE",
"77 246 CURVE SMOOTH",
"77 168 OFFCURVE",
"84 101 OFFCURVE",
"73 60 CURVE SMOOTH",
"67 38 OFFCURVE",
"54 24 OFFCURVE",
"33 28 CURVE SMOOTH",
"5 33 OFFCURVE",
"1 1 OFFCURVE",
"31 1 CURVE SMOOTH"
);
}
);
width = 225;
}
);
leftKerningGroup = i;
leftMetricsKey = i;
rightKerningGroup = i;
rightMetricsKey = i;
unicode = 0131;
},
{
glyphname = oe;
lastChange = "2020-01-30 09:35:18 +0000";
layers = (
{
anchors = (
{
name = bottom;
position = "{387, 0}";
},
{
name = top;
position = "{387, 380}";
}
);
layerId = "4FF06481-DC31-47E8-8EFF-C3C3B18F183D";
paths = (
{
closed = 1;
nodes = (
"20 60 OFFCURVE",
"120 0 OFFCURVE",
"211 0 CURVE SMOOTH",
"263 0 OFFCURVE",
"318 19 OFFCURVE",
"356 60 CURVE SMOOTH",
"363 67 OFFCURVE",
"369 67 OFFCURVE",
"376 59 CURVE SMOOTH",
"413 19 OFFCURVE",
"465 0 OFFCURVE",
"511 0 CURVE SMOOTH",
"565 0 OFFCURVE",
"608 14 OFFCURVE",
"654 81 CURVE SMOOTH",
"670 104 OFFCURVE",
"649 123 OFFCURVE",
"634 99 CURVE SMOOTH",
"606 55 OFFCURVE",
"563 36 OFFCURVE",
"521 36 CURVE SMOOTH",
"451 36 OFFCURVE",
"403 115 OFFCURVE",
"403 201 CURVE SMOOTH",
"403 210 OFFCURVE",
"409 215 OFFCURVE",
"418 215 CURVE SMOOTH",
"621 214 LINE SMOOTH",
"636 214 OFFCURVE",
"652 231 OFFCURVE",
"650 265 CURVE SMOOTH",
"646 338 OFFCURVE",
"579 380 OFFCURVE",
"501 380 CURVE SMOOTH",
"461 380 OFFCURVE",
"411 360 OFFCURVE",
"376 320 CURVE SMOOTH",
"369 312 OFFCURVE",
"363 312 OFFCURVE",
"355 320 CURVE SMOOTH",
"318 360 OFFCURVE",
"263 380 OFFCURVE",
"211 380 CURVE SMOOTH",
"120 380 OFFCURVE",
"20 319 OFFCURVE",
"20 189 CURVE SMOOTH"
);
},
{
closed = 1;
nodes = (
"97 287 OFFCURVE",
"143 354 OFFCURVE",
"211 354 CURVE SMOOTH",
"280 354 OFFCURVE",
"325 287 OFFCURVE",
"325 190 CURVE SMOOTH",
"325 92 OFFCURVE",
"280 26 OFFCURVE",
"211 26 CURVE SMOOTH",
"143 26 OFFCURVE",
"97 92 OFFCURVE",
"97 190 CURVE SMOOTH"
);
},
{
closed = 1;
nodes = (
"429 322 OFFCURVE",
"467 354 OFFCURVE",
"501 354 CURVE SMOOTH",
"548 354 OFFCURVE",
"579 319 OFFCURVE",
"579 270 CURVE SMOOTH",
"579 258 OFFCURVE",
"579 240 OFFCURVE",
"551 240 CURVE SMOOTH",
"424 239 LINE SMOOTH",
"414 239 OFFCURVE",
"408 245 OFFCURVE",
"411 256 CURVE SMOOTH"
);
}
);
width = 680;
}
);
leftKerningGroup = o;
leftMetricsKey = o;
rightKerningGroup = e;
rightMetricsKey = e;
unicode = 0153;
},
{
glyphname = germandbls;
lastChange = "2020-01-26 13:54:59 +0000";
layers = (
{
anchors = (
{
name = bottom;
position = "{168, 0}";
},
{
name = top;
position = "{168, 880}";
}
);
layerId = "4FF06481-DC31-47E8-8EFF-C3C3B18F183D";
paths = (
{
closed = 1;
nodes = (
"20 8 OFFCURVE",
"27 1 OFFCURVE",
"41 1 CURVE SMOOTH",
"257 1 LINE SMOOTH",
"271 1 OFFCURVE",
"278 8 OFFCURVE",
"278 15 CURVE SMOOTH",
"278 21 OFFCURVE",
"271 28 OFFCURVE",
"260 28 CURVE SMOOTH",
"223 28 OFFCURVE",
"211 14 OFFCURVE",
"198 68 CURVE SMOOTH",
"187 112 OFFCURVE",
"189 370 OFFCURVE",
"189 456 CURVE SMOOTH",
"189 603 OFFCURVE",
"240 676 OFFCURVE",
"308 680 CURVE SMOOTH",
"384 684 OFFCURVE",
"429 640 OFFCURVE",
"429 577 CURVE SMOOTH",
"429 494 OFFCURVE",
"295 469 OFFCURVE",
"295 382 CURVE SMOOTH",
"295 305 OFFCURVE",
"519 245 OFFCURVE",
"524 128 CURVE SMOOTH",
"529 0 OFFCURVE",
"351 -16 OFFCURVE",
"333 98 CURVE SMOOTH",
"321 173 OFFCURVE",
"243 132 OFFCURVE",
"274 73 CURVE SMOOTH",
"340 -53 OFFCURVE",
"580 -17 OFFCURVE",
"576 159 CURVE SMOOTH",
"573 309 OFFCURVE",
"354 362 OFFCURVE",
"354 416 CURVE SMOOTH",
"354 463 OFFCURVE",
"499 509 OFFCURVE",
"499 592 CURVE SMOOTH",
"499 639 OFFCURVE",
"441 712 OFFCURVE",
"327 709 CURVE SMOOTH",
"190 705 OFFCURVE",
"119 602 OFFCURVE",
"119 450 CURVE SMOOTH",
"119 383 OFFCURVE",
"119 104 OFFCURVE",
"110 68 CURVE SMOOTH",
"98 20 OFFCURVE",
"78 25 OFFCURVE",
"43 28 CURVE SMOOTH",
"28 30 OFFCURVE",
"20 23 OFFCURVE",
"20 15 CURVE SMOOTH"
);
}
);
width = 596;
}
);
unicode = 00DF;
},
{
glyphname = softhyphen;
lastChange = "2020-01-26 12:49:43 +0000";
layers = (
{
layerId = "4FF06481-DC31-47E8-8EFF-C3C3B18F183D";
paths = (
{
closed = 1;
nodes = (
"108 164 OFFCURVE",
"153 166 OFFCURVE",
"189 166 CURVE SMOOTH",
"225 166 OFFCURVE",
"271 163 OFFCURVE",
"313 161 CURVE SMOOTH",
"330 160 OFFCURVE",
"338 172 OFFCURVE",
"338 184 CURVE SMOOTH",
"338 196 OFFCURVE",
"330 208 OFFCURVE",
"313 207 CURVE SMOOTH",
"271 205 OFFCURVE",
"225 203 OFFCURVE",
"189 203 CURVE SMOOTH",
"153 203 OFFCURVE",
"108 204 OFFCURVE",
"65 207 CURVE SMOOTH",
"49 208 OFFCURVE",
"40 196 OFFCURVE",
"40 184 CURVE SMOOTH",
"40 172 OFFCURVE",
"49 160 OFFCURVE",
"65 161 CURVE SMOOTH"
);
}
);
width = 378;
}
);
unicode = 00AD;
},
{
glyphname = copyright;
lastChange = "2020-02-18 06:26:13 +0000";
layers = (
{
hints = (
{
horizontal = 1;
place = "{161, 14.211}";
type = Stem;
},
{
horizontal = 1;
place = "{515.211, 14.211}";
type = Stem;
},
{
place = "{236.316, 36.842}";
type = Stem;
},
{
place = "{535.263, 14.211}";
type = Stem;
},
{
place = "{535.263, 14.211}";
type = Stem;
}
);
layerId = "4FF06481-DC31-47E8-8EFF-C3C3B18F183D";
paths = (
{
closed = 1;
nodes = (
"544 0 OFFCURVE",
"748 110 OFFCURVE",
"748 349 CURVE SMOOTH",
"748 588 OFFCURVE",
"544 700 OFFCURVE",
"394 700 CURVE SMOOTH",
"244 700 OFFCURVE",
"40 588 OFFCURVE",
"40 349 CURVE SMOOTH",
"40 110 OFFCURVE",
"244 0 OFFCURVE",
"394 0 CURVE SMOOTH"
);
},
{
closed = 1;
nodes = (
"248 39 OFFCURVE",
"92 151 OFFCURVE",
"92 349 CURVE SMOOTH",
"92 547 OFFCURVE",
"248 661 OFFCURVE",
"394 661 CURVE SMOOTH",
"540 661 OFFCURVE",
"696 547 OFFCURVE",
"696 349 CURVE SMOOTH",
"696 151 OFFCURVE",
"540 39 OFFCURVE",
"394 39 CURVE SMOOTH"
);
},
{
closed = 1;
nodes = (
"459 171 OFFCURVE",
"497 198 OFFCURVE",
"512 219 CURVE SMOOTH",
"519 229 OFFCURVE",
"522 216 OFFCURVE",
"522 206 CURVE SMOOTH",
"522 188 OFFCURVE",
"550 188 OFFCURVE",
"550 205 CURVE SMOOTH",
"550 216 OFFCURVE",
"550 237 OFFCURVE",
"550 264 CURVE SMOOTH",
"550 284 OFFCURVE",
"550 310 OFFCURVE",
"550 311 CURVE SMOOTH",
"550 331 OFFCURVE",
"522 328 OFFCURVE",
"522 313 CURVE SMOOTH",
"522 296 OFFCURVE",
"495 198 OFFCURVE",
"402 198 CURVE SMOOTH",
"336 198 OFFCURVE",
"286 266 OFFCURVE",
"286 345 CURVE SMOOTH",
"286 423 OFFCURVE",
"336 492 OFFCURVE",
"402 492 CURVE SMOOTH",
"476 492 OFFCURVE",
"521 427 OFFCURVE",
"521 392 CURVE SMOOTH",
"521 372 OFFCURVE",
"548 374 OFFCURVE",
"548 392 CURVE SMOOTH",
"548 400 OFFCURVE",
"548 413 OFFCURVE",
"548 439 CURVE SMOOTH",
"548 466 OFFCURVE",
"548 483 OFFCURVE",
"548 492 CURVE SMOOTH",
"548 510 OFFCURVE",
"521 508 OFFCURVE",
"521 493 CURVE SMOOTH",
"521 480 OFFCURVE",
"517 475 OFFCURVE",
"509 482 CURVE SMOOTH",
"492 497 OFFCURVE",
"459 519 OFFCURVE",
"402 519 CURVE SMOOTH",
"333 519 OFFCURVE",
"226 470 OFFCURVE",
"226 345 CURVE SMOOTH",
"226 219 OFFCURVE",
"333 171 OFFCURVE",
"402 171 CURVE SMOOTH"
);
}
);
width = 788;
}
);
unicode = 00A9;
},
{
glyphname = logicalnot;
lastChange = "2020-01-28 13:29:45 +0000";
layers = (
{
layerId = "4FF06481-DC31-47E8-8EFF-C3C3B18F183D";
paths = (
{
closed = 1;
nodes = (
"40 288 OFFCURVE",
"53 273 OFFCURVE",
"78 274 CURVE SMOOTH",
"141 277 OFFCURVE",
"182 282 OFFCURVE",
"303 282 CURVE SMOOTH",
"395 282 OFFCURVE",
"442 278 OFFCURVE",
"487 275 CURVE SMOOTH",
"500 274 OFFCURVE",
"510 265 OFFCURVE",
"510 252 CURVE SMOOTH",
"510 219 OFFCURVE",
"513 193 OFFCURVE",
"513 168 CURVE SMOOTH",
"513 122 OFFCURVE",
"512 105 OFFCURVE",
"508 48 CURVE SMOOTH",
"506 22 OFFCURVE",
"520 10 OFFCURVE",
"536 10 CURVE SMOOTH",
"551 10 OFFCURVE",
"566 22 OFFCURVE",
"565 48 CURVE SMOOTH",
"563 105 OFFCURVE",
"562 122 OFFCURVE",
"562 168 CURVE SMOOTH",
"562 190 OFFCURVE",
"565 293 OFFCURVE",
"565 303 CURVE SMOOTH",
"565 331 OFFCURVE",
"541 331 OFFCURVE",
"535 331 CURVE SMOOTH",
"495 331 OFFCURVE",
"433 326 OFFCURVE",
"303 326 CURVE SMOOTH",
"182 326 OFFCURVE",
"141 326 OFFCURVE",
"78 331 CURVE SMOOTH",
"53 333 OFFCURVE",
"40 319 OFFCURVE",
"40 303 CURVE SMOOTH"
);
}
);
width = 600;
}
);
unicode = 00AC;
},
{
glyphname = registered;
lastChange = "2020-01-29 13:27:31 +0000";
layers = (
{
layerId = "4FF06481-DC31-47E8-8EFF-C3C3B18F183D";
paths = (
{
closed = 1;
nodes = (
"285 332 OFFCURVE",
"392 390 OFFCURVE",
"392 515 CURVE SMOOTH",
"392 641 OFFCURVE",
"285 700 OFFCURVE",
"206 700 CURVE SMOOTH",
"127 700 OFFCURVE",
"20 641 OFFCURVE",
"20 515 CURVE SMOOTH",
"20 390 OFFCURVE",
"127 332 OFFCURVE",
"206 332 CURVE SMOOTH"
);
},
{
closed = 1;
nodes = (
"130 354 OFFCURVE",
"49 412 OFFCURVE",
"49 515 CURVE SMOOTH",
"49 619 OFFCURVE",
"130 678 OFFCURVE",
"206 678 CURVE SMOOTH",
"282 678 OFFCURVE",
"363 619 OFFCURVE",
"363 515 CURVE SMOOTH",
"363 412 OFFCURVE",
"282 354 OFFCURVE",
"206 354 CURVE SMOOTH"
);
},
{
closed = 1;
nodes = (
"142 416 OFFCURVE",
"198 419 OFFCURVE",
"213 417 CURVE SMOOTH",
"222 416 OFFCURVE",
"221 431 OFFCURVE",
"213 431 CURVE SMOOTH",
"204 431 OFFCURVE",
"190 426 OFFCURVE",
"185 442 CURVE SMOOTH",
"183 448 OFFCURVE",
"183 457 OFFCURVE",
"183 479 CURVE SMOOTH",
"183 484 OFFCURVE",
"185 486 OFFCURVE",
"190 486 CURVE SMOOTH",
"201 486 LINE SMOOTH",
"223 486 OFFCURVE",
"237 466 OFFCURVE",
"242 442 CURVE SMOOTH",
"244 432 OFFCURVE",
"249 417 OFFCURVE",
"264 417 CURVE SMOOTH",
"296 417 LINE SMOOTH",
"300 417 OFFCURVE",
"306 418 OFFCURVE",
"306 423 CURVE SMOOTH",
"306 429 OFFCURVE",
"299 430 OFFCURVE",
"291 430 CURVE SMOOTH",
"283 430 OFFCURVE",
"280 431 OFFCURVE",
"276 442 CURVE SMOOTH",
"269 460 OFFCURVE",
"266 479 OFFCURVE",
"249 488 CURVE SMOOTH",
"247 489 OFFCURVE",
"245 490 OFFCURVE",
"245 491 CURVE SMOOTH",
"245 492 OFFCURVE",
"246 493 OFFCURVE",
"249 494 CURVE SMOOTH",
"273 502 OFFCURVE",
"285 525 OFFCURVE",
"285 547 CURVE SMOOTH",
"285 576 OFFCURVE",
"262 606 OFFCURVE",
"216 606 CURVE SMOOTH",
"129 606 LINE SMOOTH",
"118 606 OFFCURVE",
"120 591 OFFCURVE",
"129 591 CURVE SMOOTH",
"131 591 OFFCURVE",
"134 592 OFFCURVE",
"139 592 CURVE SMOOTH",
"155 592 OFFCURVE",
"153 540 OFFCURVE",
"153 511 CURVE SMOOTH",
"153 477 OFFCURVE",
"153 451 OFFCURVE",
"151 442 CURVE SMOOTH",
"148 427 OFFCURVE",
"139 430 OFFCURVE",
"129 431 CURVE SMOOTH",
"120 432 OFFCURVE",
"118 418 OFFCURVE",
"128 417 CURVE SMOOTH"
);
},
{
closed = 1;
nodes = (
"183 521 OFFCURVE",
"183 530 OFFCURVE",
"183 540 CURVE SMOOTH",
"183 558 OFFCURVE",
"183 571 OFFCURVE",
"185 580 CURVE SMOOTH",
"188 592 OFFCURVE",
"196 591 OFFCURVE",
"211 591 CURVE SMOOTH",
"239 591 OFFCURVE",
"254 567 OFFCURVE",
"254 547 CURVE SMOOTH",
"254 527 OFFCURVE",
"239 501 OFFCURVE",
"212 501 CURVE SMOOTH",
"196 501 OFFCURVE",
"183 499 OFFCURVE",
"183 509 CURVE SMOOTH"
);
}
);
width = 412;
}
);
unicode = 00AE;
},
{
glyphname = degree;
lastChange = "2020-01-28 13:06:19 +0000";
layers = (
{
layerId = "4FF06481-DC31-47E8-8EFF-C3C3B18F183D";
paths = (
{
closed = 1;
nodes = (
"217 433 OFFCURVE",
"288 486 OFFCURVE",
"288 564 CURVE SMOOTH",
"288 644 OFFCURVE",
"217 698 OFFCURVE",
"154 698 CURVE SMOOTH",
"91 698 OFFCURVE",
"20 644 OFFCURVE",
"20 564 CURVE SMOOTH",
"20 486 OFFCURVE",
"91 433 OFFCURVE",
"154 433 CURVE SMOOTH"
);
},
{
closed = 1;
nodes = (
"102 456 OFFCURVE",
"80 515 OFFCURVE",
"80 565 CURVE SMOOTH",
"80 615 OFFCURVE",
"102 675 OFFCURVE",
"154 675 CURVE SMOOTH",
"206 675 OFFCURVE",
"227 615 OFFCURVE",
"227 565 CURVE SMOOTH",
"227 515 OFFCURVE",
"206 456 OFFCURVE",
"154 456 CURVE SMOOTH"
);
}
);
width = 308;
}
);
unicode = 00B0;
},
{
glyphname = plusminus;
lastChange = "2020-01-28 13:18:03 +0000";
layers = (
{
layerId = "4FF06481-DC31-47E8-8EFF-C3C3B18F183D";
paths = (
{
closed = 1;
nodes = (
"141 363 OFFCURVE",
"182 368 OFFCURVE",
"303 368 CURVE SMOOTH",
"423 368 OFFCURVE",
"465 360 OFFCURVE",
"529 360 CURVE SMOOTH",
"555 360 OFFCURVE",
"565 374 OFFCURVE",
"565 389 CURVE SMOOTH",
"565 406 OFFCURVE",
"555 418 OFFCURVE",
"529 417 CURVE SMOOTH",
"465 414 OFFCURVE",
"423 412 OFFCURVE",
"303 412 CURVE SMOOTH",
"182 412 OFFCURVE",
"141 414 OFFCURVE",
"78 417 CURVE SMOOTH",
"53 419 OFFCURVE",
"40 406 OFFCURVE",
"40 389 CURVE SMOOTH",
"40 374 OFFCURVE",
"53 359 OFFCURVE",
"78 360 CURVE SMOOTH"
);
},
{
closed = 1;
nodes = (
"328 227 OFFCURVE",
"323 268 OFFCURVE",
"323 389 CURVE SMOOTH",
"323 510 OFFCURVE",
"331 551 OFFCURVE",
"331 615 CURVE SMOOTH",
"331 641 OFFCURVE",
"317 651 OFFCURVE",
"303 651 CURVE SMOOTH",
"286 651 OFFCURVE",
"273 641 OFFCURVE",
"274 615 CURVE SMOOTH",
"277 551 OFFCURVE",
"279 510 OFFCURVE",
"279 389 CURVE SMOOTH",
"279 268 OFFCURVE",
"277 227 OFFCURVE",
"274 164 CURVE SMOOTH",
"272 139 OFFCURVE",
"286 126 OFFCURVE",
"303 126 CURVE SMOOTH",
"317 126 OFFCURVE",
"333 139 OFFCURVE",
"331 164 CURVE SMOOTH"
);
},
{
closed = 1;
nodes = (
"141 12 OFFCURVE",
"182 17 OFFCURVE",
"303 17 CURVE SMOOTH",
"423 17 OFFCURVE",
"465 9 OFFCURVE",
"529 9 CURVE SMOOTH",
"555 9 OFFCURVE",
"565 23 OFFCURVE",
"565 38 CURVE SMOOTH",
"565 55 OFFCURVE",
"555 67 OFFCURVE",
"529 66 CURVE SMOOTH",
"465 63 OFFCURVE",
"423 61 OFFCURVE",
"303 61 CURVE SMOOTH",
"182 61 OFFCURVE",
"141 63 OFFCURVE",
"78 66 CURVE SMOOTH",
"53 68 OFFCURVE",
"40 55 OFFCURVE",
"40 38 CURVE SMOOTH",
"40 23 OFFCURVE",
"53 8 OFFCURVE",
"78 9 CURVE SMOOTH"
);
}
);
width = 605;
}
);
unicode = 00B1;
},
{
glyphname = micro;
lastChange = "2020-01-27 07:30:47 +0000";
layers = (
{
layerId = "4FF06481-DC31-47E8-8EFF-C3C3B18F183D";
paths = (
{
closed = 1;
nodes = (
"68 -77 OFFCURVE",
"70 175 OFFCURVE",
"67 246 CURVE SMOOTH",
"66 278 OFFCURVE",
"58 306 OFFCURVE",
"31 306 CURVE SMOOTH",
"17 306 OFFCURVE",
"10 310 OFFCURVE",
"10 316 CURVE SMOOTH",
"10 321 OFFCURVE",
"17 328 OFFCURVE",
"31 332 CURVE SMOOTH",
"65 342 OFFCURVE",
"88 365 OFFCURVE",
"108 375 CURVE SMOOTH",
"114 378 OFFCURVE",
"119 380 OFFCURVE",
"123 380 CURVE SMOOTH",
"131 380 OFFCURVE",
"136 376 OFFCURVE",
"136 368 CURVE SMOOTH",
"134 275 OFFCURVE",
"133 190 OFFCURVE",
"133 114 CURVE SMOOTH",
"133 76 OFFCURVE",
"166 35 OFFCURVE",
"215 35 CURVE SMOOTH",
"256 35 OFFCURVE",
"299 80 OFFCURVE",
"299 103 CURVE SMOOTH",
"298 150 OFFCURVE",
"299 171 OFFCURVE",
"299 246 CURVE SMOOTH",
"299 278 OFFCURVE",
"290 306 OFFCURVE",
"263 306 CURVE SMOOTH",
"249 306 OFFCURVE",
"242 310 OFFCURVE",
"242 316 CURVE SMOOTH",
"242 321 OFFCURVE",
"249 328 OFFCURVE",
"263 332 CURVE SMOOTH",
"297 342 OFFCURVE",
"320 365 OFFCURVE",
"340 375 CURVE SMOOTH",
"346 378 OFFCURVE",
"351 380 OFFCURVE",
"355 380 CURVE SMOOTH",
"363 380 OFFCURVE",
"368 376 OFFCURVE",
"368 368 CURVE SMOOTH",
"368 334 OFFCURVE",
"362 254 OFFCURVE",
"362 182 CURVE SMOOTH",
"362 121 OFFCURVE",
"365 54 OFFCURVE",
"389 54 CURVE SMOOTH",
"398 54 OFFCURVE",
"409 59 OFFCURVE",
"417 59 CURVE SMOOTH",
"426 59 OFFCURVE",
"430 55 OFFCURVE",
"430 49 CURVE SMOOTH",
"430 42 OFFCURVE",
"423 34 OFFCURVE",
"411 31 CURVE SMOOTH",
"375 22 OFFCURVE",
"358 0 OFFCURVE",
"342 0 CURVE SMOOTH",
"320 0 OFFCURVE",
"310 17 OFFCURVE",
"306 41 CURVE SMOOTH",
"304 52 OFFCURVE",
"299 53 OFFCURVE",
"292 45 CURVE SMOOTH",
"262 15 OFFCURVE",
"226 1 OFFCURVE",
"190 1 CURVE SMOOTH",
"178 1 OFFCURVE",
"164 3 OFFCURVE",
"151 7 CURVE SMOOTH",
"141 10 OFFCURVE",
"134 6 OFFCURVE",
"134 -6 CURVE SMOOTH",
"134 -49 OFFCURVE",
"132 -89 OFFCURVE",
"137 -122 CURVE SMOOTH",
"141 -148 OFFCURVE",
"154 -159 OFFCURVE",
"183 -154 CURVE SMOOTH",
"211 -149 OFFCURVE",
"215 -181 OFFCURVE",
"185 -181 CURVE SMOOTH",
"161 -181 OFFCURVE",
"150 -181 OFFCURVE",
"101 -181 CURVE SMOOTH",
"55 -181 OFFCURVE",
"42 -181 OFFCURVE",
"18 -181 CURVE SMOOTH",
"-12 -181 OFFCURVE",
"-8 -149 OFFCURVE",
"20 -154 CURVE SMOOTH",
"41 -158 OFFCURVE",
"56 -145 OFFCURVE",
"60 -122 CURVE SMOOTH"
);
}
);
width = 440;
}
);
unicode = 00B5;
},
{
glyphname = Eth;
lastChange = "2020-01-23 12:52:17 +0000";
layers = (
{
anchors = (
{
name = _center;
position = "{352, 350}";
}
);
components = (
{
name = D;
}
);
layerId = "4FF06481-DC31-47E8-8EFF-C3C3B18F183D";
paths = (
{
closed = 1;
nodes = (
"101 320 OFFCURVE",
"151 322 OFFCURVE",
"202 322 CURVE SMOOTH",
"253 322 OFFCURVE",
"304 319 OFFCURVE",
"351 317 CURVE SMOOTH",
"370 316 OFFCURVE",
"378 328 OFFCURVE",
"378 340 CURVE SMOOTH",
"378 352 OFFCURVE",
"370 364 OFFCURVE",
"351 363 CURVE SMOOTH",
"304 361 OFFCURVE",
"253 359 OFFCURVE",
"202 359 CURVE SMOOTH",
"151 359 OFFCURVE",
"101 360 OFFCURVE",
"54 363 CURVE SMOOTH",
"36 364 OFFCURVE",
"26 352 OFFCURVE",
"26 340 CURVE SMOOTH",
"26 328 OFFCURVE",
"36 316 OFFCURVE",
"54 317 CURVE SMOOTH"
);
}
);
width = 703;
}
);
leftKerningGroup = D;
rightKerningGroup = D;
unicode = 00D0;
},
{
glyphname = multiply;
lastChange = "2020-01-28 13:19:38 +0000";
layers = (
{
layerId = "4FF06481-DC31-47E8-8EFF-C3C3B18F183D";
paths = (
{
closed = 1;
nodes = (
"137 101 OFFCURVE",
"164 131 OFFCURVE",
"248 217 CURVE SMOOTH",
"333 302 OFFCURVE",
"368 327 OFFCURVE",
"414 370 CURVE SMOOTH",
"434 388 OFFCURVE",
"430 406 OFFCURVE",
"420 417 CURVE SMOOTH",
"408 428 OFFCURVE",
"391 430 OFFCURVE",
"373 412 CURVE SMOOTH",
"327 366 OFFCURVE",
"303 332 OFFCURVE",
"217 248 CURVE SMOOTH",
"131 163 OFFCURVE",
"103 134 OFFCURVE",
"54 92 CURVE SMOOTH",
"36 76 OFFCURVE",
"36 57 OFFCURVE",
"48 45 CURVE SMOOTH",
"58 35 OFFCURVE",
"79 33 OFFCURVE",
"95 51 CURVE SMOOTH"
);
},
{
closed = 1;
nodes = (
"102 326 OFFCURVE",
"134 301 OFFCURVE",
"219 217 CURVE SMOOTH",
"305 132 OFFCURVE",
"330 97 OFFCURVE",
"373 50 CURVE SMOOTH",
"391 31 OFFCURVE",
"409 35 OFFCURVE",
"420 45 CURVE SMOOTH",
"431 57 OFFCURVE",
"433 74 OFFCURVE",
"414 92 CURVE SMOOTH",
"369 137 OFFCURVE",
"335 162 OFFCURVE",
"251 248 CURVE SMOOTH",
"166 334 OFFCURVE",
"138 363 OFFCURVE",
"95 410 CURVE SMOOTH",
"78 428 OFFCURVE",
"60 428 OFFCURVE",
"48 417 CURVE SMOOTH",
"37 406 OFFCURVE",
"36 387 OFFCURVE",
"54 370 CURVE SMOOTH"
);
}
);
width = 468;
}
);
unicode = 00D7;
},
{
glyphname = Thorn;
lastChange = "2020-01-26 12:09:43 +0000";
layers = (
{
anchors = (
{
name = bottom;
position = "{305, 0}";
},
{
name = ogonek;
position = "{268, 12}";
},
{
name = top;
position = "{305, 681}";
},
{
name = topleft;
position = "{20, 700}";
}
);
layerId = "4FF06481-DC31-47E8-8EFF-C3C3B18F183D";
paths = (
{
closed = 1;
nodes = (
"194 1 LINE",
"347 1 LINE SMOOTH",
"377 1 OFFCURVE",
"373 31 OFFCURVE",
"345 28 CURVE SMOOTH",
"254 18 OFFCURVE",
"237 38 OFFCURVE",
"233 115 CURVE SMOOTH",
"232 125 OFFCURVE",
"239 132 OFFCURVE",
"248 132 CURVE SMOOTH",
"345 132 LINE SMOOTH",
"509 132 OFFCURVE",
"590 237 OFFCURVE",
"590 342 CURVE SMOOTH",
"590 449 OFFCURVE",
"506 556 OFFCURVE",
"341 556 CURVE SMOOTH",
"248 556 LINE SMOOTH",
"239 556 OFFCURVE",
"232 563 OFFCURVE",
"233 573 CURVE SMOOTH",
"237 643 OFFCURVE",
"256 664 OFFCURVE",
"345 654 CURVE SMOOTH",
"373 651 OFFCURVE",
"377 681 OFFCURVE",
"347 681 CURVE SMOOTH",
"194 681 LINE",
"41 681 LINE SMOOTH",
"11 681 OFFCURVE",
"15 651 OFFCURVE",
"43 654 CURVE SMOOTH",
"95 660 OFFCURVE",
"139 657 OFFCURVE",
"150 614 CURVE SMOOTH",
"158 582 OFFCURVE",
"159 467 OFFCURVE",
"159 341 CURVE SMOOTH",
"159 215 OFFCURVE",
"158 100 OFFCURVE",
"150 68 CURVE SMOOTH",
"139 25 OFFCURVE",
"95 22 OFFCURVE",
"43 28 CURVE SMOOTH",
"15 31 OFFCURVE",
"11 1 OFFCURVE",
"41 1 CURVE SMOOTH"
);
},
{
closed = 1;
nodes = (
"229 406 OFFCURVE",
"229 469 OFFCURVE",
"231 518 CURVE SMOOTH",
"231 524 OFFCURVE",
"238 529 OFFCURVE",
"246 529 CURVE SMOOTH",
"341 529 LINE SMOOTH",
"454 529 OFFCURVE",
"510 436 OFFCURVE",
"510 344 CURVE SMOOTH",
"510 251 OFFCURVE",
"454 159 OFFCURVE",
"346 159 CURVE SMOOTH",
"326 159 OFFCURVE",
"280 160 OFFCURVE",
"245 161 CURVE SMOOTH",
"237 161 OFFCURVE",
"231 167 OFFCURVE",
"231 175 CURVE SMOOTH",
"229 222 OFFCURVE",
"229 280 OFFCURVE",
"229 341 CURVE SMOOTH"
);
}
);
width = 610;
}
);
unicode = 00DE;
},
{
glyphname = eth;
lastChange = "2020-02-11 13:00:18 +0000";
layers = (
{
components = (
{
name = _part.yokosen;
transform = "{0.81473, 0.57984, -0.57984, 0.81473, 159, 113}";
}
);
layerId = "4FF06481-DC31-47E8-8EFF-C3C3B18F183D";
paths = (
{
closed = 1;
nodes = (
"303 0 OFFCURVE",
"441 90 OFFCURVE",
"441 269 CURVE SMOOTH",
"441 494 OFFCURVE",
"280 676 OFFCURVE",
"62 695 CURVE SMOOTH",
"37 697 OFFCURVE",
"24 686 OFFCURVE",
"24 676 CURVE SMOOTH",
"24 668 OFFCURVE",
"32 660 OFFCURVE",
"62 655 CURVE SMOOTH",
"303 614 OFFCURVE",
"371 403 OFFCURVE",
"371 256 CURVE SMOOTH",
"371 122 OFFCURVE",
"322 55 OFFCURVE",
"241 55 CURVE SMOOTH",
"189 55 OFFCURVE",
"92 94 OFFCURVE",
"92 211 CURVE SMOOTH",
"92 288 OFFCURVE",
"123 366 OFFCURVE",
"215 366 CURVE SMOOTH",
"265 366 OFFCURVE",
"329 354 OFFCURVE",
"372 287 CURVE SMOOTH",
"385 267 OFFCURVE",
"410 260 OFFCURVE",
"420 260 CURVE SMOOTH",
"430 260 OFFCURVE",
"437 269 OFFCURVE",
"437 282 CURVE SMOOTH",
"437 353 OFFCURVE",
"362 417 OFFCURVE",
"268 417 CURVE SMOOTH",
"143 417 OFFCURVE",
"20 308 OFFCURVE",
"20 197 CURVE SMOOTH",
"20 71 OFFCURVE",
"118 0 OFFCURVE",
"212 0 CURVE SMOOTH"
);
}
);
width = 461;
}
);
leftKerningGroup = e;
rightKerningGroup = e;
unicode = 00F0;
},
{
glyphname = divide;
lastChange = "2020-01-28 13:26:35 +0000";
layers = (
{
layerId = "4FF06481-DC31-47E8-8EFF-C3C3B18F183D";
paths = (
{
closed = 1;
nodes = (
"141 237 OFFCURVE",
"182 242 OFFCURVE",
"303 242 CURVE SMOOTH",
"423 242 OFFCURVE",
"465 234 OFFCURVE",
"529 234 CURVE SMOOTH",
"555 234 OFFCURVE",
"565 248 OFFCURVE",
"565 263 CURVE SMOOTH",
"565 279 OFFCURVE",
"555 292 OFFCURVE",
"529 291 CURVE SMOOTH",
"465 289 OFFCURVE",
"423 286 OFFCURVE",
"303 286 CURVE SMOOTH",
"182 286 OFFCURVE",
"141 286 OFFCURVE",
"78 291 CURVE SMOOTH",
"53 293 OFFCURVE",
"40 279 OFFCURVE",
"40 263 CURVE SMOOTH",
"40 248 OFFCURVE",
"53 233 OFFCURVE",
"78 234 CURVE SMOOTH"
);
},
{
closed = 1;
nodes = (
"337 390 OFFCURVE",
"365 418 OFFCURVE",
"365 453 CURVE SMOOTH",
"365 487 OFFCURVE",
"337 515 OFFCURVE",
"303 515 CURVE SMOOTH",
"268 515 OFFCURVE",
"240 487 OFFCURVE",
"240 453 CURVE SMOOTH",
"240 418 OFFCURVE",
"268 390 OFFCURVE",
"303 390 CURVE SMOOTH"
);
},
{
closed = 1;
nodes = (
"337 13 OFFCURVE",
"365 41 OFFCURVE",
"365 76 CURVE SMOOTH",
"365 110 OFFCURVE",
"337 138 OFFCURVE",
"303 138 CURVE SMOOTH",
"268 138 OFFCURVE",
"240 110 OFFCURVE",
"240 76 CURVE SMOOTH",
"240 41 OFFCURVE",
"268 13 OFFCURVE",
"303 13 CURVE SMOOTH"
);
}
);
width = 600;
}
);
unicode = 00F7;
},
{
glyphname = thorn;
lastChange = "2020-01-26 12:12:27 +0000";
layers = (
{
anchors = (
{
name = bottom;
position = "{222, 0}";
},
{
name = top;
position = "{222, 380}";
}
);
layerId = "4FF06481-DC31-47E8-8EFF-C3C3B18F183D";
paths = (
{
closed = 1;
nodes = (
"22 642 OFFCURVE",
"29 649 OFFCURVE",
"43 652 CURVE SMOOTH",
"91 662 OFFCURVE",
"123 700 OFFCURVE",
"141 700 CURVE SMOOTH",
"149 700 OFFCURVE",
"155 696 OFFCURVE",
"155 688 CURVE SMOOTH",
"155 626 OFFCURVE",
"151 553 OFFCURVE",
"149 361 CURVE SMOOTH",
"149 344 OFFCURVE",
"161 338 OFFCURVE",
"175 347 CURVE SMOOTH",
"207 370 OFFCURVE",
"244 380 OFFCURVE",
"267 380 CURVE SMOOTH",
"339 380 OFFCURVE",
"424 319 OFFCURVE",
"424 189 CURVE SMOOTH",
"424 73 OFFCURVE",
"328 0 OFFCURVE",
"220 0 CURVE SMOOTH",
"196 0 OFFCURVE",
"177 2 OFFCURVE",
"162 4 CURVE SMOOTH",
"152 5 OFFCURVE",
"146 0 OFFCURVE",
"146 -10 CURVE SMOOTH",
"146 -39 LINE SMOOTH",
"146 -81 OFFCURVE",
"132 -163 OFFCURVE",
"192 -152 CURVE SMOOTH",
"220 -147 OFFCURVE",
"224 -179 OFFCURVE",
"194 -179 CURVE SMOOTH",
"31 -179 LINE SMOOTH",
"1 -179 OFFCURVE",
"5 -147 OFFCURVE",
"33 -152 CURVE SMOOTH",
"62 -157 OFFCURVE",
"75 -130 OFFCURVE",
"79 -91 CURVE SMOOTH",
"84 -46 OFFCURVE",
"85 303 OFFCURVE",
"85 344 CURVE SMOOTH",
"85 517 OFFCURVE",
"90 626 OFFCURVE",
"43 626 CURVE SMOOTH",
"29 626 OFFCURVE",
"22 631 OFFCURVE",
"22 637 CURVE SMOOTH"
);
},
{
closed = 1;
nodes = (
"149 103 CURVE SMOOTH",
"149 61 OFFCURVE",
"178 31 OFFCURVE",
"238 31 CURVE SMOOTH",
"300 31 OFFCURVE",
"354 81 OFFCURVE",
"354 190 CURVE SMOOTH",
"354 278 OFFCURVE",
"296 334 OFFCURVE",
"242 334 CURVE SMOOTH",
"210 334 OFFCURVE",
"163 307 OFFCURVE",
"152 249 CURVE SMOOTH",
"148 227 OFFCURVE",
"149 158 OFFCURVE"
);
}
);
width = 434;
}
);
unicode = 00FE;
},
{
glyphname = trademark;
lastChange = "2020-01-26 13:29:14 +0000";
layers = (
{
layerId = "4FF06481-DC31-47E8-8EFF-C3C3B18F183D";
paths = (
{
closed = 1;
nodes = (
"64 512 OFFCURVE",
"89 512 OFFCURVE",
"110 512 CURVE SMOOTH",
"157 512 LINE SMOOTH",
"166 512 OFFCURVE",
"165 523 OFFCURVE",
"157 522 CURVE SMOOTH",
"143 520 OFFCURVE",
"130 521 OFFCURVE",
"127 533 CURVE SMOOTH",
"125 542 OFFCURVE",
"125 571 OFFCURVE",
"125 606 CURVE SMOOTH",
"125 635 OFFCURVE",
"126 667 OFFCURVE",
"126 683 CURVE SMOOTH",
"126 687 OFFCURVE",
"130 689 OFFCURVE",
"134 689 CURVE SMOOTH",
"172 689 OFFCURVE",
"188 682 OFFCURVE",
"188 649 CURVE SMOOTH",
"188 637 OFFCURVE",
"201 641 OFFCURVE",
"201 648 CURVE SMOOTH",
"201 657 OFFCURVE",
"200 670 OFFCURVE",
"198 690 CURVE SMOOTH",
"197 698 OFFCURVE",
"194 699 OFFCURVE",
"190 699 CURVE SMOOTH",
"177 699 OFFCURVE",
"133 700 OFFCURVE",
"110 700 CURVE SMOOTH",
"30 699 LINE SMOOTH",
"27 699 OFFCURVE",
"24 698 OFFCURVE",
"23 690 CURVE SMOOTH",
"20 670 OFFCURVE",
"20 657 OFFCURVE",
"20 648 CURVE SMOOTH",
"20 638 OFFCURVE",
"32 639 OFFCURVE",
"32 649 CURVE SMOOTH",
"32 681 OFFCURVE",
"47 689 OFFCURVE",
"87 689 CURVE SMOOTH",
"92 689 OFFCURVE",
"95 687 OFFCURVE",
"95 683 CURVE SMOOTH",
"95 668 OFFCURVE",
"95 635 OFFCURVE",
"95 606 CURVE SMOOTH",
"95 571 OFFCURVE",
"95 542 OFFCURVE",
"93 533 CURVE SMOOTH",
"90 521 OFFCURVE",
"78 522 OFFCURVE",
"63 522 CURVE SMOOTH",
"56 522 OFFCURVE",
"55 512 OFFCURVE",
"63 512 CURVE SMOOTH"
);
},
{
closed = 1;
nodes = (
"284 512 LINE SMOOTH",
"292 512 OFFCURVE",
"291 523 OFFCURVE",
"283 522 CURVE SMOOTH",
"269 520 OFFCURVE",
"257 521 OFFCURVE",
"253 533 CURVE SMOOTH",
"249 544 OFFCURVE",
"258 603 OFFCURVE",
"258 645 CURVE SMOOTH",
"258 649 OFFCURVE",
"261 650 OFFCURVE",
"263 646 CURVE SMOOTH",
"309 534 LINE SMOOTH",
"313 524 OFFCURVE",
"322 525 OFFCURVE",
"326 535 CURVE SMOOTH",
"378 661 LINE SMOOTH",
"379 664 OFFCURVE",
"383 664 OFFCURVE",
"384 660 CURVE SMOOTH",
"394 621 OFFCURVE",
"391 546 OFFCURVE",
"388 533 CURVE SMOOTH",
"385 521 OFFCURVE",
"373 520 OFFCURVE",
"358 522 CURVE SMOOTH",
"350 523 OFFCURVE",
"349 512 OFFCURVE",
"358 512 CURVE SMOOTH",
"400 512 LINE",
"445 512 LINE SMOOTH",
"453 512 OFFCURVE",
"452 523 OFFCURVE",
"445 522 CURVE SMOOTH",
"430 520 OFFCURVE",
"428 521 OFFCURVE",
"425 533 CURVE SMOOTH",
"421 547 OFFCURVE",
"413 664 OFFCURVE",
"417 678 CURVE SMOOTH",
"420 690 OFFCURVE",
"422 691 OFFCURVE",
"436 689 CURVE SMOOTH",
"444 688 OFFCURVE",
"445 700 OFFCURVE",
"437 700 CURVE SMOOTH",
"387 700 LINE SMOOTH",
"377 700 OFFCURVE",
"378 696 OFFCURVE",
"376 692 CURVE SMOOTH",
"327 572 LINE SMOOTH",
"325 568 OFFCURVE",
"321 568 OFFCURVE",
"319 572 CURVE SMOOTH",
"274 692 LINE SMOOTH",
"273 695 OFFCURVE",
"271 700 OFFCURVE",
"259 700 CURVE SMOOTH",
"216 700 LINE SMOOTH",
"207 700 OFFCURVE",
"208 688 OFFCURVE",
"216 689 CURVE SMOOTH",
"231 691 OFFCURVE",
"240 690 OFFCURVE",
"243 678 CURVE SMOOTH",
"246 664 OFFCURVE",
"238 547 OFFCURVE",
"234 533 CURVE SMOOTH",
"231 521 OFFCURVE",
"219 520 OFFCURVE",
"205 522 CURVE SMOOTH",
"197 523 OFFCURVE",
"196 512 OFFCURVE",
"204 512 CURVE SMOOTH"
);
}
);
width = 471;
}
);
unicode = 2122;
},
{
glyphname = "wo-kata.half";
lastChange = "2020-01-22 14:15:59 +0000";
layers = (
{
layerId = "4FF06481-DC31-47E8-8EFF-C3C3B18F183D";
paths = (
{
closed = 1;
nodes = (
"110 44 OFFCURVE",
"93 62 OFFCURVE",
"134 81 CURVE SMOOTH",
"227 123 OFFCURVE",
"279 190 OFFCURVE",
"321 287 CURVE SMOOTH",
"373 405 OFFCURVE",
"390 651 OFFCURVE",
"371 652 CURVE",
"340 652 OFFCURVE",
"333 650 OFFCURVE",
"254 646 CURVE SMOOTH",
"176 642 OFFCURVE",
"143 637 OFFCURVE",
"124 621 CURVE SMOOTH",
"87 590 OFFCURVE",
"32 734 OFFCURVE",
"71 706 CURVE SMOOTH",
"113 677 OFFCURVE",
"175 682 OFFCURVE",
"253 686 CURVE SMOOTH",
"338 690 OFFCURVE",
"362 700 OFFCURVE",
"386 730 CURVE SMOOTH",
"404 753 OFFCURVE",
"484 682 OFFCURVE",
"457 658 CURVE SMOOTH",
"435 638 OFFCURVE",
"441 439 OFFCURVE",
"375 283 CURVE SMOOTH",
"326 167 OFFCURVE",
"245 86 OFFCURVE",
"132 51 CURVE SMOOTH"
);
},
{
closed = 1;
nodes = (
"153 414 OFFCURVE",
"159 402 OFFCURVE",
"143 394 CURVE",
"100 371 OFFCURVE",
"50 510 OFFCURVE",
"94 477 CURVE SMOOTH",
"121 455 OFFCURVE",
"135 453 OFFCURVE",
"393 476 CURVE SMOOTH",
"405 477 OFFCURVE",
"416 437 OFFCURVE",
"393 435 CURVE SMOOTH"
);
}
);
width = 500;
}
);
unicode = FF66;
},
{
glyphname = "asmall-kata.half";
lastChange = "2020-01-22 14:15:59 +0000";
layers = (
{
layerId = "4FF06481-DC31-47E8-8EFF-C3C3B18F183D";
paths = (
{
closed = 1;
nodes = (
"253 265 LINE",
"354 325 OFFCURVE",
"428 466 OFFCURVE",
"442 475 CURVE SMOOTH",
"450 480 OFFCURVE",
"447 515 OFFCURVE",
"399 568 CURVE SMOOTH",
"374 596 OFFCURVE",
"402 569 OFFCURVE",
"238 544 CURVE SMOOTH",
"152 531 OFFCURVE",
"104 531 OFFCURVE",
"65 568 CURVE SMOOTH",
"25 606 OFFCURVE",
"50 500 OFFCURVE",
"104 472 CURVE",
"128 457 OFFCURVE",
"137 487 OFFCURVE",
"236 503 CURVE SMOOTH",
"322 517 OFFCURVE",
"347 516 OFFCURVE",
"357 500 CURVE",
"364 486 OFFCURVE",
"349 396 OFFCURVE",
"252 306 CURVE",
"256 263 LINE"
);
},
{
closed = 1;
nodes = (
"213 -9 OFFCURVE",
"287 155 OFFCURVE",
"272 374 CURVE",
"265 409 OFFCURVE",
"172 464 OFFCURVE",
"194 428 CURVE SMOOTH",
"253 331 OFFCURVE",
"211 47 OFFCURVE",
"112 -36 CURVE SMOOTH",
"94 -51 OFFCURVE",
"98 -62 OFFCURVE",
"119 -51 CURVE"
);
}
);
width = 500;
}
);
unicode = FF67;
},
{
glyphname = "ismall-kata.half";
lastChange = "2020-01-22 14:15:59 +0000";
layers = (
{
layerId = "4FF06481-DC31-47E8-8EFF-C3C3B18F183D";
paths = (
{
closed = 1;
nodes = (
"101 131 OFFCURVE",
"189 203 OFFCURVE",
"242 285 CURVE SMOOTH",
"279 342 OFFCURVE",
"333 454 OFFCURVE",
"354 547 CURVE SMOOTH",
"357 560 OFFCURVE",
"342 580 OFFCURVE",
"301 607 CURVE SMOOTH",
"284 618 OFFCURVE",
"265 614 OFFCURVE",
"275 600 CURVE SMOOTH",
"299 559 OFFCURVE",
"257 425 OFFCURVE",
"219 354 CURVE SMOOTH",
"165 252 OFFCURVE",
"118 192 OFFCURVE",
"41 128 CURVE SMOOTH",
"12 104 OFFCURVE",
"18 86 OFFCURVE",
"49 103 CURVE SMOOTH"
);
},
{
closed = 1;
nodes = (
"227 -106 OFFCURVE",
"314 -52 OFFCURVE",
"299 10 CURVE SMOOTH",
"282 80 OFFCURVE",
"289 210 OFFCURVE",
"299 269 CURVE SMOOTH",
"303 295 OFFCURVE",
"284 309 OFFCURVE",
"256 326 CURVE SMOOTH",
"223 346 OFFCURVE",
"214 348 OFFCURVE",
"223 334 CURVE SMOOTH",
"261 271 OFFCURVE",
"243 66 OFFCURVE",
"234 -31 CURVE SMOOTH"
);
}
);
width = 500;
}
);
unicode = FF68;
},
{
glyphname = "usmall-kata.half";
lastChange = "2020-01-22 14:15:59 +0000";
layers = (
{
layerId = "4FF06481-DC31-47E8-8EFF-C3C3B18F183D";
paths = (
{
closed = 1;
nodes = (
"175 -54 OFFCURVE",
"248 -27 OFFCURVE",
"311 58 CURVE SMOOTH",
"415 199 OFFCURVE",
"402 370 OFFCURVE",
"425 401 CURVE",
"433 411 OFFCURVE",
"424 434 OFFCURVE",
"401 461 CURVE SMOOTH",
"386 477 OFFCURVE",
"360 461 OFFCURVE",
"349 451 CURVE",
"335 440 OFFCURVE",
"225 443 OFFCURVE",
"154 443 CURVE",
"154 444 OFFCURVE",
"141 459 OFFCURVE",
"126 469 CURVE SMOOTH",
"103 484 OFFCURVE",
"71 484 OFFCURVE",
"84 469 CURVE SMOOTH",
"108 441 OFFCURVE",
"110 323 OFFCURVE",
"113 238 CURVE SMOOTH",
"115 171 OFFCURVE",
"171 210 OFFCURVE",
"169 261 CURVE SMOOTH",
"166 350 OFFCURVE",
"159 408 OFFCURVE",
"159 408 CURVE",
"161 409 LINE",
"352 410 LINE",
"352 334 OFFCURVE",
"344 184 OFFCURVE",
"275 79 CURVE SMOOTH",
"237 22 OFFCURVE",
"184 -27 OFFCURVE",
"133 -39 CURVE SMOOTH",
"111 -44 OFFCURVE",
"113 -60 OFFCURVE",
"134 -58 CURVE SMOOTH"
);
},
{
closed = 1;
nodes = (
"278 436 LINE",
"279 449 OFFCURVE",
"280 540 OFFCURVE",
"291 567 CURVE",
"301 589 OFFCURVE",
"287 614 OFFCURVE",
"233 619 CURVE SMOOTH",
"200 622 OFFCURVE",
"196 606 OFFCURVE",
"213 597 CURVE SMOOTH",
"244 580 OFFCURVE",
"240 534 OFFCURVE",
"239 436 CURVE"
);
}
);
width = 500;
}
);
unicode = FF69;
},
{
glyphname = "esmall-kata.half";
lastChange = "2020-01-22 14:15:59 +0000";
layers = (
{
layerId = "4FF06481-DC31-47E8-8EFF-C3C3B18F183D";
paths = (
{
closed = 1;
nodes = (
"224 34 OFFCURVE",
"323 44 OFFCURVE",
"442 22 CURVE SMOOTH",
"513 9 OFFCURVE",
"454 114 OFFCURVE",
"412 106 CURVE SMOOTH",
"381 100 OFFCURVE",
"307 76 OFFCURVE",
"252 70 CURVE SMOOTH",
"172 61 OFFCURVE",
"86 43 OFFCURVE",
"46 76 CURVE SMOOTH",
"23 95 OFFCURVE",
"59 -23 OFFCURVE",
"102 -8 CURVE SMOOTH"
);
},
{
closed = 1;
nodes = (
"276 194 OFFCURVE",
"277 321 OFFCURVE",
"293 372 CURVE",
"302 393 OFFCURVE",
"281 419 OFFCURVE",
"238 440 CURVE SMOOTH",
"209 454 OFFCURVE",
"170 451 OFFCURVE",
"186 438 CURVE SMOOTH",
"224 407 OFFCURVE",
"230 364 OFFCURVE",
"234 286 CURVE SMOOTH",
"238 204 OFFCURVE",
"236 142 OFFCURVE",
"236 71 CURVE SMOOTH",
"236 46 OFFCURVE",
"287 36 OFFCURVE",
"285 66 CURVE SMOOTH"
);
},
{
closed = 1;
nodes = (
"245 423 OFFCURVE",
"334 427 OFFCURVE",
"387 418 CURVE SMOOTH",
"452 407 OFFCURVE",
"371 517 OFFCURVE",
"348 504 CURVE SMOOTH",
"330 494 OFFCURVE",
"302 462 OFFCURVE",
"236 458 CURVE SMOOTH",
"183 455 OFFCURVE",
"138 457 OFFCURVE",
"107 489 CURVE",
"95 501 OFFCURVE",
"88 491 OFFCURVE",
"94 471 CURVE",
"110 424 OFFCURVE",
"131 398 OFFCURVE",
"149 402 CURVE SMOOTH"
);
}
);
width = 500;
}
);
unicode = FF6A;
},
{
glyphname = "osmall-kata.half";
lastChange = "2020-01-22 14:15:59 +0000";
layers = (
{
layerId = "4FF06481-DC31-47E8-8EFF-C3C3B18F183D";
paths = (
{
closed = 1;
nodes = (
"313 -54 OFFCURVE",
"361 -7 OFFCURVE",
"359 58 CURVE SMOOTH",
"355 198 OFFCURVE",
"358 328 OFFCURVE",
"370 462 CURVE SMOOTH",
"375 512 OFFCURVE",
"376 550 OFFCURVE",
"381 563 CURVE SMOOTH",
"390 583 OFFCURVE",
"347 610 OFFCURVE",
"289 625 CURVE SMOOTH",
"269 630 OFFCURVE",
"269 612 OFFCURVE",
"287 602 CURVE SMOOTH",
"314 588 OFFCURVE",
"316 521 OFFCURVE",
"317 444 CURVE SMOOTH",
"319 324 OFFCURVE",
"318 208 OFFCURVE",
"311 111 CURVE SMOOTH",
"306 38 OFFCURVE",
"260 59 OFFCURVE",
"225 72 CURVE SMOOTH",
"198 82 OFFCURVE",
"188 77 OFFCURVE",
"212 64 CURVE",
"244 45 OFFCURVE",
"290 27 OFFCURVE",
"299 -5 CURVE SMOOTH"
);
},
{
closed = 1;
nodes = (
"118 48 OFFCURVE",
"293 185 OFFCURVE",
"323 396 CURVE SMOOTH",
"331 447 OFFCURVE",
"281 436 OFFCURVE",
"279 420 CURVE",
"250 218 OFFCURVE",
"119 84 OFFCURVE",
"53 36 CURVE SMOOTH",
"36 24 OFFCURVE",
"46 14 OFFCURVE",
"64 22 CURVE SMOOTH"
);
},
{
closed = 1;
nodes = (
"148 387 OFFCURVE",
"209 395 OFFCURVE",
"277 399 CURVE SMOOTH",
"347 403 OFFCURVE",
"430 405 OFFCURVE",
"450 400 CURVE",
"510 387 OFFCURVE",
"447 492 OFFCURVE",
"422 473 CURVE SMOOTH",
"391 450 OFFCURVE",
"326 441 OFFCURVE",
"269 435 CURVE SMOOTH",
"189 427 OFFCURVE",
"104 429 OFFCURVE",
"78 457 CURVE",
"29 502 OFFCURVE",
"74 360 OFFCURVE",
"126 379 CURVE SMOOTH"
);
}
);
width = 500;
}
);
unicode = FF6B;
},
{
glyphname = "yasmall-kata.half";
lastChange = "2020-01-22 14:15:59 +0000";
layers = (
{
layerId = "4FF06481-DC31-47E8-8EFF-C3C3B18F183D";
paths = (
{
closed = 1;
nodes = (
"286 183 OFFCURVE",
"279 194 OFFCURVE",
"293 209 CURVE SMOOTH",
"341 260 OFFCURVE",
"409 398 OFFCURVE",
"379 411 CURVE SMOOTH",
"372 414 OFFCURVE",
"322 397 OFFCURVE",
"238 365 CURVE SMOOTH",
"191 347 OFFCURVE",
"149 341 OFFCURVE",
"117 306 CURVE SMOOTH",
"79 264 OFFCURVE",
"-8 402 OFFCURVE",
"53 376 CURVE SMOOTH",
"79 365 OFFCURVE",
"118 371 OFFCURVE",
"247 411 CURVE SMOOTH",
"333 438 OFFCURVE",
"371 461 OFFCURVE",
"392 482 CURVE",
"410 498 OFFCURVE",
"483 422 OFFCURVE",
"459 403 CURVE SMOOTH",
"446 393 OFFCURVE",
"439 366 OFFCURVE",
"408 310 CURVE SMOOTH",
"379 258 OFFCURVE",
"329 200 OFFCURVE",
"296 187 CURVE SMOOTH"
);
},
{
closed = 1;
nodes = (
"245 32 OFFCURVE",
"226 174 OFFCURVE",
"206 299 CURVE SMOOTH",
"164 561 OFFCURVE",
"158 578 OFFCURVE",
"127 612 CURVE SMOOTH",
"88 655 OFFCURVE",
"210 654 OFFCURVE",
"213 577 CURVE SMOOTH",
"214 555 OFFCURVE",
"227 438 OFFCURVE",
"248 304 CURVE SMOOTH",
"280 97 OFFCURVE",
"302 47 OFFCURVE",
"305 16 CURVE SMOOTH",
"313 -62 OFFCURVE",
"263 -73 OFFCURVE",
"251 -4 CURVE SMOOTH"
);
}
);
width = 500;
}
);
unicode = FF6C;
},
{
glyphname = "yusmall-kata.half";
lastChange = "2020-01-22 14:15:59 +0000";
layers = (
{
layerId = "4FF06481-DC31-47E8-8EFF-C3C3B18F183D";
paths = (
{
closed = 1;
nodes = (
"312 324 OFFCURVE",
"333 447 OFFCURVE",
"321 465 CURVE SMOOTH",
"314 475 OFFCURVE",
"294 471 OFFCURVE",
"252 468 CURVE SMOOTH",
"197 464 OFFCURVE",
"172 455 OFFCURVE",
"156 446 CURVE SMOOTH",
"113 422 OFFCURVE",
"61 575 OFFCURVE",
"111 537 CURVE SMOOTH",
"143 513 OFFCURVE",
"197 514 OFFCURVE",
"253 517 CURVE SMOOTH",
"302 520 OFFCURVE",
"327 534 OFFCURVE",
"337 549 CURVE",
"359 577 OFFCURVE",
"418 484 OFFCURVE",
"404 468 CURVE SMOOTH",
"376 436 OFFCURVE",
"351 226 OFFCURVE",
"349 38 CURVE",
"302 40 LINE"
);
},
{
closed = 1;
nodes = (
"421 32 OFFCURVE",
"390 25 OFFCURVE",
"267 24 CURVE SMOOTH",
"185 23 OFFCURVE",
"146 7 OFFCURVE",
"131 -7 CURVE SMOOTH",
"103 -33 OFFCURVE",
"59 19 OFFCURVE",
"41 69 CURVE SMOOTH",
"29 102 OFFCURVE",
"38 115 OFFCURVE",
"66 88 CURVE SMOOTH",
"102 54 OFFCURVE",
"189 61 OFFCURVE",
"266 68 CURVE SMOOTH",
"404 81 OFFCURVE",
"410 109 OFFCURVE",
"423 109 CURVE SMOOTH",
"478 109 OFFCURVE",
"520 4 OFFCURVE",
"470 18 CURVE SMOOTH"
);
}
);
width = 500;
}
);
unicode = FF6D;
},
{
glyphname = "yosmall-kata.half";
lastChange = "2020-01-22 14:15:59 +0000";
layers = (
{
layerId = "4FF06481-DC31-47E8-8EFF-C3C3B18F183D";
paths = (
{
closed = 1;
nodes = (
"210 -19 OFFCURVE",
"205 -13 OFFCURVE",
"253 -10 CURVE SMOOTH",
"295 -7 OFFCURVE",
"327 0 OFFCURVE",
"335 -10 CURVE",
"347 -24 OFFCURVE",
"373 -36 OFFCURVE",
"384 -20 CURVE",
"395 -7 OFFCURVE",
"400 4 OFFCURVE",
"395 33 CURVE SMOOTH",
"389 69 OFFCURVE",
"383 103 OFFCURVE",
"397 284 CURVE SMOOTH",
"411 465 OFFCURVE",
"414 503 OFFCURVE",
"432 525 CURVE SMOOTH",
"441 536 OFFCURVE",
"436 545 OFFCURVE",
"432 561 CURVE",
"421 583 OFFCURVE",
"374 616 OFFCURVE",
"361 604 CURVE SMOOTH",
"344 589 OFFCURVE",
"335 569 OFFCURVE",
"265 563 CURVE SMOOTH",
"211 558 OFFCURVE",
"131 557 OFFCURVE",
"105 583 CURVE SMOOTH",
"86 602 OFFCURVE",
"68 593 OFFCURVE",
"78 564 CURVE",
"103 503 OFFCURVE",
"146 485 OFFCURVE",
"167 494 CURVE SMOOTH",
"191 504 OFFCURVE",
"202 509 OFFCURVE",
"265 515 CURVE SMOOTH",
"319 520 OFFCURVE",
"343 524 OFFCURVE",
"349 507 CURVE SMOOTH",
"357 485 OFFCURVE",
"357 411 OFFCURVE",
"352 284 CURVE SMOOTH",
"345 113 OFFCURVE",
"345 84 OFFCURVE",
"333 64 CURVE SMOOTH",
"323 48 OFFCURVE",
"306 44 OFFCURVE",
"263 38 CURVE SMOOTH",
"203 30 OFFCURVE",
"156 27 OFFCURVE",
"121 51 CURVE",
"98 66 OFFCURVE",
"92 48 OFFCURVE",
"101 27 CURVE SMOOTH",
"123 -24 OFFCURVE",
"170 -40 OFFCURVE",
"193 -28 CURVE SMOOTH"
);
},
{
closed = 1;
nodes = (
"200 257 OFFCURVE",
"216 257 OFFCURVE",
"278 261 CURVE SMOOTH",
"329 264 OFFCURVE",
"363 267 OFFCURVE",
"380 258 CURVE",
"396 250 OFFCURVE",
"394 325 OFFCURVE",
"380 321 CURVE",
"356 316 OFFCURVE",
"326 312 OFFCURVE",
"256 309 CURVE SMOOTH",
"192 306 OFFCURVE",
"157 296 OFFCURVE",
"118 321 CURVE",
"102 330 OFFCURVE",
"89 326 OFFCURVE",
"98 303 CURVE SMOOTH",
"118 251 OFFCURVE",
"160 235 OFFCURVE",
"182 247 CURVE SMOOTH"
);
}
);
width = 500;
}
);
unicode = FF6E;
},
{
glyphname = "tusmall-kata.half";
lastChange = "2020-01-22 14:15:59 +0000";
layers = (
{
layerId = "4FF06481-DC31-47E8-8EFF-C3C3B18F183D";
paths = (
{
closed = 1;
nodes = (
"181 -25 OFFCURVE",
"285 50 OFFCURVE",
"351 166 CURVE SMOOTH",
"440 322 OFFCURVE",
"453 473 OFFCURVE",
"450 521 CURVE SMOOTH",
"446 588 OFFCURVE",
"304 662 OFFCURVE",
"357 577 CURVE SMOOTH",
"395 516 OFFCURVE",
"380 354 OFFCURVE",
"304 205 CURVE SMOOTH",
"253 105 OFFCURVE",
"190 31 OFFCURVE",
"100 -20 CURVE SMOOTH",
"68 -38 OFFCURVE",
"77 -57 OFFCURVE",
"115 -45 CURVE SMOOTH"
);
},
{
closed = 1;
nodes = (
"114 248 OFFCURVE",
"172 294 OFFCURVE",
"154 361 CURVE SMOOTH",
"140 414 OFFCURVE",
"114 457 OFFCURVE",
"76 503 CURVE SMOOTH",
"50 535 OFFCURVE",
"27 523 OFFCURVE",
"45 487 CURVE SMOOTH",
"72 433 OFFCURVE",
"82 393 OFFCURVE",
"98 320 CURVE SMOOTH"
);
},
{
closed = 1;
nodes = (
"224 347 OFFCURVE",
"284 402 OFFCURVE",
"260 470 CURVE SMOOTH",
"243 519 OFFCURVE",
"210 564 OFFCURVE",
"183 592 CURVE",
"149 627 OFFCURVE",
"135 608 OFFCURVE",
"151 577 CURVE SMOOTH",
"169 542 OFFCURVE",
"188 490 OFFCURVE",
"205 422 CURVE SMOOTH"
);
}
);
width = 500;
}
);
unicode = FF6F;
},
{
glyphname = "prolonged-kana.half";
lastChange = "2020-01-22 14:15:59 +0000";
layers = (
{
layerId = "4FF06481-DC31-47E8-8EFF-C3C3B18F183D";
paths = (
{
closed = 1;
nodes = (
"415 352 OFFCURVE",
"301 348 OFFCURVE",
"250 345 CURVE SMOOTH",
"158 340 OFFCURVE",
"125 320 OFFCURVE",
"105 317 CURVE SMOOTH",
"52 310 OFFCURVE",
"-9 430 OFFCURVE",
"55 397 CURVE SMOOTH",
"101 372 OFFCURVE",
"179 375 OFFCURVE",
"258 384 CURVE SMOOTH",
"372 396 OFFCURVE",
"392 417 OFFCURVE",
"402 418 CURVE SMOOTH",
"457 422 OFFCURVE",
"508 341 OFFCURVE",
"440 349 CURVE SMOOTH"
);
}
);
width = 500;
}
);
unicode = FF70;
},
{
glyphname = "a-kata.half";
lastChange = "2020-01-22 14:15:59 +0000";
layers = (
{
layerId = "4FF06481-DC31-47E8-8EFF-C3C3B18F183D";
paths = (
{
closed = 1;
nodes = (
"257 369 LINE",
"368 435 OFFCURVE",
"450 590 OFFCURVE",
"465 600 CURVE SMOOTH",
"474 606 OFFCURVE",
"470 645 OFFCURVE",
"418 703 CURVE SMOOTH",
"390 734 OFFCURVE",
"421 703 OFFCURVE",
"240 676 CURVE SMOOTH",
"145 662 OFFCURVE",
"92 662 OFFCURVE",
"49 703 CURVE SMOOTH",
"5 745 OFFCURVE",
"33 628 OFFCURVE",
"92 597 CURVE",
"119 581 OFFCURVE",
"128 614 OFFCURVE",
"238 631 CURVE SMOOTH",
"333 646 OFFCURVE",
"360 646 OFFCURVE",
"371 628 CURVE",
"379 613 OFFCURVE",
"362 513 OFFCURVE",
"255 414 CURVE",
"260 367 LINE"
);
},
{
closed = 1;
nodes = (
"253 64 OFFCURVE",
"313 269 OFFCURVE",
"282 489 CURVE",
"274 528 OFFCURVE",
"167 588 OFFCURVE",
"191 549 CURVE SMOOTH",
"257 441 OFFCURVE",
"261 129 OFFCURVE",
"101 13 CURVE SMOOTH",
"81 -1 OFFCURVE",
"90 -9 OFFCURVE",
"114 3 CURVE"
);
}
);
width = 500;
}
);
leftKerningGroup = "a-kata";
unicode = FF71;
},
{
glyphname = "i-kata.half";
lastChange = "2020-01-22 14:15:59 +0000";
layers = (
{
layerId = "4FF06481-DC31-47E8-8EFF-C3C3B18F183D";
paths = (
{
closed = 1;
nodes = (
"113 223 OFFCURVE",
"214 305 OFFCURVE",
"275 399 CURVE SMOOTH",
"317 464 OFFCURVE",
"374 593 OFFCURVE",
"402 698 CURVE SMOOTH",
"406 713 OFFCURVE",
"388 733 OFFCURVE",
"347 763 CURVE",
"329 778 OFFCURVE",
"309 779 OFFCURVE",
"320 764 CURVE",
"348 717 OFFCURVE",
"297 559 OFFCURVE",
"254 478 CURVE SMOOTH",
"192 362 OFFCURVE",
"134 292 OFFCURVE",
"47 218 CURVE SMOOTH",
"14 190 OFFCURVE",
"19 172 OFFCURVE",
"54 191 CURVE SMOOTH"
);
},
{
closed = 1;
nodes = (
"261 -66 OFFCURVE",
"357 -4 OFFCURVE",
"341 66 CURVE SMOOTH",
"323 146 OFFCURVE",
"327 327 OFFCURVE",
"341 381 CURVE",
"351 409 OFFCURVE",
"324 427 OFFCURVE",
"293 446 CURVE SMOOTH",
"257 468 OFFCURVE",
"246 471 OFFCURVE",
"257 455 CURVE SMOOTH",
"306 383 OFFCURVE",
"279 130 OFFCURVE",
"269 20 CURVE SMOOTH"
);
}
);
width = 500;
}
);
unicode = FF72;
},
